<svg xmlns="http://www.w3.org/2000/svg" xmlns:xlink="http://www.w3.org/1999/xlink" width="400" zoomAndPan="magnify" viewBox="0 0 300 299.999988" height="400" preserveAspectRatio="xMidYMid meet" version="1.0"><defs><clipPath id="712a9d326c"><path d="M 152 11.0625 L 287.820312 11.0625 L 287.820312 288.5625 L 152 288.5625 Z M 152 11.0625 " clip-rule="nonzero"/></clipPath><clipPath id="da69010cbc"><path d="M 202 282 L 235 282 L 235 288.5625 L 202 288.5625 Z M 202 282 " clip-rule="nonzero"/></clipPath><clipPath id="ab981d8602"><path d="M 11.820312 13 L 153 13 L 153 283 L 11.820312 283 Z M 11.820312 13 " clip-rule="nonzero"/></clipPath><clipPath id="3681803cdb"><path d="M 11.820312 11.0625 L 272 11.0625 L 272 268 L 11.820312 268 Z M 11.820312 11.0625 " clip-rule="nonzero"/></clipPath><clipPath id="ea89f75136"><path d="M 16 57 L 287.820312 57 L 287.820312 278 L 16 278 Z M 16 57 " clip-rule="nonzero"/></clipPath><clipPath id="f1e90dad97"><path d="M 202 282 L 235 282 L 235 288.5625 L 202 288.5625 Z M 202 282 " clip-rule="nonzero"/></clipPath><clipPath id="c49b4ac4f0"><path d="M 253 272 L 277 272 L 277 288.5625 L 253 288.5625 Z M 253 272 " clip-rule="nonzero"/></clipPath></defs><path fill="#eaeaea" d="M 191.402344 223.011719 C 191.390625 220.949219 191.214844 218.871094 190.898438 216.792969 L 204.113281 216.792969 C 205.972656 216.792969 207.484375 215.285156 207.484375 213.421875 L 207.484375 197.535156 C 206.476562 197.953125 205.371094 198.191406 204.210938 198.191406 C 199.480469 198.191406 195.640625 194.355469 195.640625 189.625 C 195.640625 184.890625 199.480469 181.054688 204.210938 181.054688 C 205.371094 181.054688 206.476562 181.292969 207.484375 181.710938 L 207.484375 166.605469 C 207.484375 164.742188 205.972656 163.234375 204.113281 163.234375 L 187.929688 163.234375 C 188.574219 162.03125 188.941406 160.65625 188.941406 159.195312 C 188.941406 154.460938 185.105469 150.625 180.371094 150.625 C 175.640625 150.625 171.804688 154.460938 171.804688 159.195312 C 171.804688 160.65625 172.171875 162.03125 172.816406 163.234375 L 157.292969 163.234375 C 155.429688 163.234375 153.921875 164.742188 153.921875 166.605469 L 153.921875 187.09375 C 152.421875 186.808594 150.90625 186.605469 149.371094 186.511719 L 146.734375 179.007812 C 145.027344 179.019531 143.308594 179.140625 141.589844 179.359375 L 141.589844 155.4375 C 141.589844 153.574219 140.078125 152.0625 138.214844 152.0625 L 122.035156 152.0625 C 122.679688 150.859375 123.046875 149.484375 123.046875 148.027344 C 123.046875 143.292969 119.210938 139.457031 114.476562 139.457031 C 109.746094 139.457031 105.90625 143.292969 105.90625 148.027344 C 105.90625 149.484375 106.273438 150.859375 106.917969 152.0625 L 91.398438 152.0625 C 89.535156 152.0625 88.023438 153.574219 88.023438 155.4375 L 88.023438 202.253906 C 88.023438 204.117188 89.535156 205.625 91.398438 205.625 L 106.449219 205.625 C 106.0625 206.507812 105.695312 207.398438 105.371094 208.304688 L 111.5625 213.28125 C 110.84375 215.796875 110.394531 218.394531 110.234375 221.039062 L 102.726562 223.675781 C 102.742188 226.160156 102.984375 228.664062 103.433594 231.171875 L 111.28125 232.375 C 111.601562 233.640625 111.984375 234.894531 112.449219 236.148438 C 112.910156 237.394531 113.433594 238.59375 114.011719 239.765625 L 108.839844 245.785156 C 110.125 247.980469 111.574219 250.039062 113.179688 251.9375 L 120.59375 249.054688 C 122.4375 250.960938 124.464844 252.640625 126.652344 254.089844 L 125.183594 261.890625 C 127.371094 263.128906 129.664062 264.183594 132.027344 265.039062 L 136.996094 258.847656 C 139.519531 259.566406 142.117188 260.015625 144.761719 260.171875 L 147.398438 267.679688 C 149.882812 267.664062 152.386719 267.421875 154.894531 266.972656 L 156.097656 259.128906 C 157.363281 258.808594 158.617188 258.421875 159.863281 257.960938 C 161.117188 257.496094 162.316406 256.976562 163.488281 256.394531 L 169.507812 261.566406 C 171.703125 260.28125 173.761719 258.835938 175.660156 257.230469 L 172.777344 249.8125 C 174.683594 247.972656 176.359375 245.941406 177.804688 243.757812 L 185.613281 245.222656 C 186.851562 243.035156 187.90625 240.746094 188.761719 238.382812 L 182.570312 233.410156 C 183.28125 230.890625 183.738281 228.292969 183.894531 225.648438 Z M 153.679688 241.242188 C 143.800781 244.898438 132.820312 239.84375 129.167969 229.964844 C 125.511719 220.078125 130.5625 209.097656 140.441406 205.445312 C 144.976562 203.769531 149.738281 203.929688 153.921875 205.539062 L 153.921875 213.421875 C 153.921875 215.285156 155.429688 216.792969 157.292969 216.792969 L 164.988281 216.792969 C 168.59375 226.65625 163.546875 237.597656 153.679688 241.242188 Z M 153.679688 241.242188 " fill-opacity="1" fill-rule="nonzero"/><g clip-path="url(#712a9d326c)"><path fill="#eaeaea" d="M 287.734375 178.714844 C 287.734375 178.710938 287.738281 178.703125 287.738281 178.695312 C 287.71875 178.214844 287.601562 176.9375 287.441406 175.34375 C 287.023438 171.144531 286.3125 164.734375 286.3125 164.734375 L 283.4375 139.019531 L 284.546875 138.800781 C 283.304688 126.515625 282.921875 111.984375 282.707031 109.109375 C 282.414062 105.71875 282.128906 102.324219 281.707031 98.941406 C 281.308594 95.753906 279.273438 93.179688 276.554688 91.925781 C 276.558594 91.902344 276.558594 91.886719 276.558594 91.886719 C 270.257812 89.167969 264.101562 87.367188 258 86.488281 L 258.101562 87.835938 L 257.226562 76.238281 L 257.253906 76.5625 C 258.984375 76.257812 265.796875 74.664062 265.023438 68.472656 C 265.023438 68.472656 270.390625 62.316406 265.0625 57.519531 C 265.125 51.953125 262.121094 49.25 256.527344 48.980469 C 256.527344 48.980469 246.371094 48.113281 242.242188 47.8125 C 242.625 46.667969 242.933594 45.492188 243.140625 44.292969 L 248.210938 43.125 C 248.382812 41.507812 248.40625 39.863281 248.296875 38.203125 L 243.285156 36.851562 C 243.167969 36.003906 243.011719 35.160156 242.800781 34.316406 C 242.589844 33.46875 242.339844 32.652344 242.046875 31.847656 L 245.84375 28.3125 C 245.167969 26.792969 244.378906 25.347656 243.472656 24 L 238.445312 25.332031 C 237.386719 23.960938 236.183594 22.722656 234.871094 21.625 L 236.394531 16.65625 C 235.0625 15.695312 233.648438 14.84375 232.175781 14.113281 L 228.492188 17.777344 C 226.910156 17.132812 225.253906 16.648438 223.546875 16.351562 L 222.378906 11.28125 C 220.761719 11.109375 219.117188 11.085938 217.457031 11.195312 L 216.101562 16.207031 C 215.257812 16.324219 214.414062 16.484375 213.566406 16.691406 C 212.722656 16.902344 211.902344 17.15625 211.101562 17.445312 L 207.566406 13.648438 C 206.042969 14.324219 204.601562 15.113281 203.25 16.019531 L 204.585938 21.046875 C 203.214844 22.105469 201.976562 23.308594 200.875 24.621094 L 195.910156 23.097656 C 194.945312 24.429688 194.09375 25.84375 193.367188 27.316406 L 197.03125 31 C 196.382812 32.585938 195.898438 34.238281 195.605469 35.945312 L 190.535156 37.113281 C 190.363281 38.730469 190.339844 40.375 190.449219 42.035156 L 195.460938 43.386719 C 195.578125 44.234375 195.734375 45.078125 195.945312 45.925781 C 196.15625 46.769531 196.40625 47.585938 196.699219 48.390625 L 195.011719 49.960938 L 188.0625 49.960938 C 188.691406 51.144531 189.054688 52.496094 189.054688 53.929688 C 189.054688 58.613281 185.257812 62.40625 180.578125 62.40625 C 175.898438 62.40625 172.105469 58.613281 172.105469 53.929688 C 172.105469 52.496094 172.464844 51.144531 173.09375 49.960938 L 156.011719 49.960938 C 154.160156 49.960938 152.660156 51.460938 152.660156 53.3125 L 152.660156 68.753906 C 153.878906 68.273438 155.234375 68.054688 156.65625 68.210938 C 160.769531 68.65625 164.007812 72.132812 164.152344 76.265625 C 164.324219 81.050781 160.496094 84.980469 155.75 84.980469 C 154.65625 84.980469 153.617188 84.769531 152.660156 84.390625 L 152.660156 99.832031 C 152.660156 101.683594 154.160156 103.183594 156.011719 103.183594 L 162.125 103.183594 C 162.074219 103.800781 162.503906 104.371094 163.476562 104.515625 C 163.804688 104.5625 164.210938 104.609375 164.671875 104.652344 C 164.328125 105.34375 164.582031 106.066406 165.585938 106.183594 C 166.019531 106.234375 166.675781 106.304688 167.449219 106.386719 C 167.636719 106.644531 167.921875 106.867188 168.324219 106.988281 C 170.09375 107.519531 173.480469 108.269531 174.78125 108.554688 C 175.128906 108.628906 175.480469 108.679688 175.839844 108.707031 C 175.839844 108.707031 182.644531 109.277344 183.664062 109.328125 L 183.683594 109.332031 L 183.683594 109.328125 C 183.917969 109.339844 184.15625 109.347656 184.394531 109.351562 L 198.882812 135.566406 C 201.34375 139.609375 206.613281 140.890625 210.65625 138.433594 C 211.347656 138.011719 214.253906 135.035156 217.214844 131.921875 L 220.261719 136.191406 L 225.265625 124.898438 L 225.398438 126.296875 C 225.414062 126.464844 225.554688 126.59375 225.722656 126.59375 C 225.734375 126.59375 225.742188 126.59375 225.753906 126.589844 C 225.769531 126.589844 225.785156 126.582031 225.800781 126.578125 C 226.058594 130.039062 226.21875 132.933594 226.21875 134.710938 C 226.21875 141.378906 225.207031 153.121094 225.207031 158 C 225.207031 158.839844 225.605469 159.589844 226.230469 160.074219 L 226.035156 165.433594 C 226.054688 165.429688 226.074219 165.421875 226.097656 165.421875 C 225.882812 165.421875 225.707031 165.59375 225.707031 165.808594 C 225.707031 166.023438 225.882812 166.199219 226.097656 166.199219 C 226.066406 166.199219 226.035156 166.1875 226.007812 166.179688 L 224.273438 213.285156 L 222.011719 266.402344 L 222.363281 266.402344 C 222.105469 269.628906 221.632812 271.804688 220.914062 273.621094 C 224.445312 278.277344 229.0625 277.914062 232.140625 276.691406 C 229.0625 277.914062 224.445312 278.277344 220.914062 273.617188 C 218.613281 276.492188 212.585938 280.15625 207.914062 282.425781 L 209.941406 285.59375 L 234.292969 285.59375 C 234.351562 283.089844 234.207031 279.433594 233.167969 276.234375 C 233.152344 273.21875 233.574219 269.175781 233.917969 266.402344 L 235.25 266.402344 C 238.128906 256.839844 244.820312 233.261719 241.554688 216.324219 L 248.691406 167.960938 L 244.445312 167.691406 L 250.460938 168.070312 C 250.46875 168.074219 250.476562 168.074219 250.484375 168.074219 C 250.488281 168.074219 250.492188 168.070312 250.496094 168.070312 L 253.5 266.398438 L 254.238281 266.398438 C 254.234375 266.605469 254.222656 266.804688 254.222656 267.019531 C 254.222656 270.789062 254.003906 273.675781 253.820312 277.695312 C 253.804688 277.996094 253.792969 278.304688 253.777344 278.617188 C 253.773438 278.734375 253.769531 278.859375 253.765625 278.976562 C 253.757812 279.15625 253.75 279.332031 253.742188 279.515625 C 253.734375 279.710938 253.730469 279.910156 253.722656 280.109375 C 253.71875 280.226562 253.714844 280.339844 253.710938 280.457031 C 253.703125 280.695312 253.695312 280.941406 253.6875 281.1875 C 253.683594 281.257812 253.683594 281.328125 253.679688 281.398438 C 253.628906 283.148438 253.589844 285.117188 253.582031 287.414062 C 253.578125 288.066406 254.105469 288.597656 254.757812 288.597656 L 275.378906 288.597656 C 276.097656 288.597656 276.660156 287.957031 276.542969 287.246094 C 276.105469 284.578125 274.390625 282.699219 272.433594 280.914062 C 272.433594 280.914062 272.433594 280.917969 272.4375 280.917969 C 272.367188 280.851562 272.292969 280.789062 272.222656 280.726562 C 271.632812 280.195312 271.027344 279.667969 270.429688 279.128906 C 270.289062 279.003906 270.152344 278.875 270.011719 278.75 C 269.867188 278.613281 269.71875 278.476562 269.574219 278.339844 C 269.425781 278.199219 269.28125 278.058594 269.136719 277.914062 C 269.007812 277.785156 268.875 277.652344 268.75 277.519531 C 268.601562 277.367188 268.457031 277.207031 268.316406 277.050781 C 268.199219 276.921875 268.082031 276.789062 267.96875 276.65625 C 267.828125 276.484375 267.691406 276.304688 267.554688 276.128906 C 267.457031 276 267.355469 275.871094 267.261719 275.738281 C 267.117188 275.535156 266.988281 275.320312 266.855469 275.105469 C 266.785156 274.988281 266.707031 274.875 266.636719 274.753906 C 266.449219 274.417969 266.277344 274.070312 266.128906 273.707031 C 266.125 273.699219 266.125 273.695312 266.121094 273.691406 C 266.058594 273.542969 266.007812 273.390625 265.953125 273.238281 C 265.121094 270.976562 264.984375 268.691406 265.066406 266.398438 L 266.710938 266.398438 C 267.816406 259.816406 269.898438 247.183594 270.902344 239.683594 C 272.296875 229.199219 270.230469 213.792969 270.230469 213.792969 L 271.164062 166.199219 C 271.164062 166.199219 271.167969 166.199219 271.171875 166.199219 C 271.386719 166.199219 271.558594 166.023438 271.558594 165.808594 C 271.558594 165.597656 271.390625 165.425781 271.179688 165.421875 L 271.28125 160.203125 C 271.996094 159.726562 272.460938 158.925781 272.460938 158.019531 C 272.460938 155.8125 272.253906 152.179688 272.027344 148.253906 C 273.9375 155.078125 276.167969 163.035156 276.972656 165.894531 L 276.964844 165.898438 C 276.792969 165.949219 276.695312 166.132812 276.746094 166.304688 C 276.769531 166.378906 276.820312 166.4375 276.878906 166.476562 C 276.820312 166.570312 276.753906 166.664062 276.703125 166.757812 C 275.433594 169.097656 275.191406 170.675781 275.558594 174.035156 C 275.441406 174.105469 275.378906 174.234375 275.40625 174.371094 C 275.34375 174.355469 275.285156 174.328125 275.21875 174.320312 C 274.347656 174.214844 273.585938 174.914062 273.625 175.792969 L 273.808594 180.378906 C 273.828125 180.804688 274.035156 181.199219 274.375 181.457031 L 277.585938 183.886719 C 277.765625 184.199219 277.980469 184.476562 278.253906 184.691406 C 278.464844 184.855469 278.722656 184.941406 278.984375 184.941406 C 278.988281 184.941406 278.992188 184.9375 279 184.9375 C 279.5 185.28125 280.167969 185.277344 280.65625 184.90625 L 287.175781 179.988281 C 287.550781 179.707031 287.761719 179.257812 287.742188 178.792969 Z M 254.71875 277.882812 C 254.78125 277.882812 254.84375 277.886719 254.910156 277.882812 C 254.84375 277.886719 254.78125 277.882812 254.71875 277.882812 Z M 256.902344 277.003906 C 257.054688 276.871094 257.203125 276.730469 257.359375 276.566406 C 257.554688 276.359375 257.75 276.160156 257.949219 275.964844 C 257.75 276.160156 257.554688 276.359375 257.359375 276.566406 C 257.207031 276.730469 257.054688 276.871094 256.902344 277.003906 Z M 255.09375 277.871094 C 255.164062 277.863281 255.242188 277.847656 255.316406 277.835938 C 255.242188 277.847656 255.164062 277.863281 255.09375 277.871094 Z M 255.480469 277.800781 C 255.609375 277.765625 255.742188 277.722656 255.871094 277.667969 C 255.742188 277.722656 255.609375 277.765625 255.480469 277.800781 Z M 255.972656 277.617188 C 256.082031 277.566406 256.191406 277.507812 256.304688 277.441406 C 256.191406 277.507812 256.082031 277.566406 255.972656 277.617188 Z M 256.449219 277.34375 C 256.554688 277.277344 256.660156 277.199219 256.765625 277.113281 C 256.660156 277.199219 256.554688 277.277344 256.449219 277.34375 Z M 263.769531 272.9375 C 263.402344 272.957031 263.035156 273.011719 262.667969 273.097656 C 262.460938 273.144531 262.253906 273.207031 262.042969 273.277344 C 262.976562 272.964844 263.917969 272.855469 264.859375 272.984375 C 264.496094 272.933594 264.132812 272.921875 263.769531 272.9375 Z M 258.128906 275.796875 C 258.269531 275.664062 258.410156 275.535156 258.550781 275.410156 C 258.410156 275.535156 258.269531 275.664062 258.128906 275.796875 Z M 258.757812 275.230469 C 258.898438 275.113281 259.039062 274.996094 259.179688 274.886719 C 259.039062 274.996094 258.898438 275.113281 258.757812 275.230469 Z M 259.367188 274.738281 C 259.769531 274.433594 260.175781 274.167969 260.585938 273.933594 C 260.175781 274.167969 259.769531 274.433594 259.367188 274.738281 Z M 260.769531 273.835938 C 260.914062 273.757812 261.0625 273.683594 261.207031 273.613281 C 261.0625 273.683594 260.917969 273.757812 260.769531 273.835938 Z M 261.417969 273.519531 C 261.5625 273.457031 261.710938 273.398438 261.859375 273.34375 C 261.710938 273.398438 261.5625 273.457031 261.417969 273.519531 Z M 265.40625 273.085938 C 265.242188 273.046875 265.078125 273.019531 264.914062 272.996094 C 265.078125 273.019531 265.242188 273.046875 265.40625 273.085938 Z M 266.050781 161.238281 C 265.832031 161.269531 265.617188 161.296875 265.398438 161.328125 C 265.9375 161.257812 266.472656 161.1875 267.007812 161.113281 C 266.691406 161.15625 266.371094 161.203125 266.050781 161.242188 C 266.050781 161.242188 266.050781 161.242188 266.050781 161.238281 Z M 267.84375 160.996094 C 268.65625 160.878906 269.460938 160.753906 270.257812 160.617188 C 269.460938 160.753906 268.65625 160.878906 267.84375 160.996094 Z M 264.363281 161.449219 C 263.886719 161.503906 263.40625 161.558594 262.925781 161.609375 C 263.40625 161.558594 263.886719 161.503906 264.363281 161.449219 Z M 261.769531 161.71875 C 261.324219 161.761719 260.878906 161.800781 260.433594 161.835938 C 260.878906 161.800781 261.324219 161.761719 261.769531 161.71875 Z M 259.183594 161.933594 C 258.765625 161.964844 258.347656 161.992188 257.929688 162.019531 C 258.347656 161.992188 258.765625 161.964844 259.183594 161.933594 Z M 256.59375 162.097656 C 256.210938 162.121094 255.828125 162.136719 255.445312 162.152344 C 255.828125 162.136719 256.210938 162.121094 256.59375 162.097656 Z M 216.371094 28.007812 C 223.058594 26.347656 229.828125 30.429688 231.488281 37.121094 C 233.144531 43.804688 229.0625 50.574219 222.371094 52.234375 C 215.683594 53.890625 208.917969 49.808594 207.257812 43.121094 C 205.601562 36.429688 209.683594 29.664062 216.371094 28.007812 Z M 224.34375 91.160156 C 224.332031 91.164062 224.324219 91.167969 224.3125 91.171875 C 222.183594 91.910156 220.347656 93.476562 219.328125 95.691406 L 206.921875 117.496094 L 215.023438 128.851562 L 207.511719 118.320312 L 206.917969 118.917969 L 194.792969 103.183594 L 202.53125 103.183594 C 204.382812 103.183594 205.882812 101.683594 205.882812 99.832031 L 205.882812 65.765625 C 206.113281 65.886719 206.339844 66.007812 206.570312 66.125 L 210.25 62.460938 C 211.835938 63.109375 213.492188 63.589844 215.199219 63.886719 L 216.367188 68.957031 C 217.984375 69.125 219.628906 69.152344 221.289062 69.039062 L 222.640625 64.03125 C 223.488281 63.914062 224.332031 63.753906 225.175781 63.546875 C 226.023438 63.335938 226.839844 63.082031 227.644531 62.789062 L 231.179688 66.589844 C 232.699219 65.914062 234.144531 65.121094 235.492188 64.21875 L 234.160156 59.1875 C 235.53125 58.128906 236.769531 56.933594 237.867188 55.617188 L 238.113281 55.691406 C 238.179688 55.933594 238.273438 56.148438 238.378906 56.347656 C 237.664062 57.769531 237.195312 59.34375 237.058594 61.027344 C 236.875 63.222656 237.265625 65.328125 238.097656 67.210938 C 238.082031 67.550781 238.078125 67.742188 238.078125 67.742188 L 238.199219 74.773438 C 238.253906 77.957031 239.832031 80.828125 242.25 82.574219 L 242.214844 86.304688 C 236.304688 87.027344 230.375 88.640625 224.34375 91.160156 Z M 239.820312 57.46875 C 239.722656 57.769531 239.632812 58.070312 239.546875 58.367188 C 239.632812 58.070312 239.722656 57.769531 239.820312 57.46875 Z M 239.46875 58.648438 C 239.410156 58.855469 239.355469 59.0625 239.300781 59.265625 C 239.355469 59.0625 239.410156 58.855469 239.46875 58.648438 Z M 239.222656 59.574219 C 239.171875 59.777344 239.125 59.976562 239.078125 60.175781 C 239.125 59.976562 239.171875 59.777344 239.222656 59.574219 Z M 239.015625 60.453125 C 238.957031 60.707031 238.902344 60.957031 238.851562 61.207031 C 238.902344 60.957031 238.957031 60.707031 239.015625 60.453125 Z M 238.835938 61.292969 C 238.777344 61.570312 238.726562 61.847656 238.679688 62.113281 C 238.726562 61.847656 238.777344 61.570312 238.835938 61.292969 Z M 238.640625 62.335938 C 238.609375 62.53125 238.578125 62.71875 238.546875 62.90625 C 238.578125 62.71875 238.609375 62.53125 238.640625 62.335938 Z M 238.507812 63.164062 C 238.480469 63.335938 238.457031 63.507812 238.433594 63.675781 C 238.457031 63.507812 238.480469 63.335938 238.507812 63.164062 Z M 238.402344 63.90625 C 238.375 64.101562 238.351562 64.292969 238.328125 64.480469 C 238.351562 64.292969 238.375 64.101562 238.402344 63.90625 Z M 238.316406 64.585938 C 238.289062 64.804688 238.265625 65.015625 238.246094 65.21875 C 238.265625 65.015625 238.289062 64.804688 238.316406 64.585938 Z M 238.230469 65.386719 C 238.21875 65.523438 238.203125 65.660156 238.191406 65.789062 C 238.203125 65.660156 238.21875 65.523438 238.230469 65.386719 Z M 238.175781 65.992188 C 238.167969 66.101562 238.160156 66.203125 238.152344 66.300781 C 238.160156 66.203125 238.167969 66.101562 238.175781 65.992188 Z M 238.136719 66.492188 C 238.132812 66.582031 238.125 66.664062 238.121094 66.746094 C 238.125 66.664062 238.132812 66.582031 238.136719 66.492188 Z M 238.113281 66.910156 C 238.109375 66.957031 238.105469 66.996094 238.105469 67.039062 C 238.109375 66.996094 238.109375 66.957031 238.113281 66.910156 Z M 232.042969 161.253906 C 232.007812 161.25 231.972656 161.242188 231.9375 161.238281 C 231.957031 161.242188 231.976562 161.246094 231.996094 161.246094 C 232.011719 161.25 232.027344 161.25 232.042969 161.253906 Z M 226.882812 160.441406 C 226.8125 160.414062 226.742188 160.382812 226.671875 160.347656 C 226.742188 160.382812 226.8125 160.414062 226.882812 160.441406 Z M 227.433594 160.601562 C 227.292969 160.578125 227.160156 160.539062 227.03125 160.496094 C 227.160156 160.539062 227.292969 160.578125 227.433594 160.601562 Z M 234.175781 161.496094 C 234.25 161.503906 234.328125 161.515625 234.402344 161.523438 C 234.328125 161.515625 234.25 161.503906 234.175781 161.496094 Z M 241.488281 162.085938 C 241.585938 162.09375 241.683594 162.097656 241.78125 162.101562 C 241.683594 162.097656 241.585938 162.09375 241.488281 162.085938 Z M 236.546875 161.730469 C 236.660156 161.742188 236.769531 161.75 236.882812 161.761719 C 236.769531 161.75 236.660156 161.742188 236.546875 161.730469 Z M 239 161.929688 C 239.117188 161.9375 239.234375 161.945312 239.351562 161.953125 C 239.234375 161.945312 239.117188 161.9375 239 161.929688 Z M 250.753906 167.964844 C 250.761719 167.957031 250.765625 167.949219 250.769531 167.941406 C 250.765625 167.949219 250.761719 167.957031 250.753906 167.964844 Z M 250.835938 167.851562 C 250.855469 167.804688 250.871094 167.757812 250.875 167.707031 C 250.871094 167.757812 250.859375 167.808594 250.835938 167.851562 Z M 253.035156 162.242188 C 253.351562 162.230469 253.671875 162.226562 253.988281 162.214844 C 253.671875 162.226562 253.351562 162.230469 253.035156 162.242188 Z M 251.003906 162.285156 C 251.125 162.28125 251.25 162.28125 251.375 162.28125 C 251.25 162.28125 251.125 162.28125 251.003906 162.285156 Z M 265.414062 161.734375 C 265.359375 161.601562 265.308594 161.472656 265.257812 161.347656 C 265.308594 161.472656 265.359375 161.601562 265.414062 161.734375 Z M 266.5625 163.765625 C 266.5625 163.765625 266.558594 163.761719 266.558594 163.761719 C 266.558594 163.761719 266.558594 163.765625 266.5625 163.765625 Z M 265.796875 162.542969 C 265.789062 162.527344 265.785156 162.515625 265.777344 162.503906 C 265.785156 162.515625 265.789062 162.527344 265.796875 162.542969 Z M 270.785156 160.464844 C 270.796875 160.460938 270.808594 160.453125 270.824219 160.449219 C 270.808594 160.453125 270.796875 160.460938 270.785156 160.464844 Z M 271.835938 144.871094 C 271.863281 145.367188 271.890625 145.859375 271.917969 146.355469 C 271.890625 145.859375 271.863281 145.367188 271.835938 144.871094 Z M 271.652344 141.378906 C 271.675781 141.878906 271.699219 142.390625 271.726562 142.898438 C 271.703125 142.386719 271.675781 141.878906 271.652344 141.378906 Z M 271.75 143.335938 C 271.773438 143.773438 271.796875 144.210938 271.820312 144.648438 C 271.796875 144.210938 271.773438 143.773438 271.75 143.335938 Z M 271.960938 147.101562 C 271.96875 147.269531 271.980469 147.441406 271.988281 147.609375 C 271.980469 147.441406 271.96875 147.269531 271.960938 147.101562 Z M 271.960938 147.101562 " fill-opacity="1" fill-rule="nonzero"/></g><g clip-path="url(#da69010cbc)"><path fill="#eaeaea" d="M 202.246094 287.273438 C 202.152344 287.976562 202.703125 288.597656 203.414062 288.597656 L 233.03125 288.597656 C 233.644531 288.597656 234.15625 288.128906 234.203125 287.515625 C 234.238281 287.011719 234.273438 286.355469 234.292969 285.59375 L 209.941406 285.59375 L 207.914062 282.425781 C 207.203125 282.769531 206.523438 283.085938 205.894531 283.355469 C 203.125 284.554688 202.425781 285.941406 202.246094 287.273438 Z M 202.246094 287.273438 " fill-opacity="1" fill-rule="nonzero"/></g><g clip-path="url(#ab981d8602)"><path fill="#eaeaea" d="M 87.449219 132.054688 C 87.449219 133.898438 88.945312 135.390625 90.785156 135.390625 L 105.527344 135.390625 C 105.128906 134.40625 104.90625 133.332031 104.90625 132.207031 C 104.90625 127.472656 108.742188 123.636719 113.476562 123.636719 C 118.210938 123.636719 122.046875 127.472656 122.046875 132.207031 C 122.046875 133.332031 121.824219 134.40625 121.425781 135.390625 L 137.082031 135.390625 C 138.921875 135.390625 140.414062 133.898438 140.414062 132.054688 L 140.414062 116.058594 C 141.605469 116.695312 142.964844 117.058594 144.40625 117.058594 C 149.085938 117.058594 152.882812 113.261719 152.882812 108.582031 C 152.882812 103.902344 149.089844 100.109375 144.40625 100.109375 C 142.964844 100.109375 141.605469 100.472656 140.414062 101.109375 L 140.414062 85.761719 C 140.414062 83.921875 138.921875 82.429688 137.082031 82.429688 L 107.308594 82.429688 C 107.328125 82.34375 107.347656 82.253906 107.367188 82.171875 L 108.601562 79.941406 C 108.96875 79.144531 108.542969 78.210938 107.703125 77.957031 C 107.125 77.78125 106.546875 77.992188 106.183594 78.425781 C 106.128906 77.765625 105.664062 77.171875 104.96875 77.003906 C 104.179688 76.8125 103.425781 77.25 103.117188 77.976562 C 103.148438 77.132812 102.519531 76.382812 101.644531 76.304688 C 100.734375 76.226562 99.980469 76.925781 99.890625 77.835938 C 99.882812 77.894531 99.878906 77.972656 99.871094 78.058594 L 98.824219 77.964844 C 98.558594 77.25 97.816406 76.785156 97.019531 76.933594 C 96.539062 77.023438 96.164062 77.316406 95.9375 77.710938 L 95.753906 77.691406 C 95.753906 77.691406 95.453125 79.449219 95.074219 82.191406 C 94.773438 81.628906 94.402344 80.910156 94.039062 80.136719 C 93.597656 79.195312 93.101562 78.527344 92.613281 78.0625 C 93.003906 77.367188 93.382812 76.667969 93.738281 75.953125 L 90.636719 72.835938 C 91.246094 69.703125 92.019531 66.929688 92.3125 62.679688 L 97.953125 61.382812 C 98.203125 58.976562 98.242188 56.53125 98.078125 54.0625 L 90.625 52.050781 C 90.453125 50.789062 90.214844 49.539062 89.90625 48.285156 C 89.59375 47.023438 89.21875 45.804688 88.78125 44.609375 L 94.433594 39.351562 C 93.425781 37.09375 92.25 34.945312 90.90625 32.9375 L 83.425781 34.921875 C 81.851562 32.882812 80.0625 31.042969 78.113281 29.410156 L 80.375 22.019531 C 78.394531 20.585938 76.296875 19.320312 74.101562 18.238281 L 68.625 23.6875 C 66.269531 22.726562 63.808594 22.003906 61.269531 21.566406 L 59.535156 14.027344 C 57.128906 13.773438 54.683594 13.738281 52.210938 13.902344 L 50.203125 21.351562 C 48.941406 21.527344 47.691406 21.761719 46.429688 22.074219 C 45.171875 22.386719 43.957031 22.761719 42.761719 23.195312 L 37.503906 17.546875 C 35.242188 18.550781 33.097656 19.730469 31.089844 21.074219 L 33.074219 28.554688 C 31.03125 30.128906 29.191406 31.914062 27.554688 33.867188 L 20.171875 31.605469 C 18.734375 33.585938 17.46875 35.683594 16.390625 37.875 L 21.835938 43.355469 C 20.871094 45.710938 20.15625 48.171875 19.714844 50.707031 L 12.175781 52.445312 C 11.921875 54.847656 11.882812 57.296875 12.050781 59.765625 L 19.5 61.777344 C 19.671875 63.035156 19.910156 64.285156 20.222656 65.546875 C 20.535156 66.804688 20.910156 68.019531 21.34375 69.214844 L 15.691406 74.472656 C 16.699219 76.734375 17.875 78.878906 19.222656 80.886719 L 26.699219 78.90625 C 28.273438 80.945312 30.054688 82.785156 32.011719 84.425781 L 29.75 91.804688 C 31.046875 92.742188 32.398438 93.601562 33.789062 94.390625 C 27.84375 105.179688 25.433594 119.484375 35.460938 128.84375 C 35.765625 128.546875 36.050781 128.28125 36.304688 128.050781 C 36.597656 128.304688 36.9375 128.511719 37.320312 128.652344 C 37.449219 128.699219 37.582031 128.742188 37.710938 128.789062 L 35.660156 129.035156 C 35.589844 128.972656 35.53125 128.90625 35.460938 128.839844 C 31.292969 132.863281 22.71875 142.605469 22.71875 154.667969 L 23.363281 188.847656 C 23.433594 193.566406 22.648438 198.257812 21.023438 202.691406 C 14.234375 221.210938 15.511719 251.019531 15.511719 263.945312 L 16.660156 263.945312 C 16.664062 265.648438 16.652344 267.539062 16.609375 269.5 C 16.125 273.105469 15.496094 275.785156 15.417969 279.210938 L 15.347656 279.210938 C 15.167969 279.210938 15.019531 279.359375 15.019531 279.539062 C 15.019531 279.71875 15.167969 279.867188 15.347656 279.867188 L 15.410156 279.867188 C 15.40625 280.617188 15.429688 281.402344 15.488281 282.242188 L 34.476562 282.242188 C 34.441406 281.1875 34.191406 280.316406 33.8125 279.554688 C 33.8125 279.550781 33.8125 279.546875 33.8125 279.539062 C 33.8125 279.421875 33.75 279.324219 33.65625 279.265625 C 31.746094 275.902344 27.171875 274.828125 27.136719 269.660156 C 27.070312 269.246094 26.949219 268.910156 26.789062 268.640625 C 26.867188 268.773438 26.9375 268.917969 26.992188 269.082031 C 27.023438 267.46875 27.148438 265.675781 27.308594 263.945312 L 28.609375 263.945312 L 42.84375 202.425781 L 44.550781 190.753906 C 44.558594 190.824219 44.5625 190.894531 44.570312 190.964844 L 43.730469 197.304688 C 43.703125 197.519531 43.851562 197.714844 44.066406 197.742188 C 44.082031 197.746094 44.101562 197.746094 44.117188 197.746094 C 44.3125 197.746094 44.476562 197.605469 44.503906 197.410156 L 49.984375 155.90625 L 44.765625 195.433594 C 44.726562 197.902344 44.449219 200.335938 43.917969 202.691406 C 39.746094 221.210938 43.777344 251.019531 45.605469 263.945312 L 46.277344 263.945312 C 46.3125 266.253906 46.167969 268.503906 45.710938 270.503906 C 45.707031 270.511719 44.347656 274.0625 44.441406 279.210938 C 44.261719 279.214844 44.117188 279.359375 44.117188 279.539062 C 44.117188 279.71875 44.265625 279.867188 44.445312 279.867188 L 44.457031 279.867188 C 44.492188 280.628906 44.554688 281.425781 44.660156 282.246094 L 76.753906 282.242188 C 76.753906 282.242188 77.003906 281.113281 76.394531 279.828125 C 76.5 279.773438 76.574219 279.667969 76.574219 279.539062 C 76.574219 279.359375 76.429688 279.210938 76.25 279.210938 L 76.035156 279.210938 C 75.5 278.441406 74.617188 277.671875 73.144531 277.09375 C 69.195312 275.542969 64.140625 274.339844 58.421875 268.144531 C 53.5625 273.152344 46.449219 270.769531 45.769531 270.523438 C 46.449219 270.769531 53.523438 273.136719 58.382812 268.183594 C 58.292969 266.914062 58.269531 265.464844 58.28125 263.945312 L 58.699219 263.945312 L 64.339844 202.425781 L 63.019531 148.976562 L 63.019531 130.996094 C 63.449219 130.84375 63.832031 130.605469 64.152344 130.296875 C 66.183594 131.328125 68.710938 131.140625 70.585938 129.605469 L 93.808594 110.570312 L 87.449219 115.785156 Z M 26.375 268.164062 C 26.316406 268.117188 26.261719 268.066406 26.203125 268.027344 C 26.261719 268.066406 26.316406 268.117188 26.375 268.164062 Z M 26.023438 267.9375 C 25.960938 267.90625 25.898438 267.875 25.832031 267.851562 C 25.898438 267.875 25.960938 267.90625 26.023438 267.9375 Z M 25.632812 267.796875 C 25.566406 267.777344 25.496094 267.761719 25.421875 267.75 C 25.496094 267.761719 25.566406 267.777344 25.632812 267.796875 Z M 25.207031 267.726562 C 25.132812 267.722656 25.054688 267.714844 24.976562 267.714844 C 25.054688 267.714844 25.132812 267.722656 25.207031 267.726562 Z M 24.746094 267.722656 C 24.667969 267.726562 24.585938 267.734375 24.503906 267.742188 C 24.585938 267.734375 24.667969 267.726562 24.746094 267.722656 Z M 24.261719 267.777344 C 24.175781 267.792969 24.089844 267.808594 24.003906 267.828125 C 24.089844 267.808594 24.175781 267.792969 24.261719 267.777344 Z M 23.757812 267.886719 C 23.667969 267.90625 23.578125 267.933594 23.488281 267.960938 C 23.578125 267.933594 23.667969 267.90625 23.757812 267.886719 Z M 23.242188 268.035156 C 23.148438 268.066406 23.054688 268.101562 22.960938 268.132812 C 23.054688 268.101562 23.148438 268.066406 23.242188 268.035156 Z M 22.714844 268.226562 C 22.621094 268.261719 22.523438 268.304688 22.429688 268.34375 C 22.523438 268.304688 22.621094 268.265625 22.714844 268.226562 Z M 22.191406 268.445312 C 22.09375 268.488281 21.996094 268.535156 21.898438 268.582031 C 21.996094 268.535156 22.09375 268.488281 22.191406 268.445312 Z M 21.671875 268.691406 C 21.570312 268.742188 21.46875 268.792969 21.367188 268.84375 C 21.46875 268.792969 21.570312 268.742188 21.671875 268.691406 Z M 21.164062 268.953125 C 21.050781 269.011719 20.941406 269.074219 20.828125 269.136719 C 20.941406 269.074219 21.050781 269.011719 21.164062 268.953125 Z M 20.675781 269.222656 C 20.515625 269.3125 20.359375 269.40625 20.207031 269.496094 C 20.355469 269.40625 20.511719 269.3125 20.675781 269.222656 Z M 26.523438 268.289062 C 26.578125 268.347656 26.625 268.421875 26.675781 268.488281 C 26.625 268.417969 26.578125 268.347656 26.523438 268.289062 Z M 90.761719 82.433594 C 90.433594 82.433594 90.125 82.496094 89.832031 82.585938 C 89.828125 82.449219 89.824219 82.316406 89.824219 82.183594 L 89.957031 82.226562 C 90.183594 81.914062 90.398438 81.59375 90.613281 81.273438 C 90.660156 81.652344 90.707031 82.035156 90.761719 82.433594 Z M 67.753906 92.539062 C 67.710938 92.492188 67.667969 92.449219 67.625 92.40625 C 67.667969 92.449219 67.710938 92.492188 67.753906 92.539062 Z M 44.945312 130.757812 C 44.890625 130.746094 44.835938 130.738281 44.777344 130.726562 C 44.835938 130.738281 44.890625 130.746094 44.945312 130.757812 Z M 43.394531 130.429688 C 43.359375 130.421875 43.320312 130.414062 43.285156 130.40625 C 43.320312 130.414062 43.359375 130.421875 43.394531 130.429688 Z M 41.882812 130.0625 C 41.867188 130.058594 41.847656 130.054688 41.832031 130.050781 C 41.847656 130.054688 41.867188 130.058594 41.882812 130.0625 Z M 46.546875 131.046875 C 46.464844 131.03125 46.382812 131.019531 46.300781 131.007812 C 46.382812 131.019531 46.464844 131.03125 46.546875 131.046875 Z M 53.257812 131.71875 C 53.058594 131.710938 52.859375 131.707031 52.660156 131.699219 C 52.859375 131.707031 53.058594 131.710938 53.257812 131.71875 Z M 51.550781 131.628906 C 51.378906 131.617188 51.207031 131.609375 51.035156 131.597656 C 51.207031 131.609375 51.378906 131.617188 51.550781 131.628906 Z M 49.859375 131.488281 C 49.71875 131.472656 49.574219 131.460938 49.433594 131.445312 C 49.578125 131.460938 49.71875 131.472656 49.859375 131.488281 Z M 48.183594 131.289062 C 48.074219 131.277344 47.964844 131.261719 47.855469 131.246094 C 47.964844 131.261719 48.074219 131.277344 48.183594 131.289062 Z M 54.292969 131.75 C 54.523438 131.753906 54.753906 131.75 54.988281 131.75 C 54.753906 131.75 54.523438 131.753906 54.292969 131.75 Z M 68.417969 93.257812 C 68.457031 93.300781 68.496094 93.34375 68.53125 93.386719 C 68.496094 93.34375 68.457031 93.300781 68.417969 93.257812 Z M 69.242188 94.285156 C 69.417969 94.394531 69.597656 94.507812 69.765625 94.632812 C 69.59375 94.507812 69.417969 94.394531 69.242188 94.285156 Z M 50.597656 38.902344 C 58.675781 36.898438 66.835938 40.527344 70.9375 47.289062 C 70.757812 47.320312 70.585938 47.351562 70.40625 47.386719 C 59.941406 49.292969 53.882812 48.96875 51.789062 60.921875 C 50.59375 67.761719 50.917969 71.183594 49.488281 74.617188 C 43.527344 72.734375 38.660156 67.886719 37.050781 61.378906 C 34.585938 51.429688 40.652344 41.363281 50.597656 38.902344 Z M 35.289062 124.929688 C 35.246094 125.109375 35.226562 125.285156 35.214844 125.460938 C 35.226562 125.285156 35.246094 125.109375 35.289062 124.929688 Z M 35.210938 125.617188 C 35.210938 125.746094 35.21875 125.875 35.234375 126 C 35.21875 125.875 35.210938 125.746094 35.210938 125.617188 Z M 35.367188 126.648438 C 35.316406 126.488281 35.277344 126.324219 35.25 126.15625 C 35.277344 126.324219 35.316406 126.488281 35.367188 126.648438 Z M 35.386719 126.6875 C 35.4375 126.832031 35.5 126.976562 35.570312 127.113281 C 35.5 126.976562 35.4375 126.835938 35.386719 126.6875 Z M 35.957031 127.6875 C 36.0625 127.816406 36.175781 127.9375 36.304688 128.046875 C 36.175781 127.9375 36.0625 127.816406 35.957031 127.6875 Z M 35.65625 127.261719 C 35.71875 127.363281 35.78125 127.460938 35.851562 127.554688 C 35.78125 127.460938 35.714844 127.363281 35.65625 127.261719 Z M 40.433594 129.664062 C 40.425781 129.664062 40.421875 129.664062 40.414062 129.660156 C 40.421875 129.664062 40.425781 129.664062 40.433594 129.664062 Z M 57.585938 131.6875 C 57.882812 131.671875 58.179688 131.644531 58.476562 131.621094 C 58.179688 131.644531 57.882812 131.671875 57.585938 131.6875 Z M 55.9375 131.746094 C 56.199219 131.742188 56.460938 131.726562 56.726562 131.71875 C 56.460938 131.726562 56.199219 131.742188 55.9375 131.746094 Z M 60.882812 131.378906 C 61.429688 131.308594 61.976562 131.226562 62.519531 131.128906 C 61.976562 131.226562 61.429688 131.308594 60.882812 131.378906 Z M 59.238281 131.566406 C 59.585938 131.53125 59.9375 131.488281 60.285156 131.449219 C 59.9375 131.488281 59.585938 131.53125 59.238281 131.566406 Z M 69.371094 115.554688 C 69.535156 114.980469 69.699219 114.410156 69.859375 113.835938 L 70.847656 114.570312 Z M 87.378906 103.5625 C 87.398438 103.398438 87.425781 103.234375 87.449219 103.070312 L 87.449219 103.511719 L 89.183594 102.359375 Z M 87.378906 103.5625 " fill-opacity="1" fill-rule="nonzero"/></g><g clip-path="url(#3681803cdb)"><path fill="#eaeaea" d="M 42.761719 23.195312 L 37.503906 17.546875 C 35.242188 18.550781 33.097656 19.726562 31.089844 21.074219 L 33.074219 28.554688 C 31.035156 30.125 29.191406 31.914062 27.554688 33.867188 L 20.171875 31.601562 C 18.738281 33.582031 17.472656 35.683594 16.390625 37.875 L 21.839844 43.351562 C 20.871094 45.707031 20.15625 48.167969 19.714844 50.707031 L 12.175781 52.445312 C 11.921875 54.847656 11.882812 57.296875 12.050781 59.765625 L 19.5 61.777344 C 19.675781 63.035156 19.910156 64.285156 20.222656 65.546875 C 20.535156 66.804688 20.910156 68.019531 21.34375 69.214844 L 15.691406 74.472656 C 16.699219 76.734375 17.875 78.878906 19.222656 80.886719 L 26.699219 78.90625 C 28.273438 80.945312 30.054688 82.785156 32.011719 84.425781 L 29.75 91.804688 C 31.730469 93.242188 33.828125 94.503906 36.023438 95.585938 L 41.496094 90.140625 C 43.855469 91.105469 46.316406 91.824219 48.855469 92.261719 L 50.59375 99.800781 C 52.996094 100.054688 55.445312 100.09375 57.914062 99.925781 L 59.925781 92.476562 C 61.183594 92.304688 62.4375 92.066406 63.691406 91.753906 C 64.953125 91.441406 66.171875 91.066406 67.363281 90.632812 L 72.621094 96.28125 C 74.882812 95.277344 77.027344 94.101562 79.039062 92.753906 L 77.054688 85.277344 C 79.09375 83.703125 80.933594 81.921875 82.566406 79.964844 L 89.957031 82.226562 C 91.390625 80.246094 92.65625 78.148438 93.738281 75.953125 L 88.289062 70.484375 C 89.25 68.121094 89.972656 65.660156 90.410156 63.121094 L 97.953125 61.386719 C 98.203125 58.980469 98.242188 56.535156 98.078125 54.0625 L 90.625 52.054688 C 90.453125 50.792969 90.214844 49.542969 89.90625 48.289062 C 89.59375 47.023438 89.21875 45.808594 88.78125 44.613281 L 94.433594 39.355469 C 93.425781 37.09375 92.25 34.949219 90.90625 32.941406 L 83.425781 34.925781 C 81.851562 32.886719 80.0625 31.042969 78.113281 29.414062 L 80.375 22.023438 C 78.394531 20.589844 76.296875 19.324219 74.101562 18.242188 L 68.625 23.691406 C 66.269531 22.730469 63.808594 22.007812 61.269531 21.566406 L 59.535156 14.027344 C 57.128906 13.773438 54.683594 13.738281 52.210938 13.902344 L 50.203125 21.351562 C 48.941406 21.527344 47.691406 21.761719 46.429688 22.074219 C 45.171875 22.386719 43.957031 22.761719 42.761719 23.195312 Z M 50.597656 38.902344 C 60.546875 36.433594 70.613281 42.503906 73.078125 52.453125 C 75.542969 62.398438 69.472656 72.464844 59.523438 74.929688 C 49.578125 77.394531 39.511719 71.324219 37.050781 61.382812 C 34.585938 51.429688 40.652344 41.363281 50.597656 38.902344 Z M 211.101562 17.445312 L 207.566406 13.644531 C 206.046875 14.324219 204.601562 15.113281 203.253906 16.019531 L 204.585938 21.046875 C 203.214844 22.105469 201.976562 23.308594 200.875 24.621094 L 195.910156 23.097656 C 194.945312 24.429688 194.097656 25.839844 193.367188 27.316406 L 197.03125 31 C 196.382812 32.582031 195.898438 34.238281 195.605469 35.945312 L 190.535156 37.113281 C 190.363281 38.730469 190.339844 40.375 190.449219 42.035156 L 195.460938 43.386719 C 195.578125 44.234375 195.734375 45.074219 195.945312 45.925781 C 196.15625 46.769531 196.40625 47.585938 196.699219 48.390625 L 192.902344 51.925781 C 193.578125 53.445312 194.367188 54.886719 195.273438 56.238281 L 200.300781 54.902344 C 201.359375 56.277344 202.558594 57.515625 203.875 58.617188 L 202.351562 63.578125 C 203.683594 64.542969 205.097656 65.394531 206.570312 66.121094 L 210.25 62.460938 C 211.839844 63.109375 213.492188 63.589844 215.199219 63.886719 L 216.367188 68.957031 C 217.984375 69.125 219.628906 69.152344 221.289062 69.039062 L 222.644531 64.03125 C 223.492188 63.914062 224.332031 63.753906 225.175781 63.546875 C 226.023438 63.335938 226.84375 63.082031 227.644531 62.789062 L 231.179688 66.589844 C 232.703125 65.914062 234.144531 65.121094 235.496094 64.21875 L 234.160156 59.1875 C 235.53125 58.128906 236.769531 56.933594 237.867188 55.617188 L 242.835938 57.136719 C 243.800781 55.804688 244.652344 54.394531 245.378906 52.921875 L 241.714844 49.242188 C 242.359375 47.652344 242.847656 46 243.140625 44.289062 L 248.210938 43.125 C 248.382812 41.507812 248.40625 39.859375 248.296875 38.199219 L 243.285156 36.847656 C 243.167969 36 243.011719 35.160156 242.800781 34.316406 C 242.589844 33.46875 242.339844 32.648438 242.046875 31.84375 L 245.847656 28.308594 C 245.167969 26.789062 244.378906 25.347656 243.472656 23.996094 L 238.445312 25.332031 C 237.386719 23.960938 236.183594 22.722656 234.875 21.625 L 236.394531 16.65625 C 235.0625 15.691406 233.652344 14.839844 232.175781 14.113281 L 228.492188 17.777344 C 226.910156 17.128906 225.253906 16.644531 223.546875 16.347656 L 222.378906 11.277344 C 220.761719 11.109375 219.117188 11.082031 217.457031 11.195312 L 216.105469 16.203125 C 215.257812 16.320312 214.414062 16.480469 213.566406 16.691406 C 212.722656 16.902344 211.90625 17.152344 211.101562 17.445312 Z M 216.371094 28.007812 C 223.058594 26.347656 229.828125 30.429688 231.488281 37.121094 C 233.144531 43.804688 229.0625 50.574219 222.371094 52.234375 C 215.683594 53.890625 208.917969 49.808594 207.257812 43.121094 C 205.601562 36.429688 209.683594 29.664062 216.371094 28.007812 Z M 130.640625 190.292969 L 124.621094 185.117188 C 122.425781 186.40625 120.367188 187.851562 118.46875 189.457031 L 121.351562 196.871094 C 119.445312 198.714844 117.769531 200.75 116.316406 202.933594 L 108.515625 201.464844 C 107.277344 203.652344 106.222656 205.941406 105.367188 208.304688 L 111.5625 213.28125 C 110.839844 215.796875 110.390625 218.394531 110.234375 221.039062 L 102.726562 223.675781 C 102.742188 226.160156 102.980469 228.664062 103.433594 231.171875 L 111.277344 232.375 C 111.597656 233.640625 111.984375 234.894531 112.449219 236.148438 C 112.910156 237.394531 113.429688 238.59375 114.011719 239.765625 L 108.835938 245.785156 C 110.125 247.980469 111.570312 250.039062 113.175781 251.9375 L 120.59375 249.054688 C 122.433594 250.960938 124.464844 252.640625 126.652344 254.089844 L 125.183594 261.890625 C 127.371094 263.128906 129.660156 264.183594 132.027344 265.039062 L 136.996094 258.847656 C 139.519531 259.566406 142.117188 260.015625 144.761719 260.171875 L 147.394531 267.679688 C 149.882812 267.664062 152.386719 267.425781 154.890625 266.972656 L 156.09375 259.128906 C 157.363281 258.808594 158.613281 258.421875 159.863281 257.960938 C 161.117188 257.496094 162.316406 256.976562 163.488281 256.394531 L 169.507812 261.570312 C 171.703125 260.28125 173.761719 258.835938 175.660156 257.230469 L 172.777344 249.8125 C 174.683594 247.972656 176.359375 245.941406 177.804688 243.757812 L 185.613281 245.222656 C 186.851562 243.035156 187.90625 240.746094 188.761719 238.382812 L 182.570312 233.414062 C 183.28125 230.890625 183.738281 228.292969 183.894531 225.648438 L 191.402344 223.011719 C 191.386719 220.523438 191.148438 218.019531 190.695312 215.515625 L 182.851562 214.3125 C 182.53125 213.042969 182.144531 211.792969 181.683594 210.546875 C 181.21875 209.292969 180.699219 208.089844 180.117188 206.917969 L 185.292969 200.902344 C 184.003906 198.707031 182.558594 196.648438 180.953125 194.75 L 173.535156 197.632812 C 171.695312 195.726562 169.65625 194.050781 167.480469 192.605469 L 168.945312 184.796875 C 166.757812 183.558594 164.46875 182.503906 162.101562 181.648438 L 157.125 187.84375 C 154.613281 187.128906 152.011719 186.671875 149.367188 186.511719 L 146.734375 179.007812 C 144.246094 179.023438 141.742188 179.261719 139.238281 179.714844 L 138.035156 187.558594 C 136.765625 187.878906 135.515625 188.265625 134.261719 188.726562 C 133.015625 189.1875 131.8125 189.710938 130.640625 190.292969 Z M 140.441406 205.445312 C 150.328125 201.789062 161.308594 206.839844 164.964844 216.726562 C 168.617188 226.605469 163.566406 237.585938 153.679688 241.242188 C 143.800781 244.898438 132.820312 239.84375 129.164062 229.964844 C 125.511719 220.078125 130.5625 209.097656 140.441406 205.445312 Z M 44.117188 197.746094 C 44.101562 197.746094 44.085938 197.746094 44.066406 197.742188 C 43.855469 197.714844 43.703125 197.519531 43.730469 197.304688 L 49.226562 155.667969 C 49.238281 155.578125 49.28125 155.496094 49.347656 155.4375 L 55.117188 149.953125 C 55.273438 149.804688 55.519531 149.808594 55.667969 149.964844 C 55.816406 150.121094 55.8125 150.367188 55.65625 150.515625 L 49.984375 155.90625 L 44.503906 197.40625 C 44.476562 197.605469 44.3125 197.746094 44.117188 197.746094 Z M 250.484375 168.074219 C 250.476562 168.074219 250.46875 168.074219 250.460938 168.074219 L 244.445312 167.691406 C 244.230469 167.679688 244.066406 167.496094 244.078125 167.28125 C 244.09375 167.066406 244.273438 166.890625 244.492188 166.914062 L 250.507812 167.292969 C 250.722656 167.308594 250.886719 167.492188 250.875 167.707031 C 250.859375 167.914062 250.6875 168.074219 250.484375 168.074219 Z M 232.042969 161.253906 C 231.289062 163.273438 229.589844 166.199219 226.097656 166.199219 C 225.882812 166.199219 225.710938 166.023438 225.710938 165.808594 C 225.710938 165.59375 225.882812 165.421875 226.097656 165.421875 C 229.042969 165.421875 230.542969 162.964844 231.253906 161.148438 C 231.515625 161.183594 231.78125 161.21875 232.042969 161.253906 Z M 271.558594 165.808594 C 271.558594 166.023438 271.386719 166.199219 271.171875 166.199219 C 267.730469 166.199219 266.035156 163.363281 265.257812 161.347656 C 265.523438 161.3125 265.785156 161.273438 266.050781 161.242188 C 266.773438 163.046875 268.273438 165.421875 271.167969 165.421875 C 271.386719 165.421875 271.558594 165.59375 271.558594 165.808594 Z M 271.558594 165.808594 " fill-opacity="1" fill-rule="nonzero"/></g><path fill="#5fa9e0" d="M 16.609375 269.496094 C 16.609375 269.496094 17.972656 270.851562 20.207031 269.496094 C 22.699219 267.984375 26.582031 266.300781 27.140625 269.660156 C 27.179688 276.09375 34.265625 276.179688 34.476562 282.242188 L 15.492188 282.242188 C 15.132812 277.183594 15.992188 274.101562 16.609375 269.496094 M 45.710938 270.503906 C 45.710938 270.503906 43.78125 275.5 44.660156 282.246094 L 76.753906 282.242188 C 76.753906 282.242188 77.535156 278.816406 73.144531 277.09375 C 69.195312 275.542969 64.136719 274.339844 58.421875 268.144531 C 53.3125 273.40625 45.710938 270.503906 45.710938 270.503906 M 86.792969 107.089844 L 70.066406 94.871094 C 69.976562 94.796875 69.863281 94.707031 69.765625 94.632812 C 69.59375 94.507812 69.417969 94.394531 69.242188 94.285156 C 66.378906 90.332031 61.59375 87.78125 56.289062 87.78125 C 48.890625 87.78125 42.503906 92.96875 40.988281 100.210938 L 35.285156 124.929688 C 34.921875 126.507812 35.800781 128.09375 37.320312 128.652344 C 44.316406 131.21875 53.746094 132.660156 62.519531 131.128906 C 63.644531 130.933594 64.574219 130.140625 64.960938 129.066406 C 66.007812 126.152344 68.179688 119.921875 69.855469 113.835938 L 74.421875 117.21875 Z M 204.210938 198.191406 C 199.480469 198.191406 195.640625 194.355469 195.640625 189.625 C 195.640625 184.890625 199.480469 181.054688 204.210938 181.054688 C 205.371094 181.054688 206.476562 181.292969 207.484375 181.710938 L 207.484375 166.605469 C 207.484375 164.742188 205.972656 163.234375 204.109375 163.234375 L 187.929688 163.234375 C 188.574219 162.03125 188.941406 160.65625 188.941406 159.195312 C 188.941406 154.460938 185.105469 150.625 180.371094 150.625 C 175.640625 150.625 171.804688 154.460938 171.804688 159.195312 C 171.804688 160.65625 172.171875 162.03125 172.816406 163.234375 L 157.292969 163.234375 C 155.429688 163.234375 153.921875 164.742188 153.921875 166.605469 L 153.921875 213.421875 C 153.921875 215.285156 155.429688 216.792969 157.292969 216.792969 L 204.113281 216.792969 C 205.976562 216.792969 207.484375 215.285156 207.484375 213.421875 L 207.484375 197.535156 C 206.476562 197.953125 205.371094 198.191406 204.210938 198.191406 Z M 284.546875 138.796875 C 283.304688 126.511719 282.921875 111.984375 282.707031 109.109375 C 282.414062 105.71875 282.128906 102.324219 281.707031 98.941406 C 281.308594 95.753906 279.273438 93.175781 276.554688 91.925781 C 276.558594 91.902344 276.558594 91.886719 276.558594 91.886719 C 270.257812 89.164062 264.101562 87.367188 258 86.488281 L 258.101562 87.835938 C 258.398438 92.0625 255.359375 95.800781 250.863281 96.105469 C 246.367188 96.410156 242.484375 93.230469 242.191406 89.003906 L 242.214844 86.304688 C 236.304688 87.027344 230.371094 88.640625 224.339844 91.160156 C 224.332031 91.164062 224.324219 91.171875 224.3125 91.175781 C 222.183594 91.914062 220.347656 93.476562 219.328125 95.695312 L 206.921875 117.496094 L 220.261719 136.195312 L 225.609375 124.121094 C 225.976562 128.660156 226.21875 132.527344 226.21875 134.714844 C 226.21875 141.378906 225.207031 153.121094 225.207031 158 C 225.207031 159.296875 226.152344 160.394531 227.429688 160.601562 C 241.210938 162.832031 256.835938 162.898438 270.253906 160.617188 C 271.527344 160.402344 272.460938 159.308594 272.460938 158.019531 C 272.460938 154.539062 271.945312 147.53125 271.648438 141.378906 Z M 85.710938 66.703125 C 84.265625 66.703125 83.003906 67.6875 82.363281 69.132812 C 81.78125 68.863281 81.183594 68.871094 80.605469 69.15625 C 79.964844 67.699219 78.703125 66.703125 77.25 66.703125 C 75.152344 66.703125 73.449219 68.773438 73.449219 71.316406 C 73.449219 73.863281 75.152344 75.933594 77.25 75.933594 C 79.34375 75.933594 81.050781 73.863281 81.050781 71.316406 C 81.050781 70.785156 80.972656 70.277344 80.835938 69.800781 C 81.273438 69.5625 81.695312 69.554688 82.132812 69.777344 C 81.992188 70.257812 81.910156 70.777344 81.910156 71.316406 C 81.910156 73.863281 83.613281 75.933594 85.710938 75.933594 C 87.808594 75.933594 89.511719 73.863281 89.511719 71.316406 C 89.507812 68.773438 87.804688 66.703125 85.710938 66.703125 Z M 77.246094 75.265625 C 75.519531 75.265625 74.113281 73.492188 74.113281 71.316406 C 74.113281 69.140625 75.519531 67.367188 77.246094 67.367188 C 78.976562 67.367188 80.382812 69.140625 80.382812 71.316406 C 80.382812 73.492188 78.976562 75.265625 77.246094 75.265625 Z M 85.710938 75.265625 C 83.980469 75.265625 82.574219 73.492188 82.574219 71.316406 C 82.574219 69.140625 83.980469 67.367188 85.710938 67.367188 C 87.4375 67.367188 88.84375 69.140625 88.84375 71.316406 C 88.84375 73.492188 87.4375 75.265625 85.710938 75.265625 Z M 85.710938 75.265625 " fill-opacity="1" fill-rule="evenodd"/><g clip-path="url(#ea89f75136)"><path fill="#f5c0a2" d="M 108.601562 79.945312 L 107.367188 82.175781 C 106.882812 84.453125 106.257812 87.011719 105.75 89.324219 C 105.160156 92.019531 102.597656 93.28125 99.078125 92.753906 C 95.074219 92.15625 94.050781 90.304688 94.046875 90.300781 C 90.433594 86.171875 90.984375 82.183594 90.273438 79.167969 C 89.960938 77.851562 89.875 77.527344 90.503906 77.273438 C 91.203125 76.992188 92.832031 77.566406 94.039062 80.140625 C 94.402344 80.910156 94.773438 81.632812 95.074219 82.195312 C 95.453125 79.453125 95.753906 77.695312 95.753906 77.695312 L 95.9375 77.710938 C 96.164062 77.320312 96.539062 77.023438 97.019531 76.933594 C 97.816406 76.789062 98.558594 77.253906 98.824219 77.96875 L 99.871094 78.0625 C 99.878906 77.976562 99.882812 77.898438 99.890625 77.839844 C 99.980469 76.925781 100.734375 76.230469 101.644531 76.308594 C 102.519531 76.382812 103.148438 77.136719 103.117188 77.976562 C 103.425781 77.253906 104.179688 76.8125 104.96875 77.007812 C 105.664062 77.175781 106.128906 77.769531 106.183594 78.429688 C 106.546875 77.996094 107.125 77.78125 107.703125 77.957031 C 108.542969 78.210938 108.96875 79.148438 108.601562 79.945312 Z M 265.066406 266.402344 L 254.238281 266.402344 C 254.234375 266.609375 254.222656 266.804688 254.222656 267.019531 C 254.222656 270.792969 254.003906 273.675781 253.820312 277.695312 C 254.765625 278.070312 256 278.019531 257.359375 276.566406 C 260.089844 273.652344 263.027344 272.265625 265.953125 273.238281 C 265.121094 270.976562 264.984375 268.691406 265.066406 266.402344 Z M 16.609375 269.496094 C 16.609375 269.496094 17.972656 270.851562 20.207031 269.496094 C 22.539062 268.082031 26.09375 266.515625 26.992188 269.078125 C 27.023438 267.46875 27.148438 265.675781 27.308594 263.945312 L 16.660156 263.945312 C 16.664062 265.648438 16.652344 267.535156 16.609375 269.496094 C 16.609375 269.5 16.609375 269.5 16.609375 269.5 C 16.609375 269.5 16.609375 269.5 16.609375 269.496094 Z M 45.710938 270.503906 C 45.710938 270.503906 53.273438 273.390625 58.378906 268.183594 C 58.289062 266.914062 58.265625 265.464844 58.28125 263.945312 L 46.277344 263.945312 C 46.3125 266.253906 46.167969 268.503906 45.710938 270.503906 Z M 111.195312 100.070312 C 109.089844 100.070312 109.15625 100.109375 102.566406 100.078125 C 102.566406 100.078125 102.441406 100.078125 102.230469 100.078125 C 101.996094 100.078125 101.757812 100.078125 101.507812 100.074219 L 101.511719 100.085938 C 99.53125 100.121094 95.101562 100.308594 91.324219 101.257812 C 90.621094 101.4375 89.976562 101.769531 89.429688 102.214844 C 89.347656 102.261719 89.261719 102.308594 89.183594 102.359375 L 68.945312 115.839844 L 65.679688 110.230469 L 54.730469 117.277344 L 61.632812 127.875 L 61.882812 128.261719 C 62 128.441406 62.125 128.613281 62.261719 128.777344 C 64.332031 131.304688 68.058594 131.675781 70.585938 129.605469 L 93.8125 110.570312 C 95.265625 110.757812 97.132812 110.914062 98.984375 110.886719 L 100.300781 111.925781 C 100.566406 112.136719 100.90625 112.230469 101.242188 112.191406 L 103.5 111.921875 C 103.921875 111.875 104.28125 111.601562 104.441406 111.207031 L 106.289062 106.753906 C 106.617188 105.960938 106.414062 105.050781 105.777344 104.476562 L 104.417969 103.25 C 105.917969 103.078125 109.058594 102.703125 110.480469 102.4375 C 112.117188 102.125 113.15625 100.070312 111.195312 100.070312 Z M 207.511719 118.320312 L 206.917969 118.917969 L 194.792969 103.183594 L 162.125 103.183594 C 162.074219 103.800781 162.503906 104.371094 163.476562 104.515625 C 163.804688 104.5625 164.210938 104.609375 164.671875 104.652344 C 164.328125 105.34375 164.582031 106.066406 165.585938 106.183594 C 166.019531 106.234375 166.675781 106.304688 167.449219 106.386719 C 167.636719 106.644531 167.921875 106.867188 168.324219 106.988281 C 170.09375 107.519531 173.480469 108.269531 174.78125 108.554688 C 175.128906 108.628906 175.480469 108.679688 175.839844 108.707031 C 175.839844 108.707031 182.644531 109.277344 183.664062 109.328125 L 183.683594 109.332031 L 183.683594 109.328125 C 183.917969 109.339844 184.15625 109.347656 184.394531 109.351562 L 198.882812 135.566406 C 201.34375 139.609375 206.613281 140.890625 210.65625 138.433594 C 211.347656 138.011719 214.253906 135.035156 217.214844 131.921875 Z M 287.734375 178.714844 C 287.734375 178.710938 287.738281 178.703125 287.738281 178.695312 C 287.71875 178.214844 287.601562 176.9375 287.441406 175.34375 C 287.023438 171.144531 286.3125 164.734375 286.3125 164.734375 L 283.4375 139.019531 L 271.652344 141.378906 C 271.757812 143.628906 271.894531 145.992188 272.027344 148.253906 C 274.003906 155.324219 276.335938 163.625 277.058594 166.199219 C 276.921875 166.386719 276.804688 166.574219 276.703125 166.761719 C 275.386719 169.191406 275.171875 170.792969 275.601562 174.429688 C 275.480469 174.378906 275.355469 174.339844 275.21875 174.324219 C 274.347656 174.21875 273.589844 174.917969 273.625 175.796875 L 273.808594 180.382812 C 273.828125 180.808594 274.035156 181.203125 274.375 181.460938 L 277.996094 184.199219 L 278.9375 184.910156 C 279.445312 185.296875 280.148438 185.296875 280.65625 184.910156 L 287.175781 179.992188 C 287.550781 179.710938 287.761719 179.261719 287.742188 178.796875 Z M 233.167969 276.230469 C 233.167969 276.234375 233.167969 276.234375 233.167969 276.234375 C 233.152344 273.21875 233.574219 269.175781 233.917969 266.402344 L 222.363281 266.402344 C 222.105469 269.628906 221.636719 271.804688 220.914062 273.621094 C 224.863281 278.828125 230.179688 277.757812 233.167969 276.230469 Z M 259.765625 67.605469 C 259.019531 67.542969 258.484375 69.160156 258.136719 70.777344 C 257.984375 70.6875 257.8125 70.632812 257.617188 70.628906 C 257.617188 70.628906 256.867188 64.738281 258.3125 58.753906 C 257.039062 60.011719 252.386719 60.425781 249.023438 59.59375 C 244.914062 58.578125 242.527344 57.144531 239.820312 57.46875 C 238.132812 62.699219 238.078125 67.746094 238.078125 67.746094 L 238.199219 74.777344 C 238.253906 77.957031 239.832031 80.828125 242.25 82.578125 L 242.191406 89.003906 C 242.484375 93.230469 246.367188 96.410156 250.863281 96.105469 C 255.359375 95.800781 258.398438 92.0625 258.101562 87.835938 L 257.226562 76.238281 L 257.746094 74.65625 C 257.96875 75.199219 258.492188 75.539062 259.058594 75.394531 C 260.75 74.964844 261.953125 73.582031 262.101562 71.855469 C 262.289062 69.632812 261.246094 67.734375 259.765625 67.605469 Z M 85.710938 75.933594 C 83.613281 75.933594 81.910156 73.863281 81.910156 71.316406 C 81.910156 70.773438 81.988281 70.257812 82.132812 69.773438 C 81.695312 69.550781 81.273438 69.558594 80.832031 69.800781 C 80.96875 70.277344 81.046875 70.785156 81.046875 71.316406 C 81.046875 73.863281 79.34375 75.933594 77.246094 75.933594 C 75.152344 75.933594 73.445312 73.863281 73.445312 71.316406 C 73.445312 68.769531 75.152344 66.699219 77.246094 66.699219 C 78.699219 66.699219 79.964844 67.699219 80.601562 69.15625 C 81.183594 68.871094 81.78125 68.863281 82.363281 69.132812 C 83.003906 67.683594 84.265625 66.699219 85.707031 66.699219 C 86.09375 66.699219 86.464844 66.769531 86.816406 66.902344 C 86.828125 65.652344 86.605469 64.445312 86.191406 63.320312 C 85.8125 63.289062 85.433594 63.25 85.054688 63.195312 C 81.503906 62.691406 75.890625 60.828125 72.152344 58.570312 C 69.910156 62.28125 72.964844 69.742188 68.105469 71.324219 C 68.253906 69.59375 68.050781 67.546875 66.378906 67.136719 C 64.484375 66.671875 63.316406 68.0625 62.792969 70.164062 C 62.382812 71.800781 63.417969 73.539062 65.390625 74.601562 C 66.0625 74.964844 66.855469 74.855469 67.316406 74.421875 L 61.515625 88.640625 C 64.652344 89.699219 67.355469 91.6875 69.234375 94.28125 C 69.414062 94.390625 69.59375 94.503906 69.765625 94.632812 C 69.859375 94.703125 69.976562 94.792969 70.066406 94.871094 L 71.613281 96.140625 L 75.671875 85.890625 C 76.667969 86.054688 77.707031 86.050781 78.75 85.832031 C 82.34375 85.082031 84.914062 82.128906 85.367188 78.6875 L 85.722656 75.929688 C 85.71875 75.929688 85.714844 75.933594 85.710938 75.933594 Z M 85.710938 67.367188 C 83.980469 67.367188 82.574219 69.140625 82.574219 71.316406 C 82.574219 73.492188 83.980469 75.265625 85.710938 75.265625 C 85.742188 75.265625 85.777344 75.257812 85.8125 75.257812 L 86.734375 68.128906 C 86.757812 67.953125 86.773438 67.785156 86.785156 67.613281 C 86.449219 67.457031 86.089844 67.367188 85.710938 67.367188 Z M 77.246094 67.367188 C 75.519531 67.367188 74.113281 69.140625 74.113281 71.316406 C 74.113281 73.492188 75.519531 75.265625 77.246094 75.265625 C 78.976562 75.265625 80.382812 73.492188 80.382812 71.316406 C 80.382812 69.140625 78.976562 67.367188 77.246094 67.367188 Z M 77.246094 67.367188 " fill-opacity="1" fill-rule="evenodd"/></g><path fill="#293237" d="M 33.488281 279.210938 L 15.347656 279.210938 C 15.167969 279.210938 15.019531 279.359375 15.019531 279.539062 C 15.019531 279.71875 15.167969 279.867188 15.347656 279.867188 L 33.488281 279.867188 C 33.667969 279.867188 33.816406 279.71875 33.816406 279.539062 C 33.816406 279.359375 33.667969 279.210938 33.488281 279.210938 Z M 33.488281 279.210938 " fill-opacity="1" fill-rule="nonzero"/><path fill="#293237" d="M 102.699219 107.824219 L 105.246094 109.058594 C 105.289062 109.082031 105.339844 109.09375 105.386719 109.09375 C 105.511719 109.09375 105.625 109.023438 105.683594 108.910156 C 105.761719 108.746094 105.695312 108.550781 105.53125 108.472656 L 102.984375 107.234375 C 102.824219 107.15625 102.625 107.222656 102.546875 107.386719 C 102.46875 107.550781 102.535156 107.746094 102.699219 107.824219 Z M 102.699219 107.824219 " fill-opacity="1" fill-rule="nonzero"/><path fill="#293237" d="M 76.25 279.210938 L 44.445312 279.210938 C 44.265625 279.210938 44.117188 279.359375 44.117188 279.539062 C 44.117188 279.71875 44.265625 279.867188 44.445312 279.867188 L 76.25 279.867188 C 76.429688 279.867188 76.574219 279.71875 76.574219 279.539062 C 76.574219 279.359375 76.429688 279.210938 76.25 279.210938 Z M 76.25 279.210938 " fill-opacity="1" fill-rule="nonzero"/><path fill="#293237" d="M 22.71875 154.664062 L 23.363281 188.84375 C 23.433594 193.566406 22.648438 198.257812 21.023438 202.691406 C 14.238281 221.210938 15.515625 251.019531 15.515625 263.945312 L 28.609375 263.945312 L 42.84375 202.425781 L 44.550781 190.75 C 44.558594 190.820312 44.5625 190.890625 44.570312 190.960938 L 49.226562 155.667969 C 49.238281 155.578125 49.28125 155.496094 49.347656 155.433594 L 55.117188 149.953125 C 55.273438 149.800781 55.519531 149.808594 55.667969 149.964844 C 55.816406 150.121094 55.8125 150.367188 55.65625 150.515625 L 49.984375 155.90625 L 44.765625 195.429688 C 44.730469 197.902344 44.449219 200.332031 43.917969 202.691406 C 39.746094 221.210938 43.78125 251.015625 45.605469 263.945312 L 58.699219 263.945312 L 64.339844 202.425781 L 63.023438 148.976562 L 63.023438 130.992188 C 62.859375 131.050781 62.695312 131.097656 62.519531 131.128906 C 53.90625 132.632812 44.664062 131.265625 37.710938 128.785156 L 35.660156 129.035156 C 35.589844 128.96875 35.53125 128.902344 35.464844 128.839844 C 31.296875 132.863281 22.71875 142.605469 22.71875 154.664062 Z M 22.71875 154.664062 " fill-opacity="1" fill-rule="nonzero"/><path fill="#293237" d="M 66.28125 109.859375 L 59.058594 97.457031 C 58.96875 97.300781 58.765625 97.246094 58.613281 97.339844 C 58.457031 97.429688 58.402344 97.628906 58.492188 97.785156 L 65.71875 110.1875 C 65.777344 110.292969 65.886719 110.351562 66 110.351562 C 66.058594 110.351562 66.113281 110.335938 66.164062 110.308594 C 66.320312 110.214844 66.375 110.015625 66.28125 109.859375 Z M 66.28125 109.859375 " fill-opacity="1" fill-rule="nonzero"/><path fill="#293237" d="M 277.0625 166.539062 C 277.09375 166.539062 277.125 166.535156 277.15625 166.523438 L 278.472656 166.125 C 278.644531 166.070312 278.742188 165.886719 278.6875 165.714844 C 278.636719 165.542969 278.457031 165.445312 278.28125 165.496094 L 276.964844 165.898438 C 276.792969 165.953125 276.695312 166.132812 276.746094 166.308594 C 276.792969 166.449219 276.921875 166.539062 277.0625 166.539062 Z M 277.0625 166.539062 " fill-opacity="1" fill-rule="nonzero"/><path fill="#293237" d="M 271.890625 141.234375 C 271.894531 141.234375 271.898438 141.234375 271.902344 141.234375 C 272.082031 141.226562 272.222656 141.074219 272.214844 140.894531 L 271.714844 129.535156 L 275.140625 104.761719 C 275.164062 104.582031 275.039062 104.417969 274.863281 104.390625 C 274.683594 104.371094 274.515625 104.492188 274.492188 104.671875 L 271.066406 129.507812 L 271.5625 140.921875 C 271.570312 141.097656 271.714844 141.234375 271.890625 141.234375 Z M 271.890625 141.234375 " fill-opacity="1" fill-rule="nonzero"/><path fill="#293237" d="M 239.820312 57.46875 C 242.527344 57.144531 244.914062 58.578125 249.023438 59.59375 C 252.386719 60.425781 257.039062 60.007812 258.3125 58.75 C 256.867188 64.738281 257.617188 70.628906 257.617188 70.628906 L 257.617188 70.625 C 257.8125 70.628906 257.984375 70.6875 258.136719 70.777344 C 258.484375 69.160156 259.019531 67.542969 259.765625 67.605469 C 261.246094 67.730469 262.289062 69.632812 262.101562 71.855469 C 261.957031 73.582031 260.75 74.964844 259.058594 75.394531 C 258.492188 75.535156 257.96875 75.199219 257.75 74.65625 L 257.230469 76.234375 L 257.253906 76.5625 C 258.984375 76.257812 265.796875 74.664062 265.027344 68.472656 C 265.027344 68.472656 270.390625 62.3125 265.066406 57.515625 C 265.125 51.949219 262.125 49.246094 256.53125 48.976562 C 256.53125 48.976562 243.886719 47.902344 241.074219 47.730469 C 237.070312 47.480469 236.90625 50.945312 238.09375 55.632812 C 238.164062 55.902344 238.265625 56.132812 238.382812 56.347656 C 237.664062 57.769531 237.195312 59.34375 237.058594 61.027344 C 236.878906 63.222656 237.265625 65.332031 238.097656 67.210938 C 238.160156 65.785156 238.460938 61.6875 239.820312 57.46875 Z M 239.820312 57.46875 " fill-opacity="1" fill-rule="nonzero"/><path fill="#293237" d="M 225.722656 126.59375 C 225.734375 126.59375 225.742188 126.59375 225.753906 126.589844 C 225.933594 126.574219 226.066406 126.414062 226.050781 126.234375 L 224.066406 104.964844 C 224.050781 104.785156 223.902344 104.65625 223.710938 104.667969 C 223.53125 104.683594 223.398438 104.84375 223.414062 105.027344 L 225.398438 126.296875 C 225.414062 126.464844 225.558594 126.59375 225.722656 126.59375 Z M 225.722656 126.59375 " fill-opacity="1" fill-rule="nonzero"/><path fill="#293237" d="M 226.097656 165.421875 C 229.042969 165.421875 230.542969 162.964844 231.25 161.148438 C 229.964844 160.984375 228.691406 160.804688 227.433594 160.601562 C 226.980469 160.527344 226.574219 160.339844 226.230469 160.074219 L 226.035156 165.433594 C 226.058594 165.429688 226.078125 165.421875 226.097656 165.421875 Z M 226.097656 165.421875 " fill-opacity="1" fill-rule="nonzero"/><path fill="#293237" d="M 103.230469 105.675781 L 105.933594 107.3125 C 105.988281 107.34375 106.046875 107.359375 106.101562 107.359375 C 106.214844 107.359375 106.320312 107.304688 106.382812 107.203125 C 106.476562 107.046875 106.425781 106.847656 106.273438 106.753906 L 103.566406 105.117188 C 103.414062 105.027344 103.214844 105.074219 103.117188 105.226562 C 103.027344 105.382812 103.074219 105.585938 103.230469 105.675781 Z M 103.230469 105.675781 " fill-opacity="1" fill-rule="nonzero"/><g clip-path="url(#f1e90dad97)"><path fill="#293237" d="M 202.246094 287.273438 C 202.152344 287.976562 202.703125 288.597656 203.414062 288.597656 L 233.03125 288.597656 C 233.644531 288.597656 234.15625 288.128906 234.203125 287.515625 C 234.238281 287.011719 234.273438 286.355469 234.292969 285.59375 L 209.941406 285.59375 L 207.914062 282.425781 C 207.203125 282.769531 206.523438 283.085938 205.894531 283.355469 C 203.125 284.554688 202.425781 285.941406 202.246094 287.273438 Z M 202.246094 287.273438 " fill-opacity="1" fill-rule="nonzero"/></g><path fill="#293237" d="M 220.914062 273.617188 C 218.613281 276.492188 212.585938 280.15625 207.914062 282.425781 L 209.941406 285.59375 L 234.292969 285.59375 C 234.351562 283.089844 234.207031 279.429688 233.167969 276.230469 C 230.179688 277.757812 224.863281 278.828125 220.914062 273.617188 Z M 220.914062 273.617188 " fill-opacity="1" fill-rule="nonzero"/><path fill="#293237" d="M 270.902344 239.683594 C 272.296875 229.199219 270.226562 213.792969 270.226562 213.792969 L 271.164062 166.199219 C 267.730469 166.195312 266.03125 163.363281 265.257812 161.347656 C 265.523438 161.3125 265.785156 161.273438 266.050781 161.242188 C 266.773438 163.046875 268.273438 165.421875 271.167969 165.421875 C 271.171875 165.421875 271.175781 165.421875 271.175781 165.421875 L 271.277344 160.203125 C 270.976562 160.40625 270.632812 160.554688 270.253906 160.617188 C 258.28125 162.652344 244.546875 162.8125 231.9375 161.238281 C 231.972656 161.242188 232.007812 161.25 232.042969 161.253906 C 231.285156 163.273438 229.589844 166.199219 226.097656 166.199219 C 226.066406 166.199219 226.035156 166.1875 226.007812 166.179688 L 224.277344 213.285156 L 222.011719 266.402344 L 235.25 266.402344 C 238.128906 256.839844 244.820312 233.261719 241.554688 216.324219 L 248.691406 167.960938 L 244.445312 167.691406 C 244.230469 167.679688 244.066406 167.492188 244.078125 167.277344 C 244.09375 167.0625 244.273438 166.890625 244.492188 166.914062 L 250.507812 167.292969 C 250.722656 167.308594 250.886719 167.492188 250.875 167.707031 C 250.859375 167.910156 250.695312 168.066406 250.496094 168.070312 L 253.5 266.398438 L 266.707031 266.398438 C 267.816406 259.816406 269.898438 247.183594 270.902344 239.683594 Z M 270.902344 239.683594 " fill-opacity="1" fill-rule="nonzero"/><path fill="#293237" d="M 282.609375 171.40625 C 282.4375 171.394531 282.269531 171.523438 282.253906 171.703125 L 281.890625 175.933594 L 279.523438 183.882812 C 279.46875 184.0625 279.332031 184.207031 279.148438 184.265625 C 278.972656 184.320312 278.796875 184.289062 278.65625 184.179688 C 278.125 183.761719 277.820312 183.078125 277.746094 182.144531 C 277.542969 179.546875 277.675781 176.464844 277.675781 176.433594 C 277.683594 176.300781 277.605469 176.175781 277.480469 176.117188 C 277.441406 176.101562 276.449219 175.640625 276.035156 174.222656 C 275.984375 174.046875 275.804688 173.949219 275.628906 174 C 275.457031 174.050781 275.355469 174.230469 275.40625 174.40625 C 275.796875 175.734375 276.628906 176.375 277.015625 176.609375 C 276.988281 177.347656 276.917969 179.949219 277.09375 182.195312 C 277.183594 183.320312 277.570312 184.160156 278.253906 184.691406 C 278.464844 184.859375 278.722656 184.945312 278.980469 184.945312 C 279.105469 184.945312 279.226562 184.925781 279.347656 184.886719 C 279.734375 184.765625 280.035156 184.457031 280.152344 184.070312 L 282.527344 176.089844 C 282.535156 176.066406 282.539062 176.046875 282.539062 176.023438 L 282.90625 171.757812 C 282.921875 171.578125 282.789062 171.421875 282.609375 171.40625 Z M 282.609375 171.40625 " fill-opacity="1" fill-rule="nonzero"/><g clip-path="url(#c49b4ac4f0)"><path fill="#293237" d="M 272.433594 280.917969 C 272.4375 280.917969 272.4375 280.917969 272.4375 280.917969 C 272.367188 280.851562 272.296875 280.789062 272.226562 280.726562 C 271.636719 280.195312 271.03125 279.667969 270.429688 279.128906 C 270.292969 279.003906 270.152344 278.878906 270.015625 278.75 C 269.867188 278.617188 269.722656 278.480469 269.578125 278.339844 C 269.429688 278.203125 269.285156 278.058594 269.140625 277.914062 C 269.007812 277.785156 268.878906 277.652344 268.75 277.519531 C 268.601562 277.367188 268.460938 277.210938 268.320312 277.050781 C 268.203125 276.921875 268.085938 276.792969 267.972656 276.65625 C 267.828125 276.484375 267.691406 276.308594 267.558594 276.128906 C 267.457031 276 267.355469 275.871094 267.261719 275.738281 C 267.121094 275.535156 266.988281 275.320312 266.859375 275.105469 C 266.785156 274.988281 266.707031 274.875 266.640625 274.753906 C 266.453125 274.417969 266.28125 274.070312 266.128906 273.707031 C 266.128906 273.703125 266.125 273.699219 266.125 273.691406 C 266.0625 273.542969 266.011719 273.390625 265.957031 273.238281 C 265.226562 272.996094 264.496094 272.902344 263.769531 272.9375 C 263.402344 272.957031 263.035156 273.011719 262.671875 273.097656 C 260.855469 273.519531 259.066406 274.742188 257.359375 276.566406 C 256.324219 277.671875 255.359375 277.964844 254.542969 277.871094 C 254.289062 277.84375 254.046875 277.78125 253.820312 277.695312 C 253.808594 277.996094 253.796875 278.304688 253.78125 278.617188 C 253.777344 278.734375 253.773438 278.859375 253.769531 278.976562 C 253.761719 279.15625 253.753906 279.332031 253.746094 279.515625 C 253.738281 279.710938 253.734375 279.910156 253.726562 280.109375 C 253.722656 280.226562 253.71875 280.339844 253.714844 280.457031 C 253.707031 280.695312 253.699219 280.941406 253.691406 281.1875 C 253.6875 281.257812 253.6875 281.328125 253.683594 281.398438 C 253.632812 283.148438 253.59375 285.117188 253.585938 287.414062 C 253.582031 288.066406 254.109375 288.597656 254.757812 288.597656 L 275.382812 288.597656 C 276.101562 288.597656 276.664062 287.957031 276.546875 287.246094 C 276.109375 284.578125 274.390625 282.699219 272.433594 280.917969 Z M 272.433594 280.917969 " fill-opacity="1" fill-rule="nonzero"/></g><path fill="#293237" d="M 46.722656 107.03125 C 46.570312 107.128906 46.527344 107.332031 46.628906 107.484375 L 53.515625 118.058594 C 53.578125 118.152344 53.683594 118.207031 53.789062 118.207031 C 53.851562 118.207031 53.910156 118.1875 53.964844 118.152344 C 54.117188 118.054688 54.160156 117.851562 54.0625 117.703125 L 47.175781 107.125 C 47.078125 106.972656 46.875 106.933594 46.722656 107.03125 Z M 46.722656 107.03125 " fill-opacity="1" fill-rule="nonzero"/><path fill="#293237" d="M 138.214844 152.0625 L 122.035156 152.0625 C 122.679688 150.859375 123.046875 149.488281 123.046875 148.027344 C 123.046875 143.292969 119.210938 139.457031 114.476562 139.457031 C 109.742188 139.457031 105.90625 143.292969 105.90625 148.027344 C 105.90625 149.488281 106.273438 150.859375 106.917969 152.0625 L 91.398438 152.0625 C 89.535156 152.0625 88.023438 153.574219 88.023438 155.4375 L 88.023438 202.253906 C 88.023438 204.117188 89.535156 205.625 91.398438 205.625 L 138.214844 205.625 C 140.078125 205.625 141.585938 204.117188 141.585938 202.253906 L 141.585938 155.4375 C 141.589844 153.574219 140.078125 152.0625 138.214844 152.0625 Z M 138.214844 152.0625 " fill-opacity="1" fill-rule="nonzero"/><path fill="#293237" d="M 90.128906 87.5625 C 88.863281 73.875 91.773438 71.675781 92.339844 62.285156 C 92.910156 52.894531 83.21875 44.617188 70.40625 47.386719 C 59.941406 49.292969 53.882812 48.96875 51.789062 60.921875 C 49.699219 72.875 52.265625 74.402344 41.953125 83.765625 C 31.691406 93.082031 21.46875 115.78125 35.460938 128.839844 C 35.765625 128.546875 36.050781 128.28125 36.304688 128.046875 C 35.4375 127.292969 35.015625 126.109375 35.285156 124.929688 L 40.988281 100.210938 C 42.503906 92.96875 48.890625 87.78125 56.289062 87.78125 C 58.144531 87.78125 59.933594 88.097656 61.605469 88.671875 C 61.574219 88.664062 61.546875 88.648438 61.515625 88.640625 L 67.316406 74.425781 C 66.855469 74.855469 66.0625 74.96875 65.390625 74.605469 C 63.417969 73.539062 62.382812 71.800781 62.792969 70.167969 C 63.316406 68.066406 64.484375 66.671875 66.378906 67.136719 C 68.046875 67.546875 68.253906 69.597656 68.105469 71.324219 C 72.964844 69.742188 69.914062 62.28125 72.152344 58.574219 C 75.894531 60.828125 81.503906 62.695312 85.054688 63.199219 C 85.433594 63.253906 85.8125 63.289062 86.191406 63.320312 C 86.738281 64.808594 86.949219 66.445312 86.734375 68.128906 L 85.367188 78.691406 C 84.914062 82.132812 82.34375 85.085938 78.75 85.835938 C 77.707031 86.050781 76.667969 86.058594 75.671875 85.894531 L 71.613281 96.140625 L 84.054688 105.8125 L 87.339844 103.804688 C 87.976562 98.75 90.722656 93.953125 90.128906 87.5625 Z M 90.128906 87.5625 " fill-opacity="1" fill-rule="nonzero"/><path fill="#293237" d="M 205.882812 99.832031 L 205.882812 53.3125 C 205.882812 51.460938 204.382812 49.960938 202.53125 49.960938 L 188.0625 49.960938 C 188.691406 51.144531 189.054688 52.496094 189.054688 53.929688 C 189.054688 58.609375 185.257812 62.40625 180.578125 62.40625 C 175.898438 62.40625 172.105469 58.609375 172.105469 53.929688 C 172.105469 52.496094 172.464844 51.144531 173.09375 49.960938 L 156.011719 49.960938 C 154.160156 49.960938 152.660156 51.460938 152.660156 53.3125 L 152.660156 68.753906 C 153.878906 68.273438 155.234375 68.054688 156.65625 68.210938 C 160.769531 68.65625 164.007812 72.132812 164.152344 76.265625 C 164.324219 81.050781 160.496094 84.980469 155.75 84.980469 C 154.65625 84.980469 153.617188 84.765625 152.660156 84.386719 L 152.660156 99.832031 C 152.660156 101.679688 154.160156 103.183594 156.011719 103.183594 L 202.53125 103.183594 C 204.382812 103.183594 205.882812 101.683594 205.882812 99.832031 Z M 205.882812 99.832031 " fill-opacity="1" fill-rule="nonzero"/><path fill="#293237" d="M 189.210938 109.089844 L 185.019531 109.089844 C 184.839844 109.089844 184.691406 109.234375 184.691406 109.414062 C 184.691406 109.597656 184.839844 109.742188 185.019531 109.742188 L 189.210938 109.742188 C 189.394531 109.742188 189.539062 109.597656 189.539062 109.414062 C 189.539062 109.234375 189.394531 109.089844 189.210938 109.089844 Z M 189.210938 109.089844 " fill-opacity="1" fill-rule="nonzero"/><path fill="#e0e0e0" d="M 144.40625 100.109375 C 142.964844 100.109375 141.605469 100.472656 140.414062 101.109375 L 140.414062 85.761719 C 140.414062 83.921875 138.921875 82.429688 137.082031 82.429688 L 107.238281 82.429688 C 106.761719 83.261719 105.707031 83.175781 105.3125 82.429688 L 104.769531 82.429688 C 104.292969 83.554688 102.898438 83.464844 102.503906 82.429688 L 102.230469 82.429688 C 101.871094 83.695312 100.25 83.703125 99.839844 82.429688 L 99.039062 82.429688 C 98.726562 83.480469 97.257812 83.675781 96.667969 82.429688 L 90.789062 82.429688 C 88.945312 82.429688 87.453125 83.921875 87.453125 85.761719 L 87.453125 103.511719 L 89.183594 102.359375 C 89.265625 102.304688 89.347656 102.261719 89.429688 102.210938 C 89.976562 101.769531 90.621094 101.433594 91.324219 101.257812 C 95.101562 100.304688 99.535156 100.117188 101.515625 100.085938 L 101.507812 100.074219 C 101.757812 100.074219 102 100.078125 102.234375 100.078125 C 102.441406 100.078125 102.566406 100.078125 102.566406 100.078125 C 109.160156 100.109375 109.089844 100.066406 111.195312 100.066406 C 113.160156 100.066406 112.121094 102.121094 110.480469 102.433594 C 109.058594 102.703125 105.921875 103.078125 104.421875 103.25 L 105.777344 104.476562 C 106.414062 105.046875 106.621094 105.960938 106.292969 106.75 L 104.445312 111.207031 C 104.285156 111.597656 103.925781 111.871094 103.503906 111.921875 L 101.242188 112.1875 C 100.90625 112.230469 100.566406 112.132812 100.300781 111.921875 L 98.988281 110.882812 C 97.136719 110.914062 95.265625 110.757812 93.8125 110.570312 L 87.453125 115.78125 L 87.453125 132.054688 C 87.453125 133.894531 88.945312 135.390625 90.789062 135.390625 L 105.527344 135.390625 C 105.132812 134.402344 104.910156 133.332031 104.910156 132.203125 C 104.910156 127.472656 108.746094 123.632812 113.480469 123.632812 C 118.210938 123.632812 122.050781 127.472656 122.050781 132.203125 C 122.050781 133.332031 121.828125 134.40625 121.429688 135.390625 L 137.082031 135.390625 C 138.925781 135.390625 140.417969 133.898438 140.417969 132.054688 L 140.417969 116.054688 C 141.609375 116.691406 142.964844 117.054688 144.410156 117.054688 C 149.089844 117.054688 152.886719 113.261719 152.886719 108.582031 C 152.882812 103.902344 149.089844 100.109375 144.40625 100.109375 Z M 144.40625 100.109375 " fill-opacity="1" fill-rule="nonzero"/><path fill="#5fa9e0" d="M 85.621094 66.605469 C 84.179688 66.605469 82.933594 67.632812 82.316406 69.132812 C 81.632812 68.71875 80.957031 68.933594 80.539062 69.210938 C 79.921875 67.71875 78.675781 66.699219 77.238281 66.699219 C 75.183594 66.699219 73.515625 68.785156 73.515625 71.359375 C 73.515625 73.929688 75.183594 76.019531 77.238281 76.019531 C 79.292969 76.019531 80.960938 73.929688 80.960938 71.359375 C 80.960938 70.832031 80.890625 70.332031 80.761719 69.863281 C 80.855469 69.777344 81.441406 69.292969 82.09375 69.78125 C 81.972656 70.25 81.898438 70.746094 81.898438 71.265625 C 81.898438 73.839844 83.566406 75.925781 85.621094 75.925781 C 87.675781 75.925781 89.34375 73.839844 89.34375 71.265625 C 89.34375 68.691406 87.675781 66.605469 85.621094 66.605469 Z M 77.238281 75.363281 C 75.546875 75.363281 74.171875 73.566406 74.171875 71.355469 C 74.171875 69.148438 75.546875 67.351562 77.238281 67.351562 C 78.929688 67.351562 80.304688 69.148438 80.304688 71.355469 C 80.304688 73.566406 78.929688 75.363281 77.238281 75.363281 Z M 85.621094 75.273438 C 83.929688 75.273438 82.554688 73.476562 82.554688 71.265625 C 82.554688 69.058594 83.929688 67.261719 85.621094 67.261719 C 87.3125 67.261719 88.6875 69.058594 88.6875 71.265625 C 88.6875 73.476562 87.3125 75.273438 85.621094 75.273438 Z M 85.621094 75.273438 " fill-opacity="1" fill-rule="nonzero"/></svg>