<svg xmlns="http://www.w3.org/2000/svg" xmlns:xlink="http://www.w3.org/1999/xlink" width="80" zoomAndPan="magnify" viewBox="0 0 60 60" height="80" preserveAspectRatio="xMidYMid meet" version="1.0"><defs><clipPath id="e4f6789f16"><path d="M 23 0.683594 L 30 0.683594 L 30 7 L 23 7 Z M 23 0.683594 " clip-rule="nonzero"/></clipPath><clipPath id="6bf5e06ddc"><path d="M 52 20 L 58.800781 20 L 58.800781 27 L 52 27 Z M 52 20 " clip-rule="nonzero"/></clipPath><clipPath id="7b9aef9ef6"><path d="M 52 33 L 58.800781 33 L 58.800781 40 L 52 40 Z M 52 33 " clip-rule="nonzero"/></clipPath><clipPath id="bc8d01cc42"><path d="M 23 52 L 30 52 L 30 59.183594 L 23 59.183594 Z M 23 52 " clip-rule="nonzero"/></clipPath><clipPath id="30246578d1"><path d="M 1.050781 20 L 8 20 L 8 27 L 1.050781 27 Z M 1.050781 20 " clip-rule="nonzero"/></clipPath><clipPath id="60115333df"><path d="M 1.050781 33 L 8 33 L 8 40 L 1.050781 40 Z M 1.050781 33 " clip-rule="nonzero"/></clipPath></defs><path fill="#000000" d="M 39.398438 41.191406 L 20.417969 41.191406 C 18.464844 41.191406 16.855469 39.582031 16.855469 37.628906 L 16.855469 22.238281 C 16.855469 20.253906 18.464844 18.640625 20.417969 18.640625 L 39.398438 18.640625 C 41.386719 18.640625 42.996094 20.253906 42.996094 22.238281 L 42.996094 37.628906 C 42.996094 39.582031 41.386719 41.191406 39.398438 41.191406 Z M 21.070312 34.0625 C 21 34.0625 20.929688 34.0625 20.863281 34.03125 C 20.554688 33.925781 20.417969 33.582031 20.554688 33.273438 L 21.789062 30.191406 L 21.789062 30.15625 L 24.015625 24.605469 C 24.015625 24.605469 24.015625 24.570312 24.015625 24.570312 C 24.050781 24.503906 24.082031 24.433594 24.152344 24.398438 C 24.1875 24.332031 24.253906 24.296875 24.324219 24.261719 C 24.324219 24.261719 24.324219 24.261719 24.359375 24.261719 C 24.425781 24.226562 24.460938 24.226562 24.527344 24.226562 C 24.597656 24.226562 24.667969 24.226562 24.734375 24.261719 C 24.734375 24.261719 24.769531 24.261719 24.769531 24.261719 C 24.835938 24.296875 24.90625 24.332031 24.941406 24.398438 C 25.007812 24.433594 25.042969 24.503906 25.078125 24.570312 C 25.078125 24.570312 25.078125 24.605469 25.078125 24.605469 L 27.304688 30.15625 L 27.304688 30.191406 L 28.539062 33.273438 C 28.640625 33.582031 28.503906 33.925781 28.230469 34.03125 C 27.921875 34.132812 27.578125 33.996094 27.476562 33.722656 L 26.378906 30.980469 L 22.714844 30.980469 L 21.617188 33.722656 C 21.515625 33.925781 21.308594 34.0625 21.070312 34.0625 Z M 34.121094 34.097656 L 31.074219 34.097656 C 30.765625 34.097656 30.523438 33.859375 30.523438 33.550781 C 30.523438 33.207031 30.765625 32.96875 31.074219 32.96875 L 33.539062 32.96875 L 33.539062 25.324219 L 31.074219 25.324219 C 30.765625 25.324219 30.523438 25.085938 30.523438 24.777344 C 30.523438 24.433594 30.765625 24.195312 31.074219 24.195312 L 37.136719 24.195312 C 37.445312 24.195312 37.71875 24.433594 37.71875 24.777344 C 37.71875 25.085938 37.445312 25.324219 37.136719 25.324219 L 34.671875 25.324219 L 34.671875 32.96875 L 37.136719 32.96875 C 37.445312 32.96875 37.71875 33.207031 37.71875 33.550781 C 37.71875 33.859375 37.445312 34.097656 37.136719 34.097656 Z M 25.933594 29.8125 L 24.527344 26.351562 L 23.160156 29.8125 Z M 25.933594 29.8125 " fill-opacity="1" fill-rule="evenodd"/><path fill="#000000" d="M 26.894531 19.808594 C 26.585938 19.808594 26.3125 19.53125 26.3125 19.222656 L 26.3125 6.304688 C 26.3125 5.996094 26.585938 5.722656 26.894531 5.722656 C 27.203125 5.722656 27.441406 5.996094 27.441406 6.304688 L 27.441406 19.222656 C 27.441406 19.53125 27.203125 19.808594 26.894531 19.808594 Z M 26.894531 19.808594 " fill-opacity="1" fill-rule="evenodd"/><g clip-path="url(#e4f6789f16)"><path fill="#000000" d="M 26.894531 6.886719 C 25.179688 6.886719 23.773438 5.480469 23.773438 3.769531 C 23.773438 2.089844 25.179688 0.683594 26.894531 0.683594 C 28.605469 0.683594 29.976562 2.089844 29.976562 3.769531 C 29.976562 5.480469 28.605469 6.886719 26.894531 6.886719 Z M 26.894531 6.886719 " fill-opacity="1" fill-rule="evenodd"/></g><path fill="#000000" d="M 32.957031 19.808594 C 32.648438 19.808594 32.375 19.53125 32.375 19.222656 L 32.375 13.878906 C 32.375 13.570312 32.648438 13.296875 32.957031 13.296875 C 33.265625 13.296875 33.539062 13.570312 33.539062 13.878906 L 33.539062 19.222656 C 33.539062 19.53125 33.265625 19.808594 32.957031 19.808594 Z M 32.957031 19.808594 " fill-opacity="1" fill-rule="evenodd"/><path fill="#000000" d="M 32.957031 14.460938 C 31.246094 14.460938 29.875 13.054688 29.875 11.34375 C 29.875 9.664062 31.246094 8.257812 32.957031 8.257812 C 34.671875 8.257812 36.042969 9.664062 36.042969 11.34375 C 36.042969 13.054688 34.671875 14.460938 32.957031 14.460938 Z M 32.957031 14.460938 " fill-opacity="1" fill-rule="evenodd"/><path fill="#000000" d="M 39.023438 19.808594 C 38.714844 19.808594 38.441406 19.53125 38.441406 19.222656 L 38.441406 10.863281 C 38.441406 9.183594 39.808594 7.8125 41.488281 7.8125 L 45.121094 7.8125 C 45.429688 7.8125 45.703125 8.085938 45.703125 8.394531 C 45.703125 8.703125 45.429688 8.976562 45.121094 8.976562 L 41.488281 8.976562 C 40.460938 8.976562 39.605469 9.800781 39.605469 10.863281 L 39.605469 19.222656 C 39.605469 19.53125 39.332031 19.808594 39.023438 19.808594 Z M 39.023438 19.808594 " fill-opacity="1" fill-rule="evenodd"/><path fill="#000000" d="M 47.65625 11.480469 C 45.941406 11.480469 44.539062 10.109375 44.539062 8.394531 C 44.539062 6.679688 45.941406 5.308594 47.65625 5.308594 C 49.371094 5.308594 50.738281 6.679688 50.738281 8.394531 C 50.738281 10.109375 49.371094 11.480469 47.65625 11.480469 Z M 47.65625 11.480469 " fill-opacity="1" fill-rule="evenodd"/><path fill="#000000" d="M 20.828125 19.808594 C 20.484375 19.808594 20.246094 19.53125 20.246094 19.222656 L 20.246094 10.863281 C 20.246094 9.800781 19.390625 8.976562 18.363281 8.976562 L 14.730469 8.976562 C 14.386719 8.976562 14.148438 8.703125 14.148438 8.394531 C 14.148438 8.085938 14.386719 7.8125 14.730469 7.8125 L 18.363281 7.8125 C 20.039062 7.8125 21.375 9.183594 21.375 10.863281 L 21.375 19.222656 C 21.375 19.53125 21.136719 19.808594 20.828125 19.808594 Z M 20.828125 19.808594 " fill-opacity="1" fill-rule="evenodd"/><path fill="#000000" d="M 12.195312 11.480469 C 10.480469 11.480469 9.109375 10.109375 9.109375 8.394531 C 9.109375 6.679688 10.480469 5.308594 12.195312 5.308594 C 13.90625 5.308594 15.277344 6.679688 15.277344 8.394531 C 15.277344 10.109375 13.90625 11.480469 12.195312 11.480469 Z M 12.195312 11.480469 " fill-opacity="1" fill-rule="evenodd"/><path fill="#000000" d="M 53.171875 24.296875 L 42.414062 24.296875 C 42.105469 24.296875 41.832031 24.023438 41.832031 23.714844 C 41.832031 23.40625 42.105469 23.164062 42.414062 23.164062 L 53.171875 23.164062 C 53.480469 23.164062 53.722656 23.40625 53.722656 23.714844 C 53.722656 24.023438 53.480469 24.296875 53.171875 24.296875 Z M 53.171875 24.296875 " fill-opacity="1" fill-rule="evenodd"/><g clip-path="url(#6bf5e06ddc)"><path fill="#000000" d="M 55.675781 26.832031 C 53.996094 26.832031 52.589844 25.425781 52.589844 23.714844 C 52.589844 22 53.996094 20.628906 55.675781 20.628906 C 57.386719 20.628906 58.792969 22 58.792969 23.714844 C 58.792969 25.425781 57.386719 26.832031 55.675781 26.832031 Z M 55.675781 26.832031 " fill-opacity="1" fill-rule="evenodd"/></g><path fill="#000000" d="M 45.636719 30.5 L 42.414062 30.5 C 42.105469 30.5 41.832031 30.257812 41.832031 29.917969 C 41.832031 29.609375 42.105469 29.367188 42.414062 29.367188 L 45.636719 29.367188 C 45.941406 29.367188 46.183594 29.609375 46.183594 29.917969 C 46.183594 30.257812 45.941406 30.5 45.636719 30.5 Z M 45.636719 30.5 " fill-opacity="1" fill-rule="evenodd"/><path fill="#000000" d="M 48.136719 33.035156 C 46.457031 33.035156 45.050781 31.628906 45.050781 29.917969 C 45.050781 28.238281 46.457031 26.832031 48.136719 26.832031 C 49.847656 26.832031 51.253906 28.238281 51.253906 29.917969 C 51.253906 31.628906 49.847656 33.035156 48.136719 33.035156 Z M 48.136719 33.035156 " fill-opacity="1" fill-rule="evenodd"/><path fill="#000000" d="M 53.171875 36.667969 L 42.414062 36.667969 C 42.105469 36.667969 41.832031 36.429688 41.832031 36.085938 C 41.832031 35.777344 42.105469 35.539062 42.414062 35.539062 L 53.171875 35.539062 C 53.480469 35.539062 53.722656 35.777344 53.722656 36.085938 C 53.722656 36.429688 53.480469 36.667969 53.171875 36.667969 Z M 53.171875 36.667969 " fill-opacity="1" fill-rule="evenodd"/><g clip-path="url(#7b9aef9ef6)"><path fill="#000000" d="M 55.675781 39.203125 C 53.996094 39.203125 52.589844 37.800781 52.589844 36.085938 C 52.589844 34.40625 53.996094 33 55.675781 33 C 57.386719 33 58.792969 34.40625 58.792969 36.085938 C 58.792969 37.800781 57.386719 39.203125 55.675781 39.203125 Z M 55.675781 39.203125 " fill-opacity="1" fill-rule="evenodd"/></g><path fill="#000000" d="M 26.894531 54.113281 C 26.585938 54.113281 26.3125 53.871094 26.3125 53.5625 L 26.3125 40.644531 C 26.3125 40.300781 26.585938 40.0625 26.894531 40.0625 C 27.203125 40.0625 27.441406 40.300781 27.441406 40.644531 L 27.441406 53.5625 C 27.441406 53.871094 27.203125 54.113281 26.894531 54.113281 Z M 26.894531 54.113281 " fill-opacity="1" fill-rule="evenodd"/><g clip-path="url(#bc8d01cc42)"><path fill="#000000" d="M 26.894531 59.183594 C 25.179688 59.183594 23.773438 57.777344 23.773438 56.066406 C 23.773438 54.351562 25.179688 52.980469 26.894531 52.980469 C 28.605469 52.980469 29.976562 54.351562 29.976562 56.066406 C 29.976562 57.777344 28.605469 59.183594 26.894531 59.183594 Z M 26.894531 59.183594 " fill-opacity="1" fill-rule="evenodd"/></g><path fill="#000000" d="M 32.957031 46.539062 C 32.648438 46.539062 32.375 46.296875 32.375 45.988281 L 32.375 40.644531 C 32.375 40.300781 32.648438 40.0625 32.957031 40.0625 C 33.265625 40.0625 33.539062 40.300781 33.539062 40.644531 L 33.539062 45.988281 C 33.539062 46.296875 33.265625 46.539062 32.957031 46.539062 Z M 32.957031 46.539062 " fill-opacity="1" fill-rule="evenodd"/><path fill="#000000" d="M 32.957031 51.609375 C 31.246094 51.609375 29.875 50.203125 29.875 48.492188 C 29.875 46.777344 31.246094 45.40625 32.957031 45.40625 C 34.671875 45.40625 36.042969 46.777344 36.042969 48.492188 C 36.042969 50.203125 34.671875 51.609375 32.957031 51.609375 Z M 32.957031 51.609375 " fill-opacity="1" fill-rule="evenodd"/><path fill="#000000" d="M 45.121094 52.019531 L 41.488281 52.019531 C 39.808594 52.019531 38.441406 50.683594 38.441406 49.003906 L 38.441406 40.644531 C 38.441406 40.300781 38.714844 40.0625 39.023438 40.0625 C 39.332031 40.0625 39.605469 40.300781 39.605469 40.644531 L 39.605469 49.003906 C 39.605469 50.035156 40.460938 50.890625 41.488281 50.890625 L 45.121094 50.890625 C 45.429688 50.890625 45.703125 51.128906 45.703125 51.472656 C 45.703125 51.78125 45.429688 52.019531 45.121094 52.019531 Z M 45.121094 52.019531 " fill-opacity="1" fill-rule="evenodd"/><path fill="#000000" d="M 47.65625 54.558594 C 45.941406 54.558594 44.539062 53.152344 44.539062 51.472656 C 44.539062 49.757812 45.941406 48.355469 47.65625 48.355469 C 49.371094 48.355469 50.738281 49.757812 50.738281 51.472656 C 50.738281 53.152344 49.371094 54.558594 47.65625 54.558594 Z M 47.65625 54.558594 " fill-opacity="1" fill-rule="evenodd"/><path fill="#000000" d="M 18.363281 52.019531 L 14.730469 52.019531 C 14.386719 52.019531 14.148438 51.78125 14.148438 51.472656 C 14.148438 51.128906 14.386719 50.890625 14.730469 50.890625 L 18.363281 50.890625 C 19.390625 50.890625 20.246094 50.035156 20.246094 49.003906 L 20.246094 40.644531 C 20.246094 40.300781 20.484375 40.0625 20.828125 40.0625 C 21.136719 40.0625 21.375 40.300781 21.375 40.644531 L 21.375 49.003906 C 21.375 50.683594 20.039062 52.019531 18.363281 52.019531 Z M 18.363281 52.019531 " fill-opacity="1" fill-rule="evenodd"/><path fill="#000000" d="M 12.195312 54.558594 C 10.480469 54.558594 9.109375 53.152344 9.109375 51.472656 C 9.109375 49.757812 10.480469 48.355469 12.195312 48.355469 C 13.90625 48.355469 15.277344 49.757812 15.277344 51.472656 C 15.277344 53.152344 13.90625 54.558594 12.195312 54.558594 Z M 12.195312 54.558594 " fill-opacity="1" fill-rule="evenodd"/><path fill="#000000" d="M 17.4375 24.296875 L 6.679688 24.296875 C 6.371094 24.296875 6.09375 24.054688 6.09375 23.75 C 6.09375 23.40625 6.371094 23.164062 6.679688 23.164062 L 17.4375 23.164062 C 17.746094 23.164062 17.984375 23.40625 17.984375 23.75 C 17.984375 24.054688 17.746094 24.296875 17.4375 24.296875 Z M 17.4375 24.296875 " fill-opacity="1" fill-rule="evenodd"/><g clip-path="url(#30246578d1)"><path fill="#000000" d="M 4.144531 26.832031 C 2.464844 26.832031 1.058594 25.460938 1.058594 23.75 C 1.058594 22.035156 2.464844 20.628906 4.144531 20.628906 C 5.855469 20.628906 7.261719 22.035156 7.261719 23.75 C 7.261719 25.460938 5.855469 26.832031 4.144531 26.832031 Z M 4.144531 26.832031 " fill-opacity="1" fill-rule="evenodd"/></g><path fill="#000000" d="M 17.4375 30.5 L 14.214844 30.5 C 13.90625 30.5 13.632812 30.257812 13.632812 29.949219 C 13.632812 29.644531 13.90625 29.367188 14.214844 29.367188 L 17.4375 29.367188 C 17.746094 29.367188 17.984375 29.644531 17.984375 29.949219 C 17.984375 30.257812 17.746094 30.5 17.4375 30.5 Z M 17.4375 30.5 " fill-opacity="1" fill-rule="evenodd"/><path fill="#000000" d="M 11.679688 33.035156 C 9.96875 33.035156 8.597656 31.664062 8.597656 29.949219 C 8.597656 28.238281 9.96875 26.832031 11.679688 26.832031 C 13.394531 26.832031 14.796875 28.238281 14.796875 29.949219 C 14.796875 31.664062 13.394531 33.035156 11.679688 33.035156 Z M 11.679688 33.035156 " fill-opacity="1" fill-rule="evenodd"/><path fill="#000000" d="M 17.4375 36.703125 L 6.679688 36.703125 C 6.371094 36.703125 6.09375 36.429688 6.09375 36.121094 C 6.09375 35.8125 6.371094 35.539062 6.679688 35.539062 L 17.4375 35.539062 C 17.746094 35.539062 17.984375 35.8125 17.984375 36.121094 C 17.984375 36.429688 17.746094 36.703125 17.4375 36.703125 Z M 17.4375 36.703125 " fill-opacity="1" fill-rule="evenodd"/><g clip-path="url(#60115333df)"><path fill="#000000" d="M 4.144531 39.203125 C 2.464844 39.203125 1.058594 37.832031 1.058594 36.121094 C 1.058594 34.40625 2.464844 33.035156 4.144531 33.035156 C 5.855469 33.035156 7.261719 34.40625 7.261719 36.121094 C 7.261719 37.832031 5.855469 39.203125 4.144531 39.203125 Z M 4.144531 39.203125 " fill-opacity="1" fill-rule="evenodd"/></g></svg>