<svg xmlns="http://www.w3.org/2000/svg" xmlns:xlink="http://www.w3.org/1999/xlink" width="80" zoomAndPan="magnify" viewBox="0 0 60 60" height="80" preserveAspectRatio="xMidYMid meet" version="1.0"><defs><clipPath id="2203011630"><path d="M 3.226562 1.195312 L 55.726562 1.195312 L 55.726562 58.945312 L 3.226562 58.945312 Z M 3.226562 1.195312 " clip-rule="nonzero"/></clipPath></defs><g clip-path="url(#2203011630)"><path fill="#231f20" d="M 47.949219 30.777344 L 48.0625 30.972656 L 48.160156 30.972656 L 48.195312 30.859375 L 48.179688 30.714844 L 48.332031 30.746094 L 48.472656 30.945312 L 48.472656 31.089844 L 48.683594 31.089844 L 48.683594 30.910156 L 48.8125 30.824219 L 48.8125 30.664062 L 48.910156 30.617188 L 48.996094 30.617188 L 49.078125 30.726562 L 49.140625 30.617188 L 49.140625 30.238281 L 49.078125 30.058594 L 49.03125 29.601562 L 49.03125 29.273438 L 48.933594 29.261719 L 48.882812 29.078125 L 49.140625 29.078125 L 49.238281 29.066406 L 49.335938 28.933594 C 49.335938 28.933594 49.398438 28.589844 49.421875 28.542969 C 49.433594 28.492188 49.386719 28.199219 49.421875 28.152344 C 49.453125 28.101562 49.421875 27.808594 49.421875 27.808594 L 49.335938 27.433594 L 49.175781 27.203125 L 49.175781 27.042969 L 49.078125 26.949219 L 49.113281 26.832031 C 49.113281 26.832031 49.128906 26.75 49.175781 26.722656 C 49.226562 26.6875 49.433594 26.949219 49.433594 26.949219 L 49.496094 26.949219 L 49.558594 26.820312 L 49.742188 26.753906 C 49.742188 26.753906 49.851562 26.769531 49.851562 26.839844 C 49.851562 26.902344 49.851562 26.957031 49.851562 26.957031 L 49.964844 26.957031 L 50.09375 26.851562 L 50.253906 26.851562 C 50.253906 26.851562 50.367188 26.894531 50.367188 26.957031 C 50.367188 27.015625 50.476562 27.132812 50.476562 27.132812 L 50.671875 26.957031 L 50.734375 26.59375 C 50.734375 26.59375 50.785156 26.433594 50.820312 26.363281 C 50.855469 26.300781 50.953125 26.15625 50.953125 26.15625 L 50.953125 25.996094 L 51.035156 25.785156 L 51.035156 25.695312 L 51.148438 25.679688 L 51.257812 25.570312 L 51.257812 25.472656 L 51.339844 25.339844 L 51.339844 25.191406 L 51.453125 25.082031 L 51.550781 24.886719 L 51.550781 24.675781 L 51.390625 24.515625 C 51.390625 24.515625 51.257812 24.5 51.277344 24.429688 C 51.292969 24.367188 51.339844 24.269531 51.339844 24.269531 L 51.355469 23.964844 L 51.550781 23.902344 L 51.632812 23.789062 L 51.695312 23.59375 L 51.808594 23.433594 L 51.96875 23.320312 L 51.96875 23.160156 C 51.96875 23.160156 51.96875 23.113281 51.96875 23.0625 C 51.96875 23.015625 52.003906 22.929688 52.050781 22.882812 C 52.101562 22.832031 52.148438 22.769531 52.148438 22.769531 L 52.050781 22.574219 L 52.003906 22.296875 L 51.953125 22.085938 L 52.039062 21.808594 L 52.148438 21.625 C 52.148438 21.625 52.183594 21.589844 52.234375 21.578125 C 52.28125 21.5625 52.441406 21.527344 52.441406 21.527344 L 52.6875 21.222656 C 52.6875 21.222656 52.796875 21.121094 52.847656 21.121094 C 52.894531 21.121094 53.039062 20.960938 53.039062 20.960938 L 53.125 20.816406 L 53.285156 20.800781 C 53.285156 20.800781 53.320312 20.800781 53.382812 20.738281 C 53.445312 20.675781 53.480469 20.542969 53.480469 20.542969 C 53.480469 20.542969 53.613281 20.433594 53.640625 20.382812 C 53.675781 20.335938 53.820312 20.203125 53.871094 20.203125 C 53.917969 20.203125 54.257812 20.117188 54.257812 20.117188 L 54.417969 20.070312 L 54.417969 19.972656 L 54.566406 19.984375 L 54.699219 19.949219 L 54.859375 19.9375 L 54.957031 20.035156 L 54.957031 20.292969 L 55.085938 20.277344 L 55.234375 20.363281 L 55.367188 20.410156 L 55.449219 20.347656 L 55.449219 20.203125 L 55.242188 19.910156 L 55.03125 19.761719 L 54.984375 19.40625 L 55.019531 19.292969 L 55.152344 19.195312 L 55.394531 18.867188 L 55.625 18.757812 L 55.722656 18.757812 L 55.722656 18.464844 C 55.660156 18.332031 55.574219 18.171875 55.574219 18.171875 L 55.367188 17.878906 L 55.15625 17.863281 L 55.023438 17.925781 L 54.863281 17.914062 L 54.753906 17.914062 L 54.574219 17.898438 L 54.488281 17.816406 L 54.378906 17.816406 L 54.183594 17.878906 C 54.183594 17.878906 54.132812 17.828125 54.085938 17.890625 C 54.035156 17.953125 54.050781 18.023438 54.050781 18.023438 L 54 18.121094 L 53.757812 18.023438 L 53.804688 17.816406 L 53.855469 17.652344 L 53.902344 17.507812 L 53.964844 17.375 L 54.0625 17.292969 L 54.125 17.207031 L 54.210938 17.0625 L 53.964844 16.949219 L 53.871094 16.71875 L 53.613281 16.769531 L 53.578125 16.964844 L 53.394531 17.027344 L 53.394531 16.78125 L 53.234375 16.683594 L 53.296875 16.601562 L 53.382812 16.503906 L 53.464844 16.355469 L 53.625 16.355469 L 53.417969 16.222656 L 53.136719 15.894531 L 52.78125 16.125 L 52.34375 16.40625 L 52.28125 16.613281 L 52.183594 16.773438 L 52.183594 16.871094 L 51.828125 16.871094 L 51.648438 16.726562 L 51.515625 16.726562 L 51.222656 16.738281 L 51.015625 16.640625 L 50.804688 16.480469 L 50.695312 16.46875 L 50.582031 16.613281 C 50.582031 16.613281 50.519531 16.664062 50.421875 16.699219 C 50.324219 16.734375 50.226562 16.734375 50.226562 16.734375 L 49.726562 17.367188 L 49.46875 17.597656 L 49.191406 17.792969 L 48.898438 17.84375 C 48.898438 17.84375 48.765625 17.976562 48.6875 17.976562 C 48.613281 17.976562 48.363281 18.011719 48.363281 18.011719 L 48.3125 18.21875 L 48.203125 18.5 C 48.203125 18.5 48.265625 18.546875 48.117188 18.644531 C 47.972656 18.742188 47.628906 18.890625 47.628906 18.890625 L 47.519531 19.035156 L 47.582031 19.183594 L 47.53125 19.425781 L 47.402344 19.523438 L 47.242188 19.65625 L 46.984375 19.707031 L 46.773438 19.753906 L 46.640625 19.789062 L 46.445312 19.902344 C 46.445312 19.902344 46.285156 19.9375 46.238281 19.9375 C 46.1875 19.9375 45.996094 19.949219 45.996094 19.949219 L 45.800781 19.9375 L 45.738281 20.292969 L 45.785156 20.402344 L 45.980469 20.535156 L 46.210938 20.523438 L 46.34375 20.472656 L 46.476562 20.4375 L 46.65625 20.585938 L 46.703125 20.765625 L 46.605469 20.898438 L 46.460938 21.03125 L 46.542969 21.128906 L 46.691406 21.3125 L 46.738281 21.542969 C 46.738281 21.542969 46.800781 21.6875 46.703125 21.6875 C 46.605469 21.6875 46.414062 21.640625 46.414062 21.640625 L 46.347656 21.785156 L 46.1875 21.6875 L 46.125 21.800781 L 45.933594 21.835938 C 45.933594 21.835938 45.835938 21.847656 45.773438 21.871094 C 45.707031 21.890625 45.613281 21.757812 45.613281 21.757812 L 45.515625 21.773438 L 45.382812 21.882812 C 45.382812 21.882812 45.222656 21.882812 45.171875 21.882812 C 45.125 21.882812 44.964844 21.898438 44.964844 21.898438 L 44.523438 21.898438 L 44.148438 21.882812 L 43.90625 21.6875 L 43.480469 21.625 L 43.433594 21.808594 C 43.433594 21.808594 43.347656 21.855469 43.285156 21.871094 C 43.222656 21.882812 43.027344 21.933594 43.027344 21.933594 L 42.785156 22.015625 L 42.589844 22.078125 L 42.429688 22.078125 L 42.199219 22.066406 L 42.019531 22.078125 L 42.101562 21.945312 L 41.921875 21.960938 L 41.835938 21.898438 C 41.835938 21.898438 41.738281 21.765625 41.691406 21.785156 C 41.644531 21.800781 41.546875 21.871094 41.546875 21.871094 L 41.289062 21.917969 L 41.203125 21.785156 L 40.925781 21.652344 L 40.890625 21.554688 L 40.84375 21.410156 L 40.757812 21.261719 L 40.792969 21.101562 L 40.84375 20.96875 L 40.890625 20.886719 L 40.84375 20.753906 L 40.746094 20.621094 L 40.710938 20.472656 C 40.710938 20.472656 40.695312 20.375 40.722656 20.3125 C 40.757812 20.25 40.808594 20.132812 40.808594 20.132812 L 40.820312 19.949219 L 40.855469 19.769531 L 40.820312 19.539062 L 40.738281 19.40625 L 40.457031 19.355469 L 40.347656 19.308594 L 40.203125 19.34375 L 40.019531 19.453125 L 39.886719 19.46875 L 39.824219 19.550781 L 39.46875 19.585938 L 39.46875 19.683594 L 39.554688 19.847656 L 39.554688 20.027344 L 39.519531 20.238281 L 39.308594 20.46875 L 39.296875 20.746094 L 39.28125 21.101562 L 39.316406 21.429688 L 39.449219 21.382812 L 39.464844 21.527344 L 39.527344 21.808594 L 39.707031 22.066406 C 39.707031 22.066406 39.65625 22.066406 39.625 22.175781 C 39.589844 22.289062 39.527344 22.457031 39.527344 22.457031 L 39.34375 22.492188 L 39.261719 22.796875 L 39.003906 22.554688 L 38.953125 22.652344 L 38.664062 22.699219 L 38.453125 22.761719 L 38.195312 22.699219 L 38.085938 22.847656 C 37.988281 22.882812 37.925781 22.785156 37.925781 22.785156 C 37.792969 22.734375 37.667969 22.699219 37.667969 22.699219 L 37.652344 22.46875 L 37.554688 22.457031 L 37.492188 22.539062 L 37.410156 22.589844 L 37.324219 22.652344 L 37.214844 22.664062 L 37.082031 22.679688 L 36.984375 22.777344 L 36.871094 22.597656 L 36.449219 22.386719 L 36.253906 22.335938 L 36.15625 22.371094 L 35.878906 22.335938 L 35.683594 22.351562 L 35.550781 22.433594 L 35.464844 22.484375 C 35.464844 22.484375 35.515625 22.300781 35.222656 22.324219 L 35.273438 21.898438 L 34.992188 21.898438 L 34.714844 22.105469 L 34.484375 22.15625 L 34.351562 21.898438 L 34.121094 21.882812 L 34.023438 21.738281 L 33.746094 21.652344 L 33.453125 21.589844 C 33.453125 21.589844 33.257812 21.640625 33.371094 21.382812 C 33.480469 21.121094 33.355469 20.957031 33.355469 20.957031 L 32.980469 20.90625 L 32.773438 20.824219 L 32.6875 20.691406 L 32.527344 20.628906 L 32.382812 20.566406 L 32.382812 20.726562 L 32.152344 20.726562 L 31.847656 20.824219 L 31.652344 20.738281 L 31.359375 20.675781 L 31.148438 20.675781 L 31.085938 20.789062 L 30.890625 20.984375 L 30.710938 20.703125 L 30.578125 20.691406 L 30.300781 20.605469 L 30.152344 20.558594 L 29.925781 20.542969 L 29.972656 20.347656 L 29.875 20.140625 L 29.679688 20.125 L 29.5 20.171875 L 29.414062 20.160156 L 29.15625 20.027344 L 29.089844 20.011719 L 28.699219 19.753906 L 28.566406 19.71875 C 28.566406 19.71875 28.503906 19.867188 28.453125 19.867188 C 28.40625 19.867188 28.308594 19.71875 28.261719 19.71875 C 28.210938 19.71875 27.90625 19.558594 27.90625 19.558594 L 27.648438 19.328125 L 27.535156 19.21875 L 27.355469 19.203125 L 27.390625 18.855469 L 27.195312 18.769531 L 27.035156 18.707031 L 26.902344 18.625 L 26.671875 18.625 L 26.734375 18.511719 L 26.574219 18.5 L 26.414062 18.339844 L 26.253906 18.191406 L 26.136719 18.15625 L 26.085938 18.367188 L 25.976562 18.253906 L 25.765625 18.21875 L 25.65625 17.988281 L 25.476562 17.890625 L 25.667969 17.535156 L 25.851562 17.207031 L 25.960938 17.046875 L 26.09375 17.03125 L 25.984375 16.675781 C 25.984375 16.675781 25.96875 16.628906 25.984375 16.542969 C 25.996094 16.460938 25.898438 16.480469 25.996094 16.460938 C 26.09375 16.445312 26.179688 16.460938 26.179688 16.410156 C 26.179688 16.363281 26.179688 15.921875 26.179688 15.921875 L 26.371094 15.875 C 26.371094 15.875 26.519531 15.726562 26.519531 15.679688 C 26.519531 15.628906 26.582031 15.53125 26.582031 15.53125 L 26.761719 15.519531 L 26.910156 15.273438 L 27.007812 15.226562 L 27.140625 15.210938 L 27.140625 15.085938 L 26.957031 14.953125 L 26.777344 14.902344 L 26.617188 14.609375 L 26.484375 14.574219 C 26.386719 14.542969 26.179688 14.414062 26.179688 14.414062 L 25.921875 14.402344 L 25.824219 14.289062 L 25.789062 14.046875 C 25.789062 14.046875 25.675781 13.960938 25.640625 13.914062 C 25.605469 13.863281 25.445312 13.828125 25.445312 13.828125 L 25.21875 13.597656 L 25.058594 13.488281 C 25.058594 13.488281 25.007812 13.5 24.945312 13.5 C 24.882812 13.5 24.765625 13.535156 24.765625 13.535156 L 24.582031 13.488281 L 24.5 13.355469 L 24.367188 13.242188 L 24.257812 13.046875 L 24.144531 13.011719 L 24.179688 12.734375 L 24.046875 12.734375 L 23.816406 12.378906 L 23.832031 12.574219 L 23.734375 12.671875 L 23.636719 12.804688 L 23.558594 12.804688 L 23.523438 12.59375 L 23.394531 12.546875 L 23.34375 12.347656 L 23.429688 12.152344 L 23.476562 11.957031 L 23.414062 11.796875 L 23.332031 11.652344 L 23.28125 11.519531 L 23.246094 11.335938 L 23.101562 11.289062 L 23.136719 10.980469 L 22.941406 10.835938 L 23.023438 10.722656 L 23.023438 10.429688 L 22.746094 10.367188 L 22.882812 10.277344 L 23.050781 10.109375 L 23.511719 10.109375 L 23.511719 10.375 L 23.707031 10.640625 L 24.136719 10.375 L 24.5 10.375 L 24.800781 9.976562 L 24.800781 9.648438 L 24.472656 9.382812 L 24.570312 8.984375 C 24.570312 8.984375 24.339844 8.824219 24.242188 8.824219 C 24.144531 8.824219 23.839844 8.617188 23.839844 8.617188 L 23.824219 8.078125 L 24.117188 7.996094 L 24.019531 7.910156 L 23.886719 7.519531 L 23.84375 7.296875 L 24.800781 7.296875 L 24.800781 6.96875 L 24.953125 6.746094 L 24.988281 6.507812 L 25.328125 6.507812 L 25.328125 6.152344 L 25.761719 6.019531 L 25.988281 5.558594 L 25.988281 5.160156 L 26.183594 4.832031 L 26.183594 4.566406 L 26.019531 4.265625 L 25.753906 4.097656 L 25.691406 3.902344 L 24.898438 3.902344 L 24.835938 3.738281 L 24.535156 3.738281 L 24.207031 3.871094 L 23.386719 3.871094 C 23.386719 3.871094 23.253906 3.902344 23.15625 3.933594 C 23.058594 3.96875 22.722656 4.128906 22.722656 4.128906 L 22.328125 4.296875 L 21.894531 4.328125 L 21.5 4.425781 L 21.171875 4.363281 L 21.535156 4.097656 L 21.171875 3.871094 L 20.609375 3.570312 L 20.21875 3.011719 L 19.953125 3.011719 C 19.953125 3.011719 19.953125 2.84375 19.820312 2.746094 C 19.6875 2.648438 19.363281 2.480469 19.363281 2.480469 L 19.0625 2.285156 L 19.0625 2.019531 L 18.867188 1.851562 L 18.636719 1.683594 L 18.371094 1.683594 L 18.371094 1.328125 L 17.941406 1.328125 L 17.710938 1.195312 L 16.589844 1.195312 L 16.226562 1.328125 L 15.699219 1.363281 L 15.699219 1.59375 L 15.53125 1.726562 L 15.136719 1.558594 L 14.738281 1.496094 L 14.277344 1.894531 L 13.953125 2.089844 L 13.820312 2.257812 L 13.457031 2.523438 L 13.457031 3.011719 L 13.820312 3.144531 L 14.382812 3.109375 L 14.515625 3.570312 L 14.816406 3.800781 L 15.441406 3.933594 L 15.378906 4.097656 L 15.246094 4.398438 L 15.777344 4.628906 L 15.875 4.796875 L 15.679688 5.230469 L 15.183594 5.363281 L 15.121094 5.691406 L 14.722656 5.726562 L 14.785156 6.054688 L 14.785156 7.078125 L 14.820312 7.742188 L 14.757812 8.308594 C 14.757812 8.308594 14.5625 8.503906 14.757812 8.636719 C 14.953125 8.769531 15.191406 8.902344 15.191406 8.902344 L 15.585938 9.035156 L 15.914062 9.203125 L 15.949219 9.398438 L 16.25 9.433594 L 16.546875 9.300781 L 16.484375 9.828125 L 16.785156 9.960938 L 17.015625 10.058594 L 17.34375 10.191406 L 17.703125 10.253906 L 17.570312 10.652344 L 17.378906 10.917969 L 16.75 10.917969 L 16.605469 11.105469 C 16.605469 11.105469 16.359375 11.191406 16.226562 11.324219 C 16.097656 11.457031 16.097656 11.457031 16.097656 11.457031 L 16.257812 11.859375 L 16.097656 12.023438 L 16.339844 12.023438 C 16.339844 12.023438 16.125 12.183594 16.125 12.320312 C 16.125 12.453125 16.097656 12.621094 16.097656 12.621094 L 16.3125 12.621094 C 16.3125 12.621094 16.421875 12.824219 16.339844 12.824219 C 16.257812 12.824219 16.257812 12.824219 16.257812 12.824219 L 15.976562 13 L 15.648438 13.214844 L 15.566406 13.410156 L 15.351562 13.605469 C 15.199219 13.738281 15.09375 13.863281 15.09375 13.863281 L 14.878906 13.863281 L 15.03125 13.996094 L 14.878906 13.996094 L 14.941406 14.214844 L 14.878906 14.347656 L 14.878906 14.542969 L 14.640625 14.714844 L 14.507812 14.890625 C 14.507812 14.890625 14.335938 14.847656 14.230469 14.890625 C 14.117188 14.933594 13.992188 14.757812 13.929688 14.890625 C 13.867188 15.023438 13.820312 15.21875 13.820312 15.21875 L 13.5 16.082031 C 13.5 16.082031 13.128906 16.382812 13.089844 16.515625 C 13.046875 16.648438 12.914062 16.773438 12.789062 16.84375 C 12.65625 16.90625 12.203125 17.125 12.203125 17.125 C 12.203125 17.125 11.710938 17.359375 11.6875 17.472656 C 11.667969 17.585938 11.667969 17.585938 11.667969 17.585938 C 11.667969 17.585938 11.625 17.996094 11.554688 17.996094 C 11.488281 17.996094 11.144531 18.234375 11.144531 18.234375 C 11.144531 18.234375 10.972656 18.707031 10.847656 18.777344 C 10.714844 18.839844 10.457031 18.695312 10.113281 18.777344 C 9.765625 18.863281 9.507812 18.890625 9.40625 18.953125 C 9.292969 19.015625 8.890625 19.210938 8.820312 18.953125 C 8.757812 18.695312 8.707031 18.476562 8.707031 18.476562 C 8.707031 18.476562 8.535156 18.148438 8.164062 18.324219 C 7.796875 18.5 7.816406 18.671875 7.796875 18.734375 C 7.773438 18.796875 7.519531 19.085938 7.519531 19.085938 C 7.519531 19.085938 7.433594 19.28125 7.191406 19.453125 C 6.953125 19.628906 6.757812 19.609375 6.648438 19.824219 C 6.535156 20.042969 6.625 20.105469 6.535156 20.238281 C 6.453125 20.371094 6.1875 20.257812 6.402344 20.515625 C 6.621094 20.773438 6.730469 20.773438 6.835938 20.863281 C 6.945312 20.949219 7.070312 21.121094 7.070312 21.121094 C 7.070312 21.121094 7.503906 20.949219 7.566406 21.234375 C 7.628906 21.515625 7.679688 21.472656 7.585938 21.667969 C 7.503906 21.863281 7.390625 21.945312 7.390625 21.945312 L 7.386719 22.34375 L 7.496094 22.476562 L 7.546875 22.636719 C 7.546875 22.636719 7.460938 22.820312 7.644531 22.867188 C 7.824219 22.917969 8.339844 22.917969 8.339844 22.964844 C 8.339844 23.015625 8.226562 23.34375 8.304688 23.46875 C 8.386719 23.601562 8.632812 24.101562 8.679688 24.199219 C 8.730469 24.296875 9.132812 24.949219 9.132812 24.949219 C 9.132812 24.949219 9.265625 25.058594 9.132812 25.058594 C 9 25.058594 8.925781 25.144531 8.925781 25.144531 C 8.925781 25.144531 9.007812 25.242188 8.988281 25.324219 C 8.972656 25.410156 8.902344 25.421875 8.890625 25.472656 C 8.875 25.519531 8.9375 25.535156 8.9375 25.535156 L 9.167969 25.535156 L 8.960938 25.730469 C 8.960938 25.730469 8.730469 25.546875 8.703125 25.730469 C 8.667969 25.910156 8.410156 25.9375 8.410156 25.9375 L 8.101562 25.792969 L 8.101562 25.484375 L 7.648438 25.519531 C 7.648438 25.519531 7.613281 25.605469 7.566406 25.605469 L 7.335938 25.605469 C 7.273438 25.605469 6.980469 25.835938 6.980469 25.835938 L 6.480469 25.835938 L 6.203125 25.507812 L 5.777344 25.492188 L 5.664062 25.542969 L 5.566406 25.507812 L 5.386719 25.507812 L 5.242188 25.519531 C 5.242188 25.519531 5.191406 25.410156 5.082031 25.472656 C 4.96875 25.535156 4.921875 25.339844 4.921875 25.339844 L 4.773438 25.5 L 4.773438 25.253906 L 4.664062 25.253906 L 4.503906 25.9375 L 3.714844 25.9375 L 3.570312 26.050781 L 3.4375 26.050781 L 3.304688 26.308594 L 3.230469 26.441406 L 3.230469 26.621094 C 3.230469 26.621094 3.484375 26.636719 3.554688 26.621094 C 3.617188 26.609375 3.640625 26.378906 3.703125 26.363281 C 3.765625 26.351562 3.960938 26.378906 3.960938 26.378906 L 4.316406 26.183594 L 4.253906 26.34375 L 4.070312 26.476562 L 3.792969 26.628906 L 3.757812 26.804688 L 3.714844 26.945312 C 3.714844 26.945312 3.972656 26.859375 3.8125 27.089844 C 3.8125 27.089844 3.996094 26.957031 3.996094 27.089844 C 3.996094 27.222656 3.910156 27.335938 3.910156 27.335938 L 4.105469 27.222656 L 4.105469 27.566406 L 4.167969 27.726562 C 4.167969 27.726562 4.328125 27.859375 4.425781 27.90625 C 4.523438 27.957031 5.023438 28.234375 5.074219 28.347656 C 5.121094 28.457031 5.269531 28.347656 5.332031 28.429688 C 5.394531 28.515625 5.441406 28.640625 5.441406 28.640625 C 5.441406 28.640625 5.554688 28.492188 5.699219 28.527344 C 5.847656 28.5625 6.089844 28.675781 6.140625 28.640625 C 6.1875 28.605469 6.398438 28.527344 6.398438 28.527344 L 6.578125 28.480469 L 6.660156 28.332031 L 6.96875 28.332031 L 6.898438 28.152344 L 6.980469 28.039062 L 7.128906 28.269531 L 7.261719 27.976562 L 7.421875 28.039062 L 7.550781 28.089844 L 7.488281 28.347656 L 7.308594 28.542969 L 7.308594 28.648438 L 7.101562 28.847656 L 6.953125 28.996094 L 6.941406 29.144531 L 6.328125 29.144531 L 6.4375 29.242188 L 6.179688 29.449219 L 6.082031 29.316406 L 5.921875 29.351562 L 5.921875 29.449219 L 5.777344 29.511719 L 5.695312 29.402344 L 5.464844 29.4375 L 5.464844 29.519531 L 5.304688 29.457031 L 5.058594 29.519531 L 4.914062 29.617188 L 4.878906 29.457031 L 4.988281 29.296875 L 4.734375 29.308594 L 4.648438 29.273438 L 4.78125 29.128906 L 4.636719 29.09375 C 4.636719 29.09375 4.539062 29.175781 4.523438 29.226562 C 4.507812 29.273438 4.378906 29.4375 4.507812 29.617188 C 4.640625 29.796875 5.628906 31.074219 5.628906 31.074219 L 5.875 31.285156 L 5.972656 31.285156 L 6.007812 31.605469 L 6.910156 32.4375 L 7.167969 32.667969 L 7.59375 32.863281 L 8.375 32.863281 L 8.679688 32.730469 L 8.863281 32.730469 L 9.070312 32.582031 L 9.167969 32.519531 L 9.347656 32.472656 C 9.347656 32.472656 9.460938 32.484375 9.507812 32.484375 C 9.558594 32.484375 9.703125 32.386719 9.703125 32.386719 C 9.703125 32.386719 9.933594 32.339844 9.996094 32.289062 C 10.058594 32.242188 10.144531 32.144531 10.144531 32.144531 L 10.238281 32.144531 L 10.273438 31.984375 L 10.519531 31.738281 C 10.519531 31.738281 10.652344 31.605469 10.652344 31.542969 C 10.652344 31.480469 10.652344 31.285156 10.652344 31.285156 L 10.761719 31.203125 L 10.699219 30.875 L 10.664062 30.714844 L 10.859375 30.421875 L 10.714844 30.335938 L 10.796875 30.191406 L 10.945312 30.238281 L 11.039062 30.238281 L 11.136719 30.175781 L 10.992188 30.113281 L 11.125 30.015625 L 11.304688 30.050781 C 11.304688 30.050781 11.582031 30.210938 11.632812 30.210938 C 11.679688 30.210938 11.988281 30.113281 11.988281 30.113281 L 11.808594 30.308594 L 11.597656 30.320312 L 11.320312 30.191406 L 11.136719 30.449219 L 11.25 30.496094 L 11.214844 30.609375 L 11.199219 30.742188 L 11.347656 30.777344 L 11.542969 30.691406 L 11.6875 30.726562 L 11.605469 30.859375 L 11.445312 30.859375 L 11.214844 30.894531 L 11.179688 31.140625 L 11.132812 31.285156 L 11.472656 31.371094 L 11.179688 31.433594 L 11.214844 31.566406 L 11.347656 31.515625 L 11.578125 31.417969 L 11.394531 31.695312 L 11.285156 31.746094 L 11.269531 31.894531 L 11.257812 31.992188 L 11.1875 32.058594 L 11.230469 32.164062 L 11.214844 32.304688 L 11.410156 32.347656 L 11.269531 32.464844 L 11.527344 32.464844 L 11.375 32.554688 L 11.402344 32.722656 L 11.597656 32.722656 L 11.613281 32.800781 L 11.472656 32.863281 L 11.457031 32.953125 L 11.507812 33.03125 L 11.675781 33.03125 L 11.648438 33.148438 L 11.515625 33.148438 L 11.453125 33.511719 L 11.410156 33.628906 L 11.425781 33.695312 L 11.382812 33.769531 L 11.304688 33.832031 L 11.230469 34 L 11.097656 34.0625 L 11.070312 34.167969 L 11.117188 34.246094 L 11.011719 34.292969 L 10.964844 34.425781 L 11.070312 34.636719 L 10.914062 34.558594 L 10.886719 34.636719 C 10.886719 34.636719 11.007812 34.683594 11.007812 34.726562 C 11.007812 34.769531 10.902344 34.859375 10.902344 34.859375 L 10.902344 34.949219 L 10.886719 35.027344 L 10.929688 35.089844 L 10.929688 35.179688 C 10.929688 35.179688 10.914062 35.222656 10.886719 35.269531 C 10.859375 35.320312 10.847656 35.425781 10.847656 35.425781 L 10.949219 35.425781 L 11.027344 35.347656 L 11.132812 35.425781 L 11.011719 35.5 L 10.910156 35.59375 L 10.957031 35.667969 L 10.957031 35.808594 L 11.199219 35.855469 L 10.929688 35.949219 L 10.976562 36.234375 C 10.976562 36.234375 11.082031 36.3125 11.117188 36.3125 C 11.160156 36.3125 11.25 36.3125 11.25 36.3125 L 11.160156 36.492188 L 11.070312 36.6875 L 11.265625 36.765625 L 11.277344 36.839844 C 11.277344 36.839844 11.234375 36.828125 11.1875 36.839844 C 11.136719 36.855469 11.070312 36.839844 11.070312 36.839844 L 10.992188 36.847656 C 10.992188 36.847656 10.976562 36.945312 10.976562 37.007812 C 10.976562 37.070312 11.070312 37.265625 11.070312 37.265625 L 11.109375 37.386719 L 11.007812 37.386719 L 11.035156 37.6875 L 11.125 37.6875 L 11.097656 37.851562 L 11.265625 37.851562 L 11.234375 37.945312 L 11.027344 37.945312 L 11 38.019531 L 11.132812 38.019531 L 11.105469 38.203125 L 11.132812 38.34375 L 11.144531 38.460938 L 11.222656 38.460938 L 11.144531 38.550781 L 11.144531 38.691406 L 11.277344 38.808594 L 11.304688 38.929688 L 11.277344 39.214844 L 11.429688 39.261719 L 11.3125 39.355469 L 11.402344 39.550781 L 11.390625 39.667969 L 11.3125 39.820312 L 11.445312 39.820312 L 11.402344 39.898438 L 11.355469 39.976562 L 11.429688 40.066406 L 11.492188 40.066406 L 11.402344 40.171875 L 11.359375 40.234375 L 11.425781 40.28125 L 11.4375 40.386719 L 11.375 40.386719 L 11.390625 40.492188 L 11.492188 40.492188 L 11.492188 40.570312 L 11.390625 40.570312 L 11.453125 40.699219 L 11.425781 41.320312 L 11.515625 41.414062 L 11.5 41.726562 L 11.578125 41.910156 L 11.550781 42.117188 L 11.640625 42.222656 L 11.535156 42.375 L 11.625 42.46875 L 11.742188 42.558594 L 11.875 42.949219 L 12.070312 43.386719 L 12.175781 43.507812 L 12.265625 43.507812 L 12.132812 43.625 L 12.34375 43.835938 L 12.40625 43.96875 C 12.40625 43.96875 12.433594 44.148438 12.40625 44.191406 C 12.378906 44.234375 12.378906 44.234375 12.378906 44.234375 L 12.601562 44.652344 L 12.703125 44.792969 L 12.566406 44.855469 C 12.566406 44.855469 12.449219 44.894531 12.488281 44.917969 C 12.53125 44.945312 12.640625 45.050781 12.640625 45.050781 L 12.761719 44.988281 L 12.808594 45.121094 L 12.949219 45.121094 L 13.023438 45.328125 L 13.066406 45.496094 L 13.199219 45.585938 L 13.152344 45.691406 L 13.214844 45.871094 L 13.277344 45.976562 L 13.304688 46.117188 L 13.304688 46.234375 L 13.242188 46.367188 C 13.242188 46.367188 13.511719 46.640625 13.554688 46.757812 C 13.597656 46.878906 13.539062 47.109375 13.539062 47.109375 L 13.695312 47.109375 C 13.695312 47.109375 13.734375 47.199219 13.695312 47.199219 C 13.652344 47.199219 13.652344 47.199219 13.652344 47.199219 C 13.652344 47.199219 13.636719 47.332031 13.636719 47.367188 C 13.636719 47.402344 13.664062 47.546875 13.664062 47.546875 L 13.636719 47.667969 L 13.503906 47.757812 L 13.625 47.847656 L 13.761719 48.121094 L 13.734375 48.617188 L 13.8125 48.617188 L 13.855469 48.691406 C 13.855469 48.691406 13.902344 48.929688 13.917969 48.964844 C 13.929688 49.007812 14.070312 49.460938 14.070312 49.460938 L 14.203125 49.699219 L 14.382812 50.464844 L 14.445312 50.703125 L 14.613281 50.765625 L 14.6875 50.855469 L 14.792969 50.855469 L 14.6875 50.976562 L 14.820312 51.113281 L 15.003906 51.246094 L 15.105469 51.367188 L 15.226562 51.441406 L 15.265625 51.679688 C 15.265625 51.679688 15.296875 51.742188 15.296875 51.8125 C 15.296875 51.875 15.296875 51.953125 15.296875 51.953125 L 15.371094 51.953125 L 15.523438 52.160156 L 15.585938 52.160156 L 15.585938 52.476562 L 15.726562 52.476562 L 15.59375 52.59375 L 15.761719 52.945312 L 15.789062 53.203125 L 15.832031 53.371094 L 15.851562 53.453125 L 15.929688 53.347656 L 16.019531 53.453125 L 15.976562 53.542969 L 15.875 53.59375 L 15.875 53.695312 L 15.964844 53.828125 L 16.117188 53.933594 L 16.117188 54.089844 C 16.117188 54.089844 16.160156 54.296875 16.160156 54.347656 C 16.160156 54.394531 16.277344 54.542969 16.277344 54.542969 L 16.320312 54.449219 L 16.421875 54.542969 L 16.394531 54.660156 L 16.289062 54.660156 L 16.320312 54.8125 C 16.320312 54.8125 16.277344 54.933594 16.359375 54.953125 C 16.4375 54.980469 16.554688 55.09375 16.554688 55.09375 L 16.644531 55.226562 L 16.632812 55.40625 L 16.644531 55.5625 L 16.671875 55.625 L 16.714844 55.847656 L 16.820312 55.847656 L 16.882812 55.9375 L 16.777344 55.9375 L 16.582031 55.890625 L 16.535156 55.5625 L 16.507812 55.300781 L 16.445312 55.136719 L 16.457031 55.859375 L 16.519531 56.148438 L 16.652344 56.433594 L 16.703125 56.613281 C 16.703125 56.613281 16.777344 56.664062 16.792969 56.769531 C 16.804688 56.871094 16.820312 56.992188 16.820312 56.992188 L 16.847656 57.109375 L 16.980469 57.019531 L 17.070312 57.019531 L 17.097656 57.109375 L 16.960938 57.199219 L 16.945312 57.304688 L 17.167969 57.304688 L 17.152344 57.398438 L 17.089844 57.5 L 17.285156 57.773438 L 17.496094 57.96875 C 17.496094 57.96875 17.632812 58.101562 17.703125 58.179688 C 17.765625 58.253906 17.925781 58.492188 17.925781 58.492188 C 17.925781 58.492188 17.988281 58.582031 18.09375 58.660156 C 18.199219 58.738281 18.378906 58.828125 18.378906 58.828125 L 18.625 58.902344 C 18.625 58.902344 18.832031 58.863281 18.867188 58.902344 C 18.910156 58.945312 18.972656 58.890625 19.007812 58.902344 C 19.046875 58.917969 19.097656 58.8125 19.097656 58.8125 L 19.292969 58.800781 L 19.429688 58.707031 L 19.523438 58.511719 C 19.523438 58.511719 19.652344 58.511719 19.6875 58.5 C 19.730469 58.484375 19.910156 58.4375 19.910156 58.4375 L 20.078125 58.199219 L 20.078125 58.03125 L 20.121094 57.914062 C 20.121094 57.914062 20.148438 57.808594 20.183594 57.773438 C 20.226562 57.730469 20.246094 57.667969 20.246094 57.667969 L 20.257812 57.199219 L 20.453125 57.082031 L 20.59375 57.097656 L 20.699219 56.964844 C 20.804688 56.886719 21.089844 56.824219 21.136719 56.824219 C 21.1875 56.824219 21.214844 56.808594 21.277344 56.808594 C 21.339844 56.808594 21.351562 56.746094 21.351562 56.746094 L 21.574219 56.671875 L 21.832031 56.644531 L 21.972656 56.644531 L 22.152344 56.671875 L 22.308594 56.671875 L 22.4375 56.71875 L 22.542969 56.71875 L 22.800781 56.871094 L 22.816406 56.742188 L 22.675781 56.699219 L 22.648438 56.566406 L 22.515625 56.578125 L 22.277344 56.578125 L 22.148438 56.550781 L 21.902344 56.445312 L 21.785156 56.28125 L 21.769531 56.070312 L 21.820312 55.9375 L 22.105469 55.546875 L 22.285156 55.300781 L 22.4375 55.148438 L 22.558594 55.070312 C 22.558594 55.070312 22.507812 55.023438 22.507812 54.96875 C 22.507812 54.910156 22.570312 54.773438 22.570312 54.773438 L 22.660156 54.578125 L 22.84375 54.5625 L 23.140625 54.5625 L 23.15625 54.457031 L 23.492188 54.5 L 23.582031 54.5 L 23.699219 54.527344 L 23.683594 54.605469 L 23.777344 54.484375 L 23.683594 52.195312 C 23.683594 52.195312 23.621094 52 23.621094 51.960938 C 23.621094 51.917969 23.621094 51.917969 23.636719 51.828125 C 23.652344 51.734375 23.664062 51.582031 23.664062 51.539062 C 23.664062 51.5 23.816406 51.136719 23.816406 51.136719 L 23.832031 51.03125 L 23.753906 50.941406 L 23.753906 50.847656 L 23.921875 50.941406 L 23.9375 50.730469 L 24.160156 50.550781 L 24.339844 50.324219 L 24.296875 50.128906 L 24.480469 50.011719 L 24.519531 49.894531 L 24.582031 49.683594 L 24.660156 49.53125 L 24.644531 49.113281 L 24.695312 48.886719 L 24.738281 48.664062 L 24.777344 48.492188 L 24.660156 48.21875 L 24.453125 48.066406 L 24.421875 47.792969 L 24.382812 47.609375 L 24.382812 47.386719 L 24.457031 47.386719 L 24.507812 47.542969 L 24.507812 47.660156 L 24.554688 47.792969 L 24.617188 47.972656 L 24.679688 48.128906 L 24.773438 48.128906 C 24.773438 48.128906 24.742188 48.035156 24.730469 47.996094 C 24.714844 47.953125 24.6875 47.757812 24.6875 47.757812 L 24.660156 47.546875 L 24.632812 47.304688 L 24.605469 47.121094 C 24.605469 47.121094 24.578125 46.953125 24.578125 46.898438 C 24.578125 46.84375 24.546875 46.730469 24.546875 46.691406 C 24.546875 46.648438 24.5 46.535156 24.5 46.535156 L 24.605469 46.296875 C 24.605469 46.296875 24.667969 46.269531 24.667969 46.195312 C 24.667969 46.117188 24.652344 45.894531 24.667969 45.859375 C 24.679688 45.816406 24.714844 45.742188 24.667969 45.664062 C 24.617188 45.585938 24.527344 45.246094 24.527344 45.246094 L 24.480469 44.917969 L 24.582031 44.527344 L 24.839844 44.03125 L 24.980469 43.847656 L 25.121094 43.5 L 25.363281 43.5 L 25.53125 43.367188 L 25.863281 43.339844 L 25.90625 43.6875 L 25.96875 43.597656 L 25.996094 43.714844 L 26.058594 43.6875 L 26.085938 43.578125 L 26.121094 43.445312 L 26.179688 43.613281 L 26.269531 43.597656 L 26.269531 43.445312 L 26.492188 43.289062 L 26.625 43.109375 L 26.6875 42.957031 L 26.761719 42.878906 L 26.851562 42.632812 L 26.917969 42.59375 L 27.160156 42.566406 C 27.160156 42.566406 27.222656 42.59375 27.25 42.550781 C 27.277344 42.507812 27.25 42.445312 27.25 42.445312 L 27.402344 42.433594 L 27.597656 42.566406 L 27.675781 42.5 L 27.675781 42.621094 L 27.78125 42.632812 L 27.988281 42.585938 L 28.183594 42.46875 L 28.289062 42.402344 L 28.707031 42.238281 L 28.769531 42.117188 L 28.769531 41.78125 L 28.71875 41.664062 L 28.707031 41.484375 L 28.835938 41.40625 L 28.835938 41.734375 L 28.96875 41.523438 L 28.96875 41.390625 L 28.835938 41.257812 L 29.0625 41.15625 L 29.304688 40.945312 L 29.5 40.8125 L 29.667969 40.632812 L 30.054688 40.449219 C 30.054688 40.449219 30.210938 40.402344 30.300781 40.371094 C 30.390625 40.34375 30.496094 40.308594 30.496094 40.308594 L 30.496094 40.207031 L 30.691406 40.101562 C 30.691406 40.101562 30.738281 39.96875 30.765625 39.933594 C 30.792969 39.890625 31.171875 39.527344 31.457031 39.359375 C 31.742188 39.195312 32.160156 38.894531 32.160156 38.894531 L 32.292969 38.789062 L 32.292969 38.566406 C 32.292969 38.566406 32.710938 38.382812 32.808594 38.292969 C 32.910156 38.203125 32.9375 38.035156 32.9375 38.035156 L 33.058594 37.867188 L 33.160156 37.734375 L 33.398438 37.539062 L 33.449219 37.433594 L 33.449219 37.328125 L 33.65625 37.164062 C 33.65625 37.164062 33.863281 36.785156 33.894531 36.742188 C 33.921875 36.703125 34.28125 36.5 34.28125 36.5 L 34.539062 36.289062 L 34.75 36.183594 L 34.917969 36.109375 L 35.320312 35.953125 L 35.800781 35.757812 C 35.800781 35.757812 36.101562 35.71875 36.21875 35.667969 C 36.335938 35.621094 36.503906 35.5625 36.550781 35.460938 C 36.601562 35.355469 36.59375 35.082031 36.707031 35.082031 C 36.824219 35.082031 36.976562 35.039062 37.019531 35.019531 C 37.0625 34.992188 37.214844 34.886719 37.214844 34.886719 L 37.289062 34.71875 L 37.289062 34.578125 L 37.199219 34.460938 L 37.707031 34.132812 L 37.828125 33.894531 C 37.828125 33.894531 37.738281 33.957031 37.6875 33.972656 C 37.640625 33.988281 37.535156 34.050781 37.535156 34.050781 L 37.367188 34.078125 L 37.394531 33.894531 L 37.605469 33.867188 C 37.605469 33.867188 37.707031 33.867188 37.695312 33.792969 C 37.679688 33.714844 37.578125 33.597656 37.554688 33.546875 C 37.527344 33.496094 37.449219 33.300781 37.449219 33.300781 L 37.527344 32.863281 C 37.527344 32.863281 37.695312 32.546875 37.839844 32.484375 C 37.980469 32.421875 38.257812 32.320312 38.257812 32.320312 L 38.53125 32.347656 L 38.816406 32.117188 L 39.144531 32.023438 L 39.253906 31.824219 L 39.367188 31.738281 C 39.367188 31.738281 39.449219 31.558594 39.511719 31.53125 C 39.574219 31.496094 39.671875 31.417969 39.671875 31.417969 L 39.753906 31.222656 L 39.882812 31.25 L 39.804688 30.914062 L 39.929688 30.824219 L 39.984375 31.160156 L 39.921875 31.402344 L 39.910156 31.566406 L 39.992188 31.664062 L 39.992188 31.773438 L 40.125 31.628906 L 40.234375 31.53125 L 40.417969 31.640625 L 40.5 31.542969 L 40.597656 31.125 L 40.847656 31.144531 C 40.847656 31.144531 40.917969 30.945312 40.980469 30.964844 C 41.042969 30.976562 41.09375 30.847656 41.09375 30.847656 L 41.195312 30.796875 L 41.355469 30.8125 L 41.414062 30.875 L 41.476562 30.976562 L 41.488281 31.019531 C 41.503906 30.929688 41.292969 30.546875 41.371094 30.496094 C 41.371094 30.496094 41.378906 30.308594 41.351562 30.28125 C 41.320312 30.253906 41.203125 30.007812 41.203125 30.007812 L 41.15625 29.804688 L 41.175781 29.652344 L 41.183594 29.570312 L 41.035156 29.34375 L 41.035156 29.164062 L 41.238281 28.90625 L 41.09375 28.847656 L 40.925781 28.855469 L 40.875 28.917969 L 40.792969 28.941406 L 40.765625 28.613281 L 40.828125 28.464844 L 40.863281 28.402344 L 40.828125 28.324219 L 40.632812 28.25 L 40.535156 28.152344 L 40.480469 28.207031 L 40.472656 27.691406 L 40.648438 27.664062 L 40.746094 27.453125 L 40.835938 27.335938 L 40.84375 27.179688 L 40.792969 27.015625 L 40.738281 26.867188 L 40.652344 26.8125 L 40.429688 26.789062 L 40.234375 26.726562 L 40.007812 26.726562 L 40.007812 26.636719 L 39.832031 26.496094 L 39.679688 26.433594 L 39.628906 26.296875 C 39.628906 26.296875 39.609375 26.246094 39.582031 26.246094 C 39.554688 26.246094 39.457031 26.128906 39.457031 26.128906 C 39.457031 26.128906 39.511719 26.042969 39.539062 26.015625 C 39.566406 25.988281 39.628906 25.863281 39.628906 25.863281 L 39.625 25.546875 L 39.910156 25.554688 L 39.914062 25.695312 L 40.070312 25.714844 L 39.992188 25.625 L 40 25.542969 L 40.125 25.5625 L 40.152344 25.4375 L 40.25 25.429688 L 40.242188 25.144531 L 40.8125 25.117188 L 40.8125 25.058594 L 41.066406 25.058594 L 41.128906 24.976562 L 41.132812 24.863281 L 41.15625 24.722656 L 41.058594 24.703125 L 41.035156 24.816406 L 40.980469 24.835938 L 40.871094 24.710938 L 40.722656 24.390625 C 40.722656 24.390625 40.667969 24.691406 40.402344 24.5625 C 40.136719 24.4375 40.152344 24.339844 40.152344 24.339844 L 40.125 24.136719 L 39.859375 23.992188 L 39.566406 23.984375 L 39.574219 23.636719 L 39.671875 23.523438 L 39.664062 23.445312 L 39.65625 23.308594 L 39.910156 23.132812 L 40.019531 23.035156 L 40.042969 22.917969 L 40.074219 22.867188 L 40.230469 22.847656 L 40.207031 22.699219 L 40.070312 22.679688 L 40.007812 22.601562 L 39.945312 22.484375 L 39.9375 22.429688 L 40.027344 22.273438 L 40.167969 22.527344 L 40.292969 22.546875 L 40.292969 22.664062 L 40.457031 22.660156 L 40.4375 22.75 L 40.585938 22.769531 L 40.605469 22.921875 L 40.554688 23 L 40.523438 23.085938 L 40.660156 23.085938 L 40.757812 22.992188 L 40.898438 22.957031 L 40.972656 23.019531 L 41.148438 23.027344 L 41.007812 22.804688 L 40.910156 22.6875 L 40.960938 22.652344 L 41.15625 22.644531 L 41.15625 22.726562 L 41.273438 22.777344 L 41.320312 22.832031 L 41.320312 23.125 C 41.320312 23.125 41.664062 23.441406 41.753906 23.441406 C 41.84375 23.441406 42.101562 23.460938 42.101562 23.460938 L 42.179688 23.335938 L 42.179688 23.25 L 42.261719 23.132812 L 42.359375 23.042969 L 42.539062 23.121094 L 42.574219 23.300781 L 42.546875 23.417969 L 42.667969 23.53125 L 42.632812 23.675781 L 42.601562 23.816406 L 42.660156 23.972656 L 42.632812 24.464844 L 42.652344 24.667969 L 42.777344 24.730469 C 42.777344 24.730469 43.027344 24.738281 43.054688 24.757812 C 43.082031 24.78125 43.238281 24.878906 43.238281 24.878906 L 43.445312 24.914062 L 43.621094 24.960938 L 45.003906 24.988281 C 45.003906 24.988281 45.257812 25.074219 45.296875 24.996094 C 45.347656 24.921875 45.421875 24.921875 45.5 24.960938 C 45.578125 24.996094 45.578125 25.039062 45.679688 25.011719 C 45.792969 24.984375 45.847656 25.046875 45.847656 25.046875 L 46.125 25.039062 L 46.132812 24.976562 L 46.933594 24.96875 L 47.109375 25.121094 L 47.386719 25.144531 L 47.4375 25.199219 L 47.429688 25.367188 L 47.609375 25.386719 L 47.609375 25.597656 L 47.441406 25.589844 L 47.15625 25.445312 L 47.136719 25.625 L 47.234375 25.703125 L 47.261719 25.785156 L 47.226562 25.863281 L 47.117188 25.960938 L 47.09375 26.238281 L 46.871094 26.519531 L 46.796875 26.617188 L 46.683594 26.519531 L 46.601562 26.566406 L 46.578125 26.691406 L 46.53125 26.742188 L 46.53125 27.054688 L 46.347656 26.910156 L 46.273438 26.902344 L 46.246094 26.992188 L 46.160156 27 L 46.078125 26.886719 L 46.050781 26.980469 L 45.996094 27.078125 L 45.898438 27.152344 L 45.660156 27.144531 L 45.570312 27.152344 L 45.617188 27.320312 L 45.367188 27.371094 L 45.421875 27.636719 L 45.285156 27.773438 L 45.261719 27.921875 L 45.402344 27.96875 L 45.375 28.179688 L 45.519531 28.332031 L 45.515625 28.488281 L 45.507812 28.578125 L 45.589844 28.695312 L 45.582031 29.015625 C 45.582031 29.015625 45.695312 29.09375 45.703125 29.066406 C 45.707031 29.039062 45.703125 28.738281 45.703125 28.738281 L 45.75 28.660156 C 45.75 28.660156 45.867188 28.625 45.875 28.695312 C 45.882812 28.773438 45.902344 28.816406 45.902344 28.816406 L 45.925781 29.128906 C 45.925781 29.128906 45.945312 29.175781 46.050781 29.210938 C 46.160156 29.246094 46.246094 29.289062 46.308594 29.207031 C 46.371094 29.121094 46.398438 29.144531 46.40625 29.03125 C 46.410156 28.917969 46.34375 28.75 46.34375 28.730469 C 46.34375 28.703125 46.335938 28.605469 46.335938 28.605469 L 46.445312 28.457031 L 46.542969 28.304688 L 46.640625 28.296875 L 46.605469 28.144531 L 46.570312 28.019531 L 46.578125 27.769531 C 46.578125 27.769531 46.675781 27.746094 46.691406 27.878906 C 46.699219 28.003906 46.800781 27.929688 46.800781 27.929688 L 46.921875 27.832031 L 47.011719 27.800781 L 47.066406 27.851562 L 47.121094 27.789062 L 47.207031 27.671875 L 47.316406 27.691406 L 47.316406 27.867188 L 47.324219 27.984375 L 47.296875 28.269531 L 47.449219 28.382812 L 47.429688 29.011719 L 47.476562 29.148438 L 47.527344 29.324219 L 47.824219 29.980469 L 47.910156 30.230469 Z M 47.949219 30.777344 " fill-opacity="1" fill-rule="nonzero"/></g></svg>