<svg xmlns="http://www.w3.org/2000/svg" xmlns:xlink="http://www.w3.org/1999/xlink" width="80" zoomAndPan="magnify" viewBox="0 0 60 60" height="80" preserveAspectRatio="xMidYMid meet" version="1.0"><defs><clipPath id="f72957eddb"><path d="M 0.878906 6 L 24 6 L 24 50 L 0.878906 50 Z M 0.878906 6 " clip-rule="nonzero"/></clipPath><clipPath id="da8e25dddd"><path d="M 22 52 L 48 52 L 48 58.078125 L 22 58.078125 Z M 22 52 " clip-rule="nonzero"/></clipPath><clipPath id="77bd37fb73"><path d="M 12 1.828125 L 26 1.828125 L 26 13 L 12 13 Z M 12 1.828125 " clip-rule="nonzero"/></clipPath><clipPath id="5b850f160d"><path d="M 23 4 L 59.378906 4 L 59.378906 44 L 23 44 Z M 23 4 " clip-rule="nonzero"/></clipPath></defs><g clip-path="url(#f72957eddb)"><path fill="#231f20" d="M 22.914062 34.109375 C 23.277344 33.773438 23.324219 33.035156 22.894531 32.839844 C 22.335938 32.578125 21.902344 32.046875 21.191406 32.078125 C 20.855469 32.089844 20.507812 31.976562 20.175781 31.875 C 19.847656 31.769531 19.542969 31.585938 19.214844 31.480469 C 18.875 31.371094 18.566406 31.300781 18.453125 30.878906 C 18.210938 29.996094 17.632812 29.515625 16.679688 29.460938 C 16.390625 29.445312 16.105469 29.253906 15.832031 29.113281 C 15.191406 28.78125 14.691406 28.078125 13.8125 28.398438 C 13.726562 28.429688 13.601562 28.335938 13.503906 28.351562 C 12.867188 28.453125 12.296875 27.808594 11.644531 28.246094 C 11.628906 28.109375 11.617188 28.027344 11.609375 27.96875 C 10.867188 28.09375 10.28125 28.429688 9.808594 28.957031 C 9.441406 28.640625 9.140625 28.507812 8.675781 28.644531 C 8.019531 28.835938 7.566406 28.25 7.777344 27.585938 C 7.835938 27.40625 7.886719 27.226562 7.929688 27.089844 C 7.511719 26.355469 6.816406 26.925781 6.296875 26.714844 C 6.40625 26.117188 6.929688 25.683594 6.824219 24.933594 C 6.464844 25.082031 6.011719 25.125 5.902344 25.339844 C 5.675781 25.800781 5.304688 25.871094 4.898438 25.988281 C 4.238281 26.175781 3.601562 25.742188 3.542969 25.070312 C 3.492188 24.492188 3.855469 23.992188 3.835938 23.421875 C 3.832031 23.335938 3.992188 23.238281 4.09375 23.164062 C 4.210938 23.082031 4.351562 23.023438 4.480469 22.949219 C 4.925781 22.695312 5.355469 22.460938 5.90625 22.738281 C 6.074219 22.820312 6.449219 22.792969 6.542969 22.671875 C 6.894531 22.226562 7.292969 22.449219 7.683594 22.5 C 7.828125 22.519531 7.960938 22.613281 8.101562 22.613281 C 8.402344 22.621094 8.507812 22.769531 8.53125 23.046875 C 8.558594 23.441406 8.753906 23.746094 9.082031 23.996094 C 9.367188 23.71875 9.363281 23.421875 9.269531 23.101562 C 9 22.167969 9.039062 22.082031 9.894531 21.609375 C 9.96875 21.570312 10.050781 21.542969 10.117188 21.492188 C 10.363281 21.300781 10.660156 21.136719 10.824219 20.886719 C 10.914062 20.75 10.773438 20.464844 10.753906 20.242188 C 10.742188 20.113281 10.769531 19.984375 10.78125 19.847656 C 10.902344 19.988281 10.988281 20.085938 11.070312 20.183594 C 11.148438 20.101562 11.226562 20.019531 11.304688 19.933594 C 11.511719 19.707031 11.683594 19.363281 11.941406 19.28125 C 12.335938 19.152344 12.652344 19.019531 12.847656 18.636719 C 12.90625 18.519531 13.046875 18.417969 13.175781 18.363281 C 13.574219 18.191406 13.988281 18.042969 14.398438 17.890625 C 14.417969 17.882812 14.453125 17.921875 14.476562 17.933594 C 14.359375 18.054688 14.242188 18.179688 14.066406 18.367188 C 14.304688 18.417969 14.472656 18.511719 14.574219 18.464844 C 14.902344 18.316406 15.207031 18.113281 15.472656 17.960938 C 15.207031 17.746094 14.917969 17.613281 14.800781 17.390625 C 14.675781 17.152344 14.710938 16.828125 14.667969 16.5 C 14.59375 16.492188 14.472656 16.46875 14.347656 16.46875 C 14.210938 16.464844 14.070312 16.484375 13.929688 16.492188 C 13.917969 16.449219 13.90625 16.402344 13.894531 16.359375 C 14.097656 16.292969 14.292969 16.1875 14.5 16.167969 C 14.835938 16.140625 15.183594 16.207031 15.515625 16.167969 C 15.792969 16.132812 16.105469 16.066406 16.3125 15.902344 C 16.527344 15.738281 16.699219 15.683594 16.933594 15.757812 C 17.175781 15.445312 17.214844 15.175781 16.777344 14.976562 C 16.554688 14.875 16.34375 14.738281 16.144531 14.59375 C 15.945312 14.449219 15.59375 14.253906 15.609375 14.113281 C 15.660156 13.6875 15.308594 13.492188 15.191406 13.175781 C 15.109375 12.949219 14.925781 12.761719 14.722656 12.457031 C 14.644531 12.578125 14.589844 12.738281 14.480469 12.816406 C 14.289062 12.949219 14.164062 13.261719 13.839844 13.09375 C 13.558594 12.949219 13.253906 12.84375 13.332031 12.410156 C 13.351562 12.285156 13.214844 12.105469 13.101562 12 C 12.9375 11.847656 12.738281 11.726562 12.539062 11.617188 C 12.417969 11.550781 12.269531 11.488281 12.132812 11.496094 C 11.804688 11.515625 11.476562 11.578125 11.125 11.625 C 11.046875 12.046875 10.964844 12.488281 10.859375 13.039062 C 10.902344 13.105469 11.023438 13.296875 11.152344 13.480469 C 11.363281 13.785156 11.308594 14.09375 11.019531 14.25 C 10.578125 14.484375 10.4375 14.785156 10.515625 15.261719 C 10.535156 15.378906 10.378906 15.625 10.285156 15.632812 C 10.132812 15.648438 9.878906 15.550781 9.828125 15.433594 C 9.695312 15.117188 9.648438 14.765625 9.566406 14.445312 C 9.117188 14.285156 8.636719 14.136719 8.179688 13.945312 C 7.878906 13.820312 7.613281 13.519531 7.3125 13.488281 C 6.679688 13.425781 6.699219 12.675781 6.175781 12.53125 C 6.167969 12.527344 6.183594 12.335938 6.222656 12.25 C 6.429688 11.816406 6.765625 11.507812 7.179688 11.273438 C 7.300781 11.203125 7.464844 11.140625 7.515625 11.027344 C 7.660156 10.730469 7.835938 10.550781 8.199219 10.601562 C 8.28125 10.613281 8.40625 10.484375 8.476562 10.390625 C 8.613281 10.214844 8.730469 10.019531 8.851562 9.828125 C 9.480469 10.074219 9.867188 9.597656 10.316406 9.496094 C 10.226562 9.210938 10.160156 9.019531 10.105469 8.820312 C 10.050781 8.617188 10.015625 8.414062 9.964844 8.191406 C 10.117188 8.132812 10.289062 8.050781 10.46875 8.003906 C 10.878906 7.894531 10.625 8.28125 10.746094 8.417969 C 10.867188 8.28125 10.972656 8.160156 11.070312 8.046875 C 11.53125 8.222656 11.527344 8.226562 11.828125 8.707031 C 11.863281 8.769531 11.945312 8.8125 12.015625 8.839844 C 12.5625 9.050781 12.648438 9.257812 12.429688 9.75 C 12.332031 9.976562 12.289062 10.222656 12.199219 10.535156 C 12.007812 10.546875 11.714844 10.570312 11.417969 10.585938 C 11.152344 10.597656 11.082031 10.804688 11.136719 10.980469 C 11.167969 11.074219 11.394531 11.117188 11.539062 11.160156 C 11.585938 11.175781 11.652344 11.109375 11.710938 11.085938 C 12.089844 10.921875 12.398438 10.980469 12.648438 11.332031 C 12.742188 11.464844 12.890625 11.617188 13.027344 11.636719 C 13.4375 11.695312 13.855469 11.695312 14.390625 11.722656 C 14.148438 11.515625 13.992188 11.386719 13.824219 11.246094 C 14.109375 11.113281 14.53125 11.402344 14.621094 10.925781 C 14.375 10.636719 13.878906 10.550781 14 9.984375 C 14.375 10.21875 14.703125 10.421875 15.039062 10.632812 C 15.257812 10.339844 15.449219 10.082031 15.648438 9.8125 C 15.550781 9.75 15.503906 9.707031 15.449219 9.691406 C 15.042969 9.5625 14.605469 9.496094 14.242188 9.296875 C 14.066406 9.203125 13.660156 9.105469 13.855469 8.65625 C 13.949219 8.441406 13.832031 8.148438 13.527344 8.023438 C 13.203125 7.890625 12.886719 7.730469 12.574219 7.570312 C 12.460938 7.511719 12.320312 7.441406 12.273438 7.339844 C 12.160156 7.078125 12.023438 6.929688 11.703125 6.960938 C 11.550781 6.972656 11.386719 6.859375 11.296875 6.824219 C 11.234375 6.609375 11.210938 6.335938 11.136719 6.324219 C 11.027344 6.304688 10.894531 6.292969 10.773438 6.300781 C 10.175781 6.820312 9.601562 7.363281 9.046875 7.929688 C 9.347656 8.488281 9.230469 8.789062 8.535156 9.390625 C 8.441406 9.167969 8.351562 8.964844 8.261719 8.761719 C 4.382812 13.035156 1.746094 18.4375 0.90625 24.417969 C 0.9375 24.515625 0.976562 24.617188 1.03125 24.714844 C 1.109375 24.855469 1.222656 25.070312 1.171875 25.167969 C 0.9375 25.585938 1.167969 25.785156 1.484375 25.960938 C 1.773438 26.125 2.054688 26.328125 2.367188 26.429688 C 2.894531 26.605469 3.398438 26.898438 4.019531 26.714844 C 4.359375 26.609375 4.699219 26.726562 5.003906 27 C 5.242188 27.210938 5.59375 27.378906 5.90625 27.410156 C 6.582031 27.484375 6.914062 27.839844 7 28.40625 C 7.5625 28.679688 8.078125 28.925781 8.582031 29.167969 C 9.023438 28.664062 9.054688 28.667969 9.386719 29.183594 C 9.679688 29.644531 9.582031 30.140625 9.175781 30.53125 C 8.707031 30.976562 8.214844 31.425781 8.332031 32.179688 C 8.34375 32.246094 8.285156 32.328125 8.246094 32.398438 C 8.011719 32.847656 8.03125 32.933594 8.4375 33.277344 C 8.839844 33.613281 9.203125 33.941406 9.40625 34.480469 C 9.710938 35.289062 10.191406 35.980469 11.148438 36.234375 C 11.695312 36.382812 11.808594 36.707031 11.742188 37.34375 C 11.648438 38.28125 11.5 39.210938 11.449219 40.148438 C 11.425781 40.625 11.378906 41.070312 11.171875 41.503906 C 10.835938 42.207031 11.089844 42.980469 10.960938 43.710938 C 10.921875 43.929688 10.929688 44.160156 10.933594 44.386719 C 10.933594 44.414062 11.023438 44.445312 11.101562 44.492188 C 11.148438 44.320312 11.183594 44.183594 11.234375 43.996094 C 11.492188 44.753906 10.894531 45.175781 10.683594 45.6875 C 10.847656 45.835938 10.976562 45.949219 11.105469 46.0625 C 10.96875 46.199219 10.835938 46.335938 10.683594 46.484375 C 10.835938 46.882812 10.835938 47.367188 11.265625 47.640625 C 11.238281 47.65625 11.144531 47.714844 10.949219 47.847656 C 11.539062 48.226562 12.066406 48.558594 12.585938 48.90625 C 12.957031 49.152344 13.328125 49.089844 13.707031 48.945312 C 13.84375 48.894531 13.972656 48.839844 14.105469 48.785156 C 13.953125 48.714844 13.777344 48.675781 13.652344 48.574219 C 13.402344 48.367188 13.046875 48.15625 12.980469 47.886719 C 12.910156 47.585938 12.761719 47.132812 13.257812 46.886719 C 13.433594 46.800781 13.492188 46.511719 13.640625 46.347656 C 13.832031 46.132812 13.789062 45.976562 13.578125 45.832031 C 13.429688 45.730469 13.277344 45.644531 13.066406 45.507812 C 13.496094 45.144531 13.914062 44.882812 13.980469 44.351562 C 13.992188 44.269531 14.191406 44.207031 14.277344 44.152344 C 14.132812 44.011719 13.976562 43.859375 13.71875 43.613281 C 14.109375 43.613281 14.390625 43.695312 14.53125 43.589844 C 14.695312 43.46875 14.726562 43.179688 14.835938 42.914062 C 14.933594 42.890625 15.09375 42.839844 15.261719 42.808594 C 15.425781 42.777344 15.601562 42.78125 15.765625 42.742188 C 16.273438 42.617188 16.40625 42.300781 16.164062 41.824219 C 16.105469 41.699219 16.050781 41.574219 15.984375 41.4375 C 17.027344 41.683594 17.09375 41.644531 17.726562 40.65625 C 17.832031 40.492188 18.019531 40.355469 18.199219 40.265625 C 18.574219 40.074219 18.921875 39.527344 18.855469 39.117188 C 18.8125 38.855469 18.867188 38.660156 19.113281 38.539062 C 19.507812 38.339844 19.886719 38.0625 20.304688 37.972656 C 20.820312 37.867188 21.089844 37.640625 21.378906 37.183594 C 21.742188 36.617188 21.917969 36.070312 21.898438 35.425781 C 21.894531 35.285156 21.898438 35.101562 21.980469 35.011719 C 22.273438 34.695312 22.59375 34.402344 22.914062 34.109375 Z M 22.914062 34.109375 " fill-opacity="1" fill-rule="nonzero"/></g><g clip-path="url(#da8e25dddd)"><path fill="#231f20" d="M 46.632812 52.566406 C 45.957031 52.726562 45.339844 53.085938 44.851562 53.558594 C 44.5625 53.839844 44.292969 54.03125 43.929688 54.144531 C 43.734375 53.925781 43.671875 53.5625 43.265625 53.640625 C 43.203125 53.65625 43.066406 53.542969 43.046875 53.464844 C 42.960938 53.128906 42.6875 53.140625 42.441406 53.128906 C 41.898438 53.101562 41.355469 53.101562 40.816406 53.074219 C 40.496094 53.0625 40.199219 53.039062 40.066406 52.628906 C 39.964844 52.316406 39.441406 52.183594 39.140625 52.371094 C 38.816406 52.574219 38.527344 52.832031 38.167969 53.113281 C 37.371094 53.015625 36.691406 53.230469 36.183594 54.261719 C 35.40625 54.03125 35.261719 53.960938 35.007812 53.710938 C 33.988281 54.441406 32.921875 54.808594 31.675781 54.257812 C 31.449219 54.15625 31.003906 54.152344 30.882812 54.296875 C 30.628906 54.582031 30.371094 54.566406 30.089844 54.511719 C 29.664062 54.425781 29.257812 54.21875 28.8125 54.488281 C 28.730469 54.539062 28.53125 54.441406 28.402344 54.378906 C 28.179688 54.269531 27.96875 54.128906 27.792969 54.027344 C 27.625 54.125 27.484375 54.277344 27.359375 54.261719 C 27 54.226562 26.824219 54.71875 26.441406 54.539062 C 26.273438 54.914062 25.925781 54.824219 25.625 54.867188 C 25.558594 54.875 25.476562 54.964844 25.453125 55.035156 C 25.324219 55.429688 24.992188 55.46875 24.652344 55.546875 C 24.132812 55.660156 23.519531 55.597656 23.246094 56.285156 C 22.929688 56.054688 22.640625 55.863281 22.296875 56.167969 C 22.445312 56.292969 22.582031 56.40625 22.75 56.542969 C 22.539062 56.679688 22.371094 56.792969 22.199219 56.90625 C 22.203125 56.921875 22.203125 56.9375 22.207031 56.957031 C 24.792969 57.683594 27.523438 58.074219 30.34375 58.074219 C 36.710938 58.074219 42.609375 56.085938 47.445312 52.699219 C 47.125 52.621094 46.859375 52.511719 46.632812 52.566406 Z M 46.632812 52.566406 " fill-opacity="1" fill-rule="nonzero"/></g><g clip-path="url(#77bd37fb73)"><path fill="#231f20" d="M 13.90625 5.390625 C 14.511719 5.277344 15.257812 5.234375 15.835938 5.746094 C 16.402344 6.25 16.988281 6.726562 16.796875 7.613281 C 16.789062 7.636719 16.84375 7.675781 16.871094 7.707031 C 17.597656 7.660156 17.777344 7.757812 17.796875 8.179688 C 17.589844 8.132812 17.375 8.085938 17.148438 8.03125 C 17.054688 8.359375 16.785156 8.636719 17.152344 8.871094 C 17.519531 9.109375 17.640625 8.734375 17.816406 8.5 C 18.140625 8.796875 18.058594 9.050781 17.832031 9.277344 C 17.371094 9.738281 17.34375 10.015625 17.671875 10.5625 C 17.820312 10.804688 17.953125 11.058594 18.070312 11.320312 C 18.261719 11.753906 18.652344 12.140625 19.042969 12.433594 C 19.316406 12.636719 19.730469 12.652344 20.054688 12.746094 C 20.226562 12.179688 20.449219 11.59375 20.574219 10.992188 C 20.644531 10.648438 20.804688 10.503906 21.109375 10.5 C 21.363281 10.496094 21.511719 10.417969 21.683594 10.210938 C 22.027344 9.800781 22.421875 9.476562 23.019531 9.375 C 23.40625 9.3125 23.769531 9.011719 24.101562 8.765625 C 24.253906 8.652344 24.40625 8.398438 24.390625 8.226562 C 24.355469 7.832031 24.210938 7.453125 24.132812 7.148438 C 24.292969 6.878906 24.441406 6.648438 24.5625 6.40625 C 24.574219 6.382812 24.429688 6.285156 24.324219 6.1875 C 24.488281 6.148438 24.621094 6.113281 24.746094 6.082031 C 24.566406 5.871094 24.398438 5.679688 24.203125 5.453125 C 24.386719 5.394531 24.515625 5.351562 24.707031 5.292969 C 24.242188 4.867188 24.210938 4.457031 24.613281 4.015625 C 24.65625 3.96875 24.523438 3.761719 24.484375 3.65625 C 25.019531 3.726562 25.15625 3.144531 25.523438 2.863281 C 24.753906 2.636719 24.113281 3.003906 23.410156 3.296875 C 23.574219 2.988281 23.722656 2.714844 23.875 2.429688 C 23.375 2.257812 22.933594 2.046875 22.464844 1.957031 C 21.972656 1.863281 21.460938 1.871094 20.953125 1.851562 C 20.464844 1.828125 19.972656 1.828125 19.585938 2.207031 C 19.054688 1.972656 18.699219 2.402344 18.21875 2.550781 C 18.347656 2.722656 18.464844 2.882812 18.578125 3.039062 C 18.550781 3.074219 18.523438 3.105469 18.496094 3.140625 C 18.203125 2.902344 17.910156 2.664062 17.554688 2.375 C 17.515625 2.632812 17.492188 2.769531 17.445312 3.085938 C 17.238281 2.503906 16.769531 2.816406 16.460938 2.53125 C 16.429688 2.503906 16.367188 2.492188 16.289062 2.5 C 15.625 2.855469 14.976562 3.230469 14.347656 3.632812 C 14.28125 3.96875 14.125 4.011719 13.808594 3.984375 C 13.511719 4.179688 13.222656 4.382812 12.933594 4.589844 C 13.027344 4.632812 13.128906 4.679688 13.277344 4.746094 C 13.0625 4.820312 12.90625 4.871094 12.691406 4.945312 C 13.101562 5.230469 13.328125 5.5 13.90625 5.390625 Z M 13.90625 5.390625 " fill-opacity="1" fill-rule="nonzero"/></g><path fill="#231f20" d="M 57.351562 38.921875 C 57.117188 39.308594 56.902344 39.59375 56.472656 39.726562 C 56.253906 39.796875 56.039062 39.898438 55.84375 40.015625 C 55.4375 40.257812 54.964844 40.445312 54.914062 41.019531 C 54.871094 41.519531 54.789062 42.015625 54.902344 42.527344 C 55.054688 43.21875 55.21875 43.925781 54.863281 44.621094 C 54.828125 44.6875 54.933594 44.824219 55.035156 44.988281 C 56.527344 42.78125 57.730469 40.359375 58.582031 37.78125 C 58.578125 37.773438 58.570312 37.769531 58.5625 37.765625 C 58.148438 38.144531 57.632812 38.460938 57.351562 38.921875 Z M 57.351562 38.921875 " fill-opacity="1" fill-rule="nonzero"/><path fill="#231f20" d="M 56.527344 31.070312 C 56.371094 31.296875 56.296875 31.453125 56.175781 31.566406 C 55.78125 31.945312 55.390625 32.339844 54.949219 32.660156 C 54.832031 32.742188 54.558594 32.667969 54.527344 32.90625 C 54.5 33.105469 54.523438 33.324219 54.5625 33.527344 C 54.585938 33.644531 54.679688 33.75 54.734375 33.863281 C 54.929688 34.253906 55.90625 34.546875 56.136719 34.214844 C 56.417969 33.808594 56.695312 33.285156 56.671875 32.824219 C 56.652344 32.359375 56.636719 31.984375 56.988281 31.632812 C 56.835938 31.449219 56.707031 31.292969 56.527344 31.070312 Z M 56.527344 31.070312 " fill-opacity="1" fill-rule="nonzero"/><path fill="#231f20" d="M 38.628906 41.082031 C 38.804688 41.035156 39.019531 40.882812 39.078125 40.722656 C 39.433594 39.785156 39.765625 38.835938 40.066406 37.878906 C 40.160156 37.585938 40.234375 37.230469 39.882812 36.929688 C 39.566406 37.441406 39.246094 37.886719 38.683594 38.109375 C 38.554688 38.160156 38.523438 38.496094 38.476562 38.703125 C 38.429688 38.914062 38.480469 39.175781 38.371094 39.335938 C 38.070312 39.796875 38.085938 40.25 38.292969 40.714844 C 38.359375 40.867188 38.550781 41.101562 38.628906 41.082031 Z M 38.628906 41.082031 " fill-opacity="1" fill-rule="nonzero"/><path fill="#231f20" d="M 39.582031 7.074219 C 39.75 7.179688 39.984375 7.242188 40.058594 7.386719 C 40.289062 7.84375 40.570312 7.695312 40.847656 7.566406 C 40.738281 7.25 40.558594 6.964844 40.558594 6.683594 C 40.5625 5.980469 41.132812 5.339844 41.816406 5.136719 C 42.160156 5.03125 42.5 4.910156 42.828125 4.765625 C 42.90625 4.734375 42.925781 4.574219 42.972656 4.476562 C 42.867188 4.460938 42.75 4.410156 42.652344 4.4375 C 42.390625 4.511719 42.140625 4.683594 41.882812 4.695312 C 41.113281 4.726562 40.539062 5.101562 40.03125 5.625 C 39.972656 5.6875 39.859375 5.769531 39.871094 5.808594 C 40.03125 6.296875 39.546875 6.632812 39.582031 7.074219 Z M 39.582031 7.074219 " fill-opacity="1" fill-rule="nonzero"/><path fill="#231f20" d="M 53.492188 33.886719 C 53.457031 33.882812 53.433594 33.792969 53.40625 33.738281 C 53.183594 33.324219 52.960938 32.90625 52.738281 32.492188 C 52.738281 32.492188 52.742188 32.496094 52.746094 32.5 L 52.753906 32.507812 C 52.753906 32.503906 52.753906 32.5 52.753906 32.496094 C 52.75 32.496094 52.746094 32.492188 52.738281 32.492188 C 52.476562 32.214844 52.195312 31.953125 51.964844 31.652344 C 51.765625 31.398438 51.539062 31.355469 51.210938 31.386719 C 51.246094 31.523438 51.242188 31.644531 51.296875 31.707031 C 51.914062 32.382812 52.269531 33.195312 52.597656 34.027344 C 52.675781 34.222656 52.753906 34.421875 52.855469 34.601562 C 53.015625 34.886719 53.410156 35.0625 53.523438 34.890625 C 53.6875 34.636719 53.8125 34.332031 53.851562 34.035156 C 53.886719 33.773438 53.632812 33.902344 53.492188 33.886719 Z M 53.492188 33.886719 " fill-opacity="1" fill-rule="nonzero"/><path fill="#231f20" d="M 24.445312 10.28125 C 24.417969 10.269531 24.238281 10.460938 24.253906 10.480469 C 24.40625 10.71875 24.402344 11.058594 24.730469 11.1875 C 25.335938 11.421875 25.796875 11.195312 26.097656 10.453125 C 25.980469 10.339844 25.84375 10.210938 25.730469 10.109375 C 25.261719 10.082031 24.902344 10.492188 24.445312 10.28125 Z M 24.445312 10.28125 " fill-opacity="1" fill-rule="nonzero"/><path fill="#231f20" d="M 58.351562 32.980469 C 58.03125 32.980469 57.777344 32.949219 57.535156 32.988281 C 57.371094 33.015625 57.132812 33.109375 57.089844 33.234375 C 56.886719 33.792969 56.761719 34.375 56.945312 34.964844 C 56.992188 34.976562 57.039062 34.988281 57.085938 34.996094 C 57.15625 34.820312 57.222656 34.644531 57.296875 34.464844 C 57.46875 34.65625 57.632812 34.835938 57.796875 35.015625 C 57.84375 34.984375 57.890625 34.957031 57.9375 34.929688 C 57.808594 34.609375 57.683594 34.289062 57.5625 33.988281 C 57.671875 33.871094 57.765625 33.773438 57.894531 33.632812 C 57.679688 33.542969 57.515625 33.472656 57.324219 33.390625 C 57.632812 33.113281 58.121094 33.464844 58.351562 32.980469 Z M 58.351562 32.980469 " fill-opacity="1" fill-rule="nonzero"/><path fill="#231f20" d="M 17.675781 16.722656 C 17.488281 16.578125 17.210938 16.535156 17.070312 16.371094 C 16.953125 16.234375 16.964844 15.988281 16.925781 15.785156 C 16.679688 16.195312 16.433594 16.605469 16.183594 17.019531 C 16.839844 17.109375 17.445312 17.195312 18.183594 17.296875 C 17.964844 17.046875 17.84375 16.851562 17.675781 16.722656 Z M 17.675781 16.722656 " fill-opacity="1" fill-rule="nonzero"/><path fill="#231f20" d="M 55.582031 35.558594 C 55.230469 35.027344 54.574219 35.3125 54.113281 35.042969 C 54.003906 34.976562 53.632812 35.097656 53.589844 35.210938 C 53.488281 35.492188 53.785156 35.527344 53.976562 35.566406 C 54.519531 35.6875 55.070312 35.785156 55.753906 35.921875 C 55.664062 35.730469 55.632812 35.640625 55.582031 35.558594 Z M 55.582031 35.558594 " fill-opacity="1" fill-rule="nonzero"/><path fill="#231f20" d="M 25.496094 14.609375 C 25.046875 14.898438 25.1875 15.320312 25.117188 15.761719 C 25.257812 15.769531 25.34375 15.796875 25.421875 15.777344 C 25.855469 15.675781 26.011719 15.371094 26.015625 14.953125 C 26.015625 14.808594 26.105469 14.589844 26.042969 14.539062 C 25.871094 14.394531 25.703125 14.476562 25.496094 14.609375 Z M 25.496094 14.609375 " fill-opacity="1" fill-rule="nonzero"/><path fill="#231f20" d="M 7.941406 24.773438 C 7.941406 24.816406 7.941406 24.859375 7.941406 24.90625 C 8.15625 24.871094 8.402344 24.757812 8.585938 24.816406 C 9 24.953125 9.445312 25.109375 9.765625 25.382812 C 10.140625 25.695312 10.457031 25.667969 10.941406 25.488281 C 9.910156 25.074219 9.0625 24.304688 7.941406 24.773438 Z M 7.941406 24.773438 " fill-opacity="1" fill-rule="nonzero"/><path fill="#231f20" d="M 58.207031 28.972656 C 57.6875 28.792969 57.589844 28.511719 57.886719 28.03125 C 58.027344 27.804688 57.84375 27.617188 57.503906 27.550781 C 57.257812 28.855469 57.257812 28.855469 58.300781 29.21875 C 58.25 29.082031 58.242188 28.984375 58.207031 28.972656 Z M 58.207031 28.972656 " fill-opacity="1" fill-rule="nonzero"/><path fill="#231f20" d="M 11.539062 25.753906 C 11.550781 26.164062 11.210938 25.996094 10.996094 26.03125 C 11.007812 26.078125 11.019531 26.125 11.03125 26.171875 C 11.636719 26.128906 12.238281 26.089844 12.839844 26.046875 C 12.847656 25.984375 12.855469 25.925781 12.859375 25.863281 C 12.527344 25.789062 12.195312 25.699219 11.855469 25.644531 C 11.753906 25.628906 11.539062 25.71875 11.539062 25.753906 Z M 11.539062 25.753906 " fill-opacity="1" fill-rule="nonzero"/><path fill="#231f20" d="M 57.707031 30.847656 C 58.019531 31.105469 58.257812 31.304688 58.496094 31.503906 C 58.546875 31.117188 59.101562 30.851562 58.695312 30.488281 C 58.355469 30.613281 58.046875 30.722656 57.707031 30.847656 Z M 57.707031 30.847656 " fill-opacity="1" fill-rule="nonzero"/><path fill="#231f20" d="M 8.660156 10.917969 C 8.773438 11 8.882812 11.082031 9.019531 11.1875 C 9.148438 11.011719 9.25 10.871094 9.347656 10.730469 C 9.550781 10.882812 9.683594 11.179688 9.984375 10.871094 C 9.65625 10.625 9.332031 10.378906 8.960938 10.101562 C 8.832031 10.449219 8.75 10.675781 8.660156 10.917969 Z M 8.660156 10.917969 " fill-opacity="1" fill-rule="nonzero"/><g clip-path="url(#5b850f160d)"><path fill="#231f20" d="M 53.394531 32.636719 C 53.171875 32.164062 53.414062 31.582031 52.914062 31.15625 C 52.234375 30.578125 52.292969 29.867188 52.679688 28.996094 C 53.066406 29.511719 53.394531 29.957031 53.71875 30.386719 C 53.941406 30.226562 54.1875 30.039062 54.441406 29.867188 C 54.742188 29.660156 54.867188 29.359375 54.761719 29.039062 C 54.628906 28.625 54.460938 28.203125 54.21875 27.847656 C 53.75 27.160156 53.890625 26.707031 54.710938 26.496094 C 54.910156 26.734375 54.988281 26.953125 54.671875 27.175781 C 54.625 27.207031 54.707031 27.414062 54.730469 27.539062 C 54.855469 27.492188 55.011719 27.476562 55.089844 27.390625 C 55.15625 27.3125 55.183594 27.132812 55.136719 27.039062 C 54.941406 26.636719 55.183594 26.53125 55.496094 26.410156 C 55.835938 26.28125 56.167969 26.117188 56.480469 25.933594 C 57.191406 25.519531 57.328125 24.738281 57.628906 24.070312 C 57.796875 23.695312 57.652344 23.304688 57.484375 22.949219 C 57.421875 22.816406 57.328125 22.695312 57.261719 22.566406 C 57.011719 22.09375 57.082031 21.804688 57.527344 21.5 C 57.617188 21.4375 57.707031 21.378906 57.796875 21.320312 C 57.789062 21.28125 57.777344 21.238281 57.769531 21.199219 C 57.476562 21.199219 57.1875 21.199219 56.832031 21.199219 C 56.78125 21.109375 56.691406 20.953125 56.617188 20.820312 C 56.929688 20.546875 57.207031 20.308594 57.546875 20.011719 C 57.546875 20.289062 57.546875 20.472656 57.546875 20.65625 C 57.617188 20.65625 57.640625 20.664062 57.65625 20.652344 C 58.167969 20.324219 58.164062 20.324219 58.347656 20.886719 C 58.371094 20.960938 58.421875 21.0625 58.484375 21.082031 C 58.945312 21.234375 58.8125 21.597656 58.808594 21.921875 C 58.808594 22.050781 58.808594 22.179688 58.808594 22.378906 C 59.019531 22.257812 59.1875 22.164062 59.355469 22.066406 C 57.792969 15.121094 53.769531 9.101562 48.246094 4.953125 C 48.160156 4.960938 48.078125 5 48 5.078125 C 47.820312 5.25 47.761719 5.539062 47.601562 5.875 C 47.488281 5.875 47.222656 5.832031 46.984375 5.886719 C 46.78125 5.933594 46.503906 6.046875 46.4375 6.207031 C 46.324219 6.464844 46.433594 6.746094 46.75 6.875 C 46.824219 6.90625 46.90625 6.9375 46.96875 6.992188 C 47.199219 7.191406 47.1875 7.546875 46.902344 7.855469 C 46.902344 7.574219 46.902344 7.335938 46.902344 7.128906 C 46.46875 6.925781 46.082031 6.746094 45.601562 6.523438 C 45.816406 6.882812 45.675781 7.039062 45.335938 7.09375 C 45.46875 7.253906 45.554688 7.355469 45.644531 7.464844 C 45.230469 7.660156 45.132812 7.277344 44.925781 7.078125 C 44.503906 7.5 44.953125 7.886719 44.929688 8.269531 C 44.925781 8.300781 45.269531 8.351562 45.339844 8.371094 C 45.257812 8.578125 45.167969 8.804688 45.082031 9.035156 C 45.019531 9.195312 44.96875 9.363281 44.910156 9.527344 C 44.8125 9.21875 44.816406 8.957031 44.78125 8.699219 C 44.746094 8.460938 44.703125 8.210938 44.601562 7.996094 C 44.40625 7.578125 44.488281 7.152344 44.472656 6.722656 C 44.46875 6.59375 44.328125 6.394531 44.210938 6.363281 C 44.054688 6.320312 43.796875 6.34375 43.691406 6.449219 C 43.222656 6.90625 43.160156 7.664062 43.472656 8.257812 C 43.542969 8.386719 43.527344 8.554688 43.566406 8.796875 C 42.980469 8.398438 42.53125 7.910156 41.832031 8.21875 C 41.78125 8.421875 41.992188 8.875 41.449219 8.617188 C 41.371094 8.582031 41.25 8.632812 41.148438 8.648438 C 40.882812 8.683594 40.511719 8.84375 40.375 8.730469 C 40.023438 8.433594 39.769531 8.65625 39.523438 8.796875 C 39.265625 8.945312 39.054688 9.183594 38.839844 9.402344 C 38.753906 9.484375 38.714844 9.617188 38.65625 9.726562 C 38.589844 9.695312 38.519531 9.664062 38.453125 9.632812 C 38.445312 9.496094 38.394531 9.34375 38.4375 9.222656 C 38.589844 8.785156 38.558594 8.730469 38.011719 8.652344 C 37.984375 8.980469 37.960938 9.308594 37.9375 9.613281 C 37.695312 9.683594 37.4375 9.691406 37.292969 9.824219 C 37.164062 9.9375 37.15625 10.1875 37.097656 10.375 C 36.9375 10.316406 36.761719 10.246094 36.480469 10.140625 C 36.589844 10.425781 36.652344 10.585938 36.710938 10.75 C 36.492188 10.761719 36.265625 10.714844 36.214844 10.59375 C 36.050781 10.183594 35.886719 9.785156 35.5 9.507812 C 35.875 9.582031 36.207031 9.707031 36.546875 9.800781 C 36.886719 9.894531 37.136719 9.738281 37.269531 9.433594 C 37.386719 9.15625 37.1875 9.003906 36.976562 8.882812 C 36.59375 8.664062 36.226562 8.371094 35.808594 8.257812 C 35.167969 8.085938 34.773438 7.558594 34.246094 7.277344 C 34.117188 7.347656 34.019531 7.453125 33.9375 7.441406 C 33.269531 7.351562 32.761719 7.847656 32.136719 7.914062 C 31.984375 7.929688 31.757812 8.15625 31.734375 8.3125 C 31.621094 9.152344 31.101562 9.789062 30.609375 10.273438 C 30.097656 10.773438 29.546875 11.238281 29 11.699219 C 28.828125 11.847656 28.792969 11.980469 28.855469 12.191406 C 28.921875 12.425781 28.929688 12.675781 28.96875 12.921875 C 29.050781 13.441406 29.351562 13.582031 29.820312 13.328125 C 29.992188 13.234375 30.171875 13.148438 30.332031 13.070312 C 30.484375 13.429688 30.605469 13.710938 30.734375 14.011719 C 30.574219 14.109375 30.421875 14.207031 30.25 14.3125 C 30.222656 14.023438 30.199219 13.769531 30.175781 13.484375 C 29.578125 13.921875 29.578125 13.921875 29.734375 14.539062 C 29.867188 15.050781 29.816406 15.113281 29.3125 15.234375 C 29.125 15.28125 28.839844 15.367188 28.792969 15.5 C 28.632812 15.953125 28.304688 15.875 27.914062 15.878906 C 27.996094 15.6875 28.058594 15.546875 28.105469 15.441406 C 27.824219 15.136719 27.558594 14.871094 27.324219 14.585938 C 27.085938 14.292969 26.894531 13.972656 27.125 13.558594 C 26.953125 13.515625 26.835938 13.484375 26.71875 13.453125 C 26.726562 13.34375 26.738281 13.230469 26.746094 13.121094 C 26.339844 13.042969 26.296875 13.34375 26.21875 13.566406 C 25.992188 14.1875 26.40625 14.546875 26.894531 14.886719 C 26.285156 15.183594 26.386719 15.660156 26.417969 16.148438 C 26.933594 16.109375 27.417969 16.070312 27.902344 16.03125 C 27.917969 16.097656 27.929688 16.167969 27.945312 16.234375 C 27.691406 16.335938 27.257812 16.394531 27.214844 16.550781 C 27.097656 17.003906 26.542969 16.546875 26.484375 16.984375 C 26.867188 17.421875 27.648438 17.679688 27.277344 18.507812 C 26.59375 18.691406 25.882812 18.25 25.277344 18.613281 C 25.292969 18.96875 25.386719 19.265625 25.300781 19.5 C 25.164062 19.882812 25.234375 20.195312 25.378906 20.519531 C 25.574219 20.570312 25.769531 20.59375 25.933594 20.671875 C 26.730469 21.058594 27.472656 20.550781 27.699219 19.953125 C 27.769531 19.765625 27.867188 19.558594 28.015625 19.433594 C 28.25 19.238281 28.578125 19.136719 28.574219 18.746094 C 28.574219 18.707031 28.777344 18.605469 28.828125 18.636719 C 29.308594 18.902344 29.609375 18.496094 30.007812 18.332031 C 30.117188 18.46875 30.214844 18.605469 30.324219 18.726562 C 30.53125 18.960938 30.710938 19.25 30.96875 19.402344 C 31.410156 19.667969 31.777344 19.945312 31.757812 20.546875 C 31.800781 20.535156 31.84375 20.523438 31.886719 20.511719 C 31.972656 20.234375 32.058594 19.957031 32.167969 19.609375 C 32.105469 19.5625 31.957031 19.449219 31.816406 19.328125 C 31.492188 19.046875 31.152344 18.777344 30.855469 18.46875 C 30.773438 18.386719 30.816406 18.1875 30.800781 18.042969 C 31.140625 18.199219 31.335938 18.449219 31.589844 18.601562 C 32.109375 18.917969 32.613281 19.179688 32.746094 19.882812 C 32.8125 20.230469 33.164062 20.523438 33.429688 20.898438 C 33.59375 20.789062 33.769531 20.667969 33.945312 20.546875 C 33.789062 20.300781 33.667969 20.113281 33.546875 19.925781 C 34.269531 19.46875 34.265625 19.46875 34.457031 20.21875 C 34.496094 20.378906 34.523438 20.570312 34.625 20.679688 C 34.820312 20.886719 35.046875 21.152344 35.300781 21.199219 C 35.734375 21.285156 36.199219 21.222656 36.679688 21.222656 C 36.695312 21.261719 36.757812 21.339844 36.75 21.414062 C 36.714844 21.765625 36.730469 22.148438 36.578125 22.441406 C 36.507812 22.585938 36.101562 22.558594 35.847656 22.609375 C 35.765625 22.625 35.679688 22.640625 35.597656 22.65625 C 34.9375 22.785156 34.304688 22.714844 33.710938 22.382812 C 33.621094 22.332031 33.535156 22.265625 33.4375 22.230469 C 33.09375 22.109375 32.945312 22.199219 32.84375 22.566406 C 32.816406 22.65625 32.792969 22.75 32.738281 22.933594 C 32.378906 22.773438 32.054688 22.640625 31.742188 22.496094 C 31.539062 22.402344 31.355469 22.253906 31.144531 22.191406 C 30.628906 22.035156 30.558594 21.953125 30.558594 21.375 C 30.558594 21.25 30.566406 21.113281 30.519531 21.007812 C 30.46875 20.890625 30.355469 20.714844 30.273438 20.71875 C 29.351562 20.75 28.402344 20.578125 27.519531 20.996094 C 27.0625 21.210938 26.613281 21.273438 26.1875 21.023438 C 25.992188 21.265625 25.867188 21.574219 25.652344 21.65625 C 25.179688 21.839844 25.054688 22.15625 25.085938 22.589844 C 25.109375 22.882812 24.996094 23.105469 24.75 23.214844 C 23.992188 23.546875 23.679688 24.25 23.277344 24.886719 C 23.152344 25.078125 23.132812 25.214844 23.1875 25.453125 C 23.269531 25.828125 23.324219 26.277344 23.191406 26.621094 C 22.941406 27.273438 23.066406 27.75 23.585938 28.175781 C 23.679688 28.253906 23.761719 28.367188 23.8125 28.480469 C 24.09375 29.136719 24.582031 29.605469 25.148438 30.03125 C 25.46875 30.273438 25.726562 30.539062 26.148438 30.246094 C 26.222656 30.195312 26.367188 30.195312 26.457031 30.230469 C 27.125 30.472656 27.742188 30.21875 28.367188 30.046875 C 28.800781 29.929688 29.066406 30.003906 29.238281 30.414062 C 29.324219 30.621094 29.414062 30.707031 29.640625 30.730469 C 30.378906 30.792969 30.445312 30.894531 30.308594 31.640625 C 30.28125 31.785156 30.285156 31.9375 30.234375 32.074219 C 30.113281 32.398438 30.226562 32.644531 30.445312 32.875 C 30.917969 33.367188 31.136719 34 31.226562 34.632812 C 31.308594 35.179688 31.433594 35.753906 31.054688 36.324219 C 30.789062 36.714844 30.597656 37.265625 30.867188 37.765625 C 31.300781 38.5625 31.464844 39.40625 31.464844 40.300781 C 31.464844 40.546875 31.511719 40.8125 31.625 41.027344 C 31.914062 41.574219 32.160156 42.101562 31.996094 42.753906 C 31.910156 43.089844 32.148438 43.382812 32.445312 43.390625 C 32.859375 43.402344 33.277344 43.421875 33.683594 43.367188 C 33.941406 43.335938 34.242188 43.230469 34.417969 43.054688 C 34.945312 42.523438 35.539062 42.007812 35.660156 41.214844 C 35.703125 40.925781 35.777344 40.730469 36.066406 40.664062 C 36.351562 40.597656 36.425781 40.40625 36.417969 40.144531 C 36.410156 39.933594 36.421875 39.722656 36.40625 39.511719 C 36.34375 38.839844 36.539062 38.550781 37.136719 38.238281 C 37.394531 38.101562 37.730469 37.855469 37.769531 37.613281 C 37.878906 36.992188 38.015625 36.359375 37.757812 35.707031 C 37.609375 35.324219 37.578125 34.832031 37.667969 34.429688 C 37.839844 33.664062 38.429688 33.109375 38.867188 32.476562 C 38.898438 32.429688 38.972656 32.40625 39.011719 32.359375 C 39.335938 32.003906 39.730469 31.6875 39.957031 31.277344 C 40.269531 30.714844 40.460938 30.082031 40.6875 29.472656 C 40.738281 29.335938 40.714844 29.171875 40.726562 28.988281 C 40.503906 29.03125 40.355469 29.050781 40.214844 29.085938 C 40.046875 29.121094 39.886719 29.171875 39.722656 29.207031 C 39.117188 29.34375 38.929688 29.214844 38.847656 28.605469 C 38.890625 28.597656 38.273438 27.96875 38.011719 27.65625 C 37.933594 27.5625 37.894531 27.4375 37.847656 27.324219 C 37.828125 27.269531 37.863281 27.175781 37.828125 27.140625 C 37.347656 26.644531 37.382812 25.929688 37.0625 25.359375 C 36.789062 24.878906 36.640625 24.328125 36.511719 23.703125 C 36.632812 23.757812 36.8125 23.785156 36.867188 23.878906 C 37.210938 24.460938 37.695312 24.984375 37.71875 25.710938 C 37.730469 26.113281 38.046875 26.320312 38.25 26.601562 C 38.628906 27.121094 38.835938 28.34375 38.859375 28.386719 C 38.933594 28.441406 39.011719 28.496094 39.058594 28.558594 C 39.445312 28.472656 39.839844 28.402344 40.199219 28.253906 C 40.570312 28.097656 40.859375 27.757812 41.230469 27.59375 C 41.867188 27.3125 42.261719 26.867188 42.527344 26.230469 C 42.691406 25.84375 42.621094 25.601562 42.34375 25.351562 C 42.148438 25.171875 41.960938 24.984375 41.769531 24.800781 C 41.109375 25.242188 41.058594 25.28125 40.558594 24.679688 C 40.25 24.308594 39.871094 23.898438 39.902344 23.328125 C 40.34375 23.132812 40.429688 23.457031 40.574219 23.710938 C 41.023438 24.503906 41.132812 24.554688 42 24.40625 C 42.097656 24.769531 42.351562 24.929688 42.742188 24.914062 C 43.054688 24.902344 43.371094 24.96875 43.679688 24.9375 C 43.957031 24.914062 44.164062 24.945312 44.34375 25.183594 C 44.519531 25.410156 44.75 25.605469 44.949219 25.816406 C 44.988281 25.855469 45.042969 25.9375 45.03125 25.953125 C 44.835938 26.195312 45 26.390625 45.179688 26.464844 C 45.324219 26.53125 45.539062 26.441406 45.710938 26.421875 C 45.816406 27.875 46.242188 29.234375 46.875 30.582031 C 47.492188 30.164062 47.597656 29.617188 47.574219 29.011719 C 47.5625 28.632812 47.605469 28.316406 47.964844 28.027344 C 48.492188 27.605469 48.929688 27.070312 49.414062 26.589844 C 49.480469 26.523438 49.585938 26.492188 49.679688 26.453125 C 49.914062 26.351562 50.152344 26.257812 50.421875 26.148438 C 50.546875 26.832031 51.375 27.277344 51.0625 28.21875 C 51.378906 28.125 51.566406 28.066406 51.820312 27.992188 C 51.953125 28.546875 52.148438 29.085938 52.195312 29.636719 C 52.238281 30.179688 52.152344 30.703125 52.46875 31.230469 C 52.679688 31.585938 52.667969 32.070312 52.757812 32.496094 C 52.933594 32.574219 53.109375 32.648438 53.285156 32.726562 C 53.320312 32.695312 53.359375 32.667969 53.394531 32.636719 Z M 33.398438 12.8125 C 33.449219 13.128906 33.492188 13.378906 33.546875 13.734375 C 33.296875 13.636719 33.15625 13.585938 33.054688 13.546875 C 32.835938 13.941406 32.707031 14.414062 32.394531 14.671875 C 32.125 14.894531 31.652344 14.921875 31.265625 14.949219 C 31.003906 14.972656 30.71875 14.859375 30.667969 14.480469 C 30.847656 14.394531 31.007812 14.277344 31.191406 14.226562 C 31.617188 14.105469 31.742188 13.816406 31.769531 13.410156 C 31.78125 13.289062 31.9375 13.167969 32.039062 13.058594 C 32.230469 12.859375 32.347656 12.675781 32.121094 12.40625 C 31.671875 11.867188 31.773438 11.289062 32.335938 10.847656 C 32.5 10.71875 32.652344 10.527344 32.71875 10.332031 C 32.886719 9.832031 32.964844 9.773438 33.707031 9.96875 C 33.476562 10.304688 33.308594 10.585938 33.105469 10.835938 C 32.753906 11.269531 32.886719 12.175781 33.386719 12.417969 C 33.492188 12.46875 33.6875 12.375 33.828125 12.308594 C 34.214844 12.132812 34.332031 12.15625 34.730469 12.574219 C 34.273438 12.65625 33.855469 12.730469 33.398438 12.8125 Z M 37.597656 19.558594 C 37.3125 19.546875 37 19.515625 36.746094 19.394531 C 36.390625 19.222656 36.082031 19.164062 35.726562 19.386719 C 35.597656 19.46875 35.40625 19.488281 35.246094 19.480469 C 34.765625 19.460938 34.652344 19.273438 34.84375 18.835938 C 35.007812 18.460938 35.1875 18.089844 35.421875 17.585938 C 35.675781 17.828125 35.824219 17.933594 35.929688 18.070312 C 36.203125 18.4375 36.199219 18.445312 36.671875 18.253906 C 36.570312 18.160156 36.472656 18.066406 36.316406 17.921875 C 36.625 17.796875 36.875 17.695312 37.179688 17.574219 C 37.109375 17.824219 37.050781 18.03125 36.980469 18.292969 C 37.25 18.507812 37.542969 18.714844 37.800781 18.953125 C 37.910156 19.054688 37.949219 19.230469 38.019531 19.375 C 37.878906 19.4375 37.734375 19.566406 37.597656 19.558594 Z M 37.597656 19.558594 " fill-opacity="1" fill-rule="nonzero"/></g></svg>